SplineFontDB: 3.0
FontName: Neuton-Light
FullName: Neuton Light
FamilyName: Neuton
Weight: Light
Copyright: Copyright (c) 2010, 2011 Brian M Zick (http://21326.info/), \nwith Reserved Font Name "Neuton".\n\nThis Font Software is licensed under the SIL Open Font License, Version 1.1.This license is available with a FAQ at: http://scripts.sil.org/OFL\n   WITHOUT WARRANTIES OR CONDITIONS OF ANY KIND, either express or implied.\n   See the License for the specific language governing permissions and\n   limitations under the License.
UComments: "2011-6-6: Created." 
Version: 1.41
ItalicAngle: 0
UnderlinePosition: -361
UnderlineWidth: 0
Ascent: 1638
Descent: 410
LayerCount: 2
Layer: 0 0 "Back"  1
Layer: 1 0 "Fore"  0
NeedsXUIDChange: 1
XUID: [1021 467 2011608612 1910391]
FSType: 0
OS2Version: 1
OS2_WeightWidthSlopeOnly: 0
OS2_UseTypoMetrics: 0
CreationTime: 1307389376
ModificationTime: 1315235964
PfmFamily: 17
TTFWeight: 300
TTFWidth: 5
LineGap: 0
VLineGap: 0
Panose: 2 0 3 3 0 0 0 0 0 0
OS2TypoAscent: 2106
OS2TypoAOffset: 0
OS2TypoDescent: -485
OS2TypoDOffset: 0
OS2TypoLinegap: 0
OS2WinAscent: 2106
OS2WinAOffset: 0
OS2WinDescent: 485
OS2WinDOffset: 0
HheadAscent: 2106
HheadAOffset: 0
HheadDescent: -485
HheadDOffset: 0
OS2Vendor: 'PfEd'
Lookup: 1 0 0 "'sups' Superscript lookup 0"  {"'sups' Superscript lookup 0 subtable" ("superior" ) } ['sups' ('DFLT' <'dflt' > ) ]
MarkAttachClasses: 1
DEI: 91125

StartChar: A
Encoding: 65 65 0
Width: 1324
VWidth: 0
Flags: MW
LayerCount: 2
Fore
SplineSet
35 0 m 1
 43 58 l 1
 188 101 l 1
 626 1246 l 1
 728 1268 l 1
 1130 95 l 1
 1265 64 l 1
 1257 0 l 1
 795 0 l 1
 805 58 l 1
 974 101 l 1
 850 455 l 1
 425 455 l 1
 294 95 l 1
 479 63 l 1
 469 0 l 1
 35 0 l 1
453 534 m 1
 826 534 l 1
 646 1060 l 1
 453 534 l 1
EndSplineSet
Colour: ffffff
EndChar

StartChar: AE
Encoding: 198 198 1
Width: 1686
VWidth: 0
Flags: MW
LayerCount: 2
Fore
SplineSet
0 2 m 1
 8 60 l 1
 147 102 l 1
 791 1154 l 1
 567 1187 l 1
 576 1244 l 1
 1600 1244 l 1
 1568 926 l 1
 1503 936 l 1
 1472 1173 l 1
 986 1173 l 1
 986 669 l 1
 1285 669 l 1
 1325 801 l 1
 1397 808 l 1
 1363 421 l 1
 1297 409 l 1
 1272 596 l 1
 986 596 l 1
 986 75 l 1
 1500 75 l 1
 1586 326 l 1
 1646 313 l 1
 1616 0 l 1
 654 0 l 1
 661 58 l 1
 841 96 l 1
 841 472 l 1
 486 472 l 1
 259 96 l 1
 445 66 l 1
 435 2 l 1
 0 2 l 1
532 553 m 1
 842 553 l 1
 845 1075 l 5
 532 553 l 1
EndSplineSet
Colour: ffffff
EndChar

StartChar: B
Encoding: 66 66 3
Width: 1135
VWidth: 0
Flags: MW
LayerCount: 2
Fore
SplineSet
82 0 m 1
 92 58 l 1
 260 96 l 1
 260 1129 l 1
 89 1155 l 1
 98 1211 l 1
 244 1232 388 1257 566 1257 c 0
 853 1257 983 1118 983 967 c 0
 983 847 914 741 777 679 c 1
 777 672 l 1
 982 661 1087 513 1087 380 c 0
 1087 188 964 0 554 0 c 2
 82 0 l 1
407 75 m 1
 639 75 l 2
 855 75 936 213 936 347 c 0
 936 471 857 618 646 618 c 2
 407 618 l 1
 407 75 l 1
407 685 m 1
 691 685 l 1
 770 727 838 806 838 922 c 0
 838 1078 737 1192 507 1192 c 0
 482 1192 434 1191 407 1186 c 1
 407 685 l 1
EndSplineSet
Colour: ffffff
EndChar

StartChar: C
Encoding: 67 67 4
Width: 1113
VWidth: 0
Flags: MW
LayerCount: 2
Fore
SplineSet
108 599 m 0
 108 894 291 1270 711 1270 c 0
 844 1270 966 1244 1062 1171 c 1
 1031 836 l 1
 963 846 l 1
 927 1086 l 1
 881 1146 803 1195 659 1195 c 0
 446 1195 271 978 271 651 c 0
 271 284 464 84 727 84 c 0
 871 84 1000 166 1084 252 c 1
 1113 195 l 1
 1042 100 870 -25 658 -25 c 0
 352 -25 108 207 108 599 c 0
EndSplineSet
Colour: ffffff
EndChar

StartChar: D
Encoding: 68 68 6
Width: 1344
VWidth: 0
Flags: MW
LayerCount: 2
Fore
SplineSet
81 0 m 1
 92 58 l 1
 263 101 l 1
 263 1128 l 1
 90 1154 l 1
 100 1210 l 1
 297 1241 447 1259 593 1259 c 0
 1128 1259 1290 962 1290 654 c 0
 1290 312 1056 0 544 0 c 2
 81 0 l 1
409 79 m 1
 571 79 l 2
 926 79 1127 299 1127 599 c 0
 1127 934 936 1181 557 1181 c 0
 516 1181 450 1181 409 1176 c 1
 409 79 l 1
EndSplineSet
Colour: ffffff
EndChar

StartChar: Dcroat
Encoding: 272 272 7
Width: 1353
VWidth: 0
Flags: MW
LayerCount: 2
Fore
SplineSet
86 574 m 1
 97 650 l 1
 267 662 l 1
 267 1129 l 1
 95 1155 l 1
 104 1211 l 1
 301 1242 452 1260 598 1260 c 0
 1133 1260 1301 965 1301 657 c 0
 1301 323 1060 0 557 0 c 2
 86 0 l 1
 97 58 l 1
 267 101 l 1
 267 587 l 1
 86 574 l 1
413 79 m 1
 609 79 l 2
 951 79 1137 305 1137 599 c 0
 1137 934 942 1182 561 1182 c 0
 520 1182 454 1181 413 1176 c 1
 413 672 l 1
 686 692 l 1
 676 616 l 1
 413 597 l 1
 413 79 l 1
EndSplineSet
Colour: ffffff
EndChar

StartChar: E
Encoding: 69 69 8
Width: 1107
VWidth: 0
Flags: MW
LayerCount: 2
Fore
SplineSet
84 1185 m 1
 93 1244 l 1
 1044 1244 l 1
 1013 925 l 1
 946 934 l 1
 916 1173 l 1
 413 1173 l 1
 413 668 l 1
 728 668 l 1
 768 797 l 1
 840 808 l 1
 807 419 l 1
 741 408 l 1
 716 594 l 1
 413 594 l 1
 413 75 l 1
 942 75 l 1
 1028 324 l 1
 1090 313 l 1
 1060 0 l 1
 90 0 l 1
 96 58 l 1
 265 96 l 1
 265 1151 l 1
 84 1185 l 1
EndSplineSet
Colour: ffffff
EndChar

StartChar: Eng
Encoding: 330 330 10
Width: 1383
VWidth: 0
Flags: MW
LayerCount: 2
Fore
SplineSet
63 1188 m 1
 73 1244 l 1
 400 1244 l 1
 1067 225 l 1
 1067 1154 l 1
 882 1187 l 1
 891 1244 l 1
 1341 1244 l 1
 1330 1187 l 1
 1164 1156 l 1
 1164 151 l 2
 1164 -116 1047 -266 905 -356 c 2
 860 -383 l 1
 819 -315 l 1
 909 -249 994 -153 1022 33 c 1
 347 1047 l 1
 347 90 l 1
 531 63 l 1
 521 0 l 1
 73 0 l 1
 79 58 l 1
 246 96 l 1
 246 1147 l 1
 63 1188 l 1
EndSplineSet
Colour: ffffff
EndChar

StartChar: Eth
Encoding: 208 208 11
Width: 1348
VWidth: 0
Flags: MW
LayerCount: 2
Fore
SplineSet
82 574 m 1
 92 650 l 1
 263 662 l 1
 263 1129 l 1
 90 1155 l 1
 100 1211 l 1
 297 1242 447 1260 593 1260 c 0
 1128 1260 1297 965 1297 657 c 0
 1297 323 1056 0 553 0 c 2
 81 0 l 1
 92 58 l 1
 263 101 l 1
 263 587 l 1
 82 574 l 1
409 79 m 1
 605 79 l 2
 947 79 1132 305 1132 599 c 0
 1132 934 938 1182 557 1182 c 0
 516 1182 450 1181 409 1176 c 1
 409 672 l 1
 681 692 l 1
 671 616 l 1
 409 597 l 1
 409 79 l 1
EndSplineSet
Colour: ffffff
EndChar

StartChar: Euro
Encoding: 8364 8364 12
Width: 1117
VWidth: 0
Flags: MW
LayerCount: 2
Fore
SplineSet
-26 493 m 1
 -20 576 l 1
 805 576 l 1
 788 493 l 1
 -26 493 l 1
-17 672 m 1
 -12 754 l 1
 852 754 l 1
 835 672 l 1
 -17 672 l 1
141 610 m 0
 141 939 329 1270 717 1270 c 0
 850 1270 939 1244 1035 1171 c 1
 1003 836 l 1
 938 846 l 1
 901 1086 l 1
 858 1149 808 1190 687 1190 c 0
 438 1190 308 972 308 641 c 1
 308 287 461 63 715 63 c 0
 778 63 860 94 917 173 c 1
 954 417 l 1
 1020 426 l 1
 1051 107 l 1
 929 16 828 -25 664 -25 c 0
 352 -25 141 224 141 610 c 0
EndSplineSet
Colour: ffffff
EndChar

StartChar: F
Encoding: 70 70 13
Width: 1123
VWidth: 0
Flags: MW
LayerCount: 2
Fore
SplineSet
81 1185 m 1
 89 1244 l 1
 1039 1244 l 1
 1002 923 l 1
 934 933 l 1
 906 1173 l 1
 409 1173 l 1
 409 652 l 1
 720 652 l 1
 761 782 l 1
 832 792 l 1
 803 402 l 1
 734 391 l 1
 710 579 l 1
 409 579 l 1
 408 96 l 1
 649 68 l 1
 637 0 l 1
 86 0 l 1
 91 58 l 1
 260 96 l 1
 260 1151 l 1
 81 1185 l 1
EndSplineSet
Colour: ffffff
EndChar

StartChar: G
Encoding: 71 71 14
Width: 1357
VWidth: 0
Flags: MW
LayerCount: 2
Fore
SplineSet
108 591 m 0
 108 958 378 1262 735 1262 c 0
 890 1262 1040 1228 1138 1162 c 1
 1110 841 l 1
 1044 852 l 1
 1011 1066 l 1
 965 1119 851 1182 693 1182 c 0
 454 1182 272 985 272 640 c 0
 272 347 425 61 768 61 c 0
 854 61 932 84 984 119 c 1
 985 463 l 1
 746 495 l 1
 756 556 l 1
 1274 556 l 1
 1264 499 l 1
 1135 467 l 1
 1135 79 l 1
 1002 0 859 -26 659 -26 c 0
 320 -26 108 228 108 591 c 0
EndSplineSet
Colour: ffffff
EndChar

StartChar: Germandbls
Encoding: 7838 7838 16
Width: 1284
VWidth: 0
Flags: MW
LayerCount: 2
Fore
SplineSet
72 0 m 1
 79 57 l 1
 246 96 l 1
 246 758 l 2
 246 1112 427 1261 725 1261 c 0
 913 1261 1184 1198 1184 1048 c 0
 1184 983 1148 954 1082 932 c 1
 1054 1038 996 1153 871 1153 c 0
 786 1153 681 1074 681 946 c 0
 681 645 1245 647 1245 312 c 0
 1245 105 1076 -25 840 -25 c 0
 697 -25 570 33 510 118 c 1
 531 388 l 1
 603 377 l 1
 634 179 l 1
 674 107 775 57 878 57 c 0
 992 57 1099 112 1099 256 c 0
 1099 524 548 528 548 874 c 0
 548 1013 632 1151 773 1184 c 1
 775 1188 l 1
 755 1190 707 1191 687 1191 c 0
 490 1191 392 1035 392 780 c 2
 392 0 l 1
 72 0 l 1
EndSplineSet
Colour: ffffff
EndChar

StartChar: H
Encoding: 72 72 17
Width: 1446
VWidth: 0
Flags: MW
LayerCount: 2
Fore
SplineSet
83 1187 m 1
 90 1244 l 1
 591 1244 l 1
 583 1187 l 1
 414 1156 l 1
 414 672 l 1
 1087 672 l 1
 1087 1154 l 1
 904 1187 l 1
 913 1244 l 1
 1413 1244 l 1
 1404 1187 l 1
 1237 1156 l 1
 1237 90 l 1
 1419 63 l 1
 1411 0 l 1
 912 0 l 1
 922 58 l 1
 1087 96 l 1
 1087 592 l 1
 414 591 l 1
 414 90 l 1
 600 63 l 1
 588 0 l 1
 91 0 l 1
 97 58 l 1
 265 96 l 1
 265 1154 l 1
 83 1187 l 1
EndSplineSet
Colour: ffffff
EndChar

StartChar: Hbar
Encoding: 294 294 18
Width: 1450
VWidth: 0
Flags: MW
LayerCount: 2
Fore
SplineSet
123 908 m 1
 132 1002 l 1
 325 1002 l 1
 358 990 l 1
 1164 990 l 1
 1184 1002 l 1
 1377 1002 l 1
 1371 908 l 1
 1188 908 l 1
 1164 920 l 1
 353 920 l 1
 325 908 l 1
 123 908 l 1
EndSplineSet
Refer: 17 72 N 1 0 0 1 14 0 2
Colour: ffffff
EndChar

StartChar: I
Encoding: 73 73 19
Width: 674
VWidth: 0
Flags: MW
LayerCount: 2
Fore
SplineSet
86 1187 m 1
 94 1244 l 1
 595 1244 l 5
 586 1187 l 1
 414 1156 l 1
 414 90 l 1
 601 63 l 1
 591 0 l 1
 94 0 l 1
 101 58 l 1
 263 96 l 1
 263 1154 l 1
 86 1187 l 1
EndSplineSet
Colour: ffffff
EndChar

StartChar: J
Encoding: 74 74 20
Width: 614
VWidth: 0
Flags: MW
LayerCount: 2
Fore
SplineSet
19 -259 m 1
 180 -114 264 23 264 209 c 2
 264 1154 l 1
 82 1187 l 1
 90 1244 l 1
 593 1244 l 1
 584 1187 l 1
 414 1156 l 1
 412 372 l 2
 410 -28 326 -144 57 -325 c 1
 19 -259 l 1
EndSplineSet
Colour: ffffff
EndChar

StartChar: K
Encoding: 75 75 21
Width: 1225
VWidth: 0
Flags: MW
LayerCount: 2
Fore
SplineSet
83 1187 m 1
 93 1244 l 1
 593 1244 l 1
 586 1187 l 1
 415 1152 l 1
 415 95 l 1
 602 63 l 1
 592 0 l 1
 92 0 l 1
 100 58 l 1
 264 101 l 1
 264 1149 l 1
 83 1187 l 1
454 623 m 1
 489 660 555 730 604 790 c 2
 893 1151 l 1
 728 1187 l 1
 734 1244 l 1
 1184 1244 l 1
 1177 1187 l 1
 1012 1152 l 1
 601 649 l 1
 846 358 l 2
 993 184 1067 97 1191 68 c 2
 1237 58 l 1
 1226 2 l 1
 1180 -14 1148 -21 1107 -21 c 0
 957 -21 849 97 733 246 c 2
 456 604 l 1
 454 623 l 1
EndSplineSet
Colour: ffffff
EndChar

StartChar: L
Encoding: 76 76 22
Width: 1088
VWidth: 0
Flags: MW
LayerCount: 2
Fore
SplineSet
94 0 m 1
 102 58 l 1
 269 96 l 1
 269 1148 l 1
 89 1186 l 1
 98 1244 l 1
 600 1244 l 1
 593 1186 l 1
 418 1152 l 1
 418 75 l 1
 905 75 l 1
 1010 341 l 1
 1074 331 l 1
 1040 0 l 1
 94 0 l 1
EndSplineSet
Colour: ffffff
EndChar

StartChar: Lslash
Encoding: 321 321 23
Width: 1088
VWidth: 0
Flags: MW
LayerCount: 2
Fore
SplineSet
99 491 m 1
 109 590 l 1
 600 875 l 1
 589 780 l 1
 99 491 l 1
EndSplineSet
Refer: 22 76 N 1 0 0 1 0 0 2
Colour: ffffff
EndChar

StartChar: M
Encoding: 77 77 24
Width: 1681
VWidth: 0
Flags: MW
LayerCount: 2
Fore
SplineSet
51 0 m 1
 59 54 l 1
 227 92 l 1
 304 1151 l 1
 120 1188 l 1
 129 1244 l 1
 489 1244 l 1
 564 1053 l 1
 851 268 l 1
 1185 1092 l 1
 1252 1244 l 1
 1612 1244 l 1
 1605 1188 l 1
 1434 1154 l 1
 1488 86 l 1
 1669 60 l 1
 1663 0 l 1
 1164 0 l 1
 1172 54 l 1
 1341 92 l 1
 1284 1087 l 1
 861 55 l 1
 772 41 l 1
 396 1059 l 1
 325 86 l 1
 508 60 l 1
 498 0 l 1
 51 0 l 1
EndSplineSet
Colour: ffffff
EndChar

StartChar: N
Encoding: 78 78 25
Width: 1402
VWidth: 0
Flags: MW
LayerCount: 2
Fore
SplineSet
63 1188 m 1
 73 1244 l 1
 400 1244 l 1
 1067 225 l 1
 1067 1154 l 1
 882 1187 l 1
 891 1244 l 1
 1341 1244 l 1
 1330 1187 l 1
 1164 1156 l 1
 1164 -3 l 1
 1060 -24 l 1
 347 1047 l 1
 347 90 l 1
 531 63 l 1
 521 0 l 1
 73 0 l 1
 79 58 l 1
 246 96 l 1
 246 1147 l 1
 63 1188 l 1
EndSplineSet
Colour: ffffff
EndChar

StartChar: O
Encoding: 79 79 26
Width: 1331
VWidth: 0
Flags: MW
LayerCount: 2
Fore
SplineSet
111 620 m 0
 111 1005 349 1274 730 1274 c 0
 1082 1274 1279 984 1279 624 c 0
 1279 299 1071 -27 660 -27 c 0
 329 -27 111 263 111 620 c 0
278 678 m 0
 278 346 417 58 708 58 c 0
 1005 58 1113 331 1113 574 c 0
 1113 906 968 1197 681 1197 c 0
 384 1197 278 939 278 678 c 0
EndSplineSet
Colour: ffffff
EndChar

StartChar: OE
Encoding: 338 338 27
Width: 1679
VWidth: 0
Flags: MW
LayerCount: 2
Fore
SplineSet
64 620 m 0
 64 1007 278 1274 657 1274 c 0
 722 1274 786 1265 839 1245 c 1
 1553 1244 l 1
 1522 925 l 1
 1456 934 l 1
 1426 1173 l 1
 945 1173 l 1
 945 668 l 1
 1238 668 l 1
 1278 797 l 1
 1351 808 l 1
 1317 419 l 1
 1250 408 l 1
 1225 594 l 1
 945 594 l 1
 945 75 l 1
 1452 75 l 1
 1537 324 l 1
 1600 313 l 1
 1569 0 l 1
 792 0 l 1
 726 -16 656 -27 588 -27 c 0
 260 -27 64 258 64 620 c 0
229 678 m 0
 229 363 360 55 633 55 c 0
 693 55 746 67 795 93 c 1
 795 1139 l 1
 740 1178 679 1197 610 1197 c 0
 355 1197 229 976 229 678 c 0
EndSplineSet
Colour: ffffff
EndChar

StartChar: Oslash
Encoding: 216 216 28
Width: 1336
VWidth: 0
Flags: MW
LayerCount: 2
Fore
SplineSet
176 8 m 1
 315 194 l 1
 354 216 l 1
 1006 1076 l 1
 1015 1113 l 1
 1105 1233 l 1
 1226 1220 l 1
 1102 1070 l 1
 1054 1033 l 1
 389 155 l 1
 383 125 l 1
 292 -5 l 1
 176 8 l 1
283 678 m 0
 283 346 426 58 715 58 c 0
 1012 58 1119 331 1119 574 c 0
 1119 906 974 1197 687 1197 c 0
 390 1197 283 939 283 678 c 0
118 620 m 0
 118 1005 355 1274 736 1274 c 0
 1088 1274 1284 988 1284 624 c 0
 1284 299 1077 -27 666 -27 c 0
 335 -27 118 263 118 620 c 0
EndSplineSet
Colour: ffffff
EndChar

StartChar: P
Encoding: 80 80 29
Width: 1120
VWidth: 0
Flags: MW
LayerCount: 2
Fore
SplineSet
85 0 m 1
 93 58 l 1
 256 96 l 1
 256 1129 l 1
 90 1155 l 1
 98 1211 l 1
 227 1231 368 1256 539 1256 c 0
 801 1256 1032 1166 1032 893 c 0
 1032 652 805 488 558 488 c 0
 532 488 507 489 484 491 c 1
 469 553 l 1
 522 555 l 2
 763 564 866 687 866 865 c 0
 866 1036 758 1192 513 1192 c 0
 472 1192 407 1186 407 1186 c 1
 407 94 l 1
 642 65 l 1
 631 0 l 1
 85 0 l 1
EndSplineSet
Colour: ffffff
EndChar

StartChar: Q
Encoding: 81 81 30
Width: 1344
VWidth: 0
Flags: MW
LayerCount: 2
Fore
SplineSet
111 614 m 0
 111 999 358 1274 737 1274 c 0
 1087 1274 1286 985 1286 629 c 0
 1286 346 1119 61 816 -9 c 1
 902 -199 1012 -263 1252 -294 c 1
 1251 -309 1247 -343 1242 -355 c 1
 1194 -378 1134 -385 1078 -385 c 0
 899 -385 759 -233 733 -21 c 1
 716 -24 682 -27 661 -27 c 0
 340 -27 111 257 111 614 c 0
268 670 m 0
 268 368 429 60 760 47 c 1
 1011 103 1129 333 1129 568 c 0
 1129 906 959 1193 684 1193 c 0
 418 1193 268 981 268 670 c 0
EndSplineSet
Colour: ffffff
EndChar

StartChar: R
Encoding: 82 82 31
Width: 1195
VWidth: 0
Flags: MW
LayerCount: 2
Fore
SplineSet
105 0 m 1
 114 58 l 1
 276 96 l 1
 276 1127 l 1
 110 1153 l 1
 120 1209 l 1
 268 1233 412 1254 560 1254 c 0
 818 1254 1011 1166 1011 952 c 0
 1011 820 929 690 730 605 c 1
 730 604 l 1
 916 336 l 2
 1049 145 1098 94 1193 64 c 2
 1234 51 l 1
 1223 -2 l 1
 1180 -17 1154 -19 1117 -19 c 0
 980 -19 887 94 798 245 c 2
 617 554 l 1
 423 554 l 1
 423 96 l 1
 623 64 l 1
 613 0 l 1
 105 0 l 1
423 628 m 1
 636 628 l 1
 750 669 853 771 853 910 c 0
 853 1082 737 1189 544 1189 c 0
 482 1189 423 1184 423 1184 c 1
 423 628 l 1
EndSplineSet
Colour: ffffff
EndChar

StartChar: S
Encoding: 83 83 32
Width: 881
VWidth: 0
Flags: MW
LayerCount: 2
Fore
SplineSet
80 119 m 1
 102 395 l 1
 177 384 l 1
 210 181 l 1
 251 109 348 57 451 57 c 0
 566 57 690 126 690 274 c 0
 690 554 116 577 116 938 c 0
 116 1151 298 1270 477 1270 c 0
 585 1270 691 1235 764 1165 c 1
 764 1161 737 869 737 869 c 1
 664 878 l 1
 638 1096 l 1
 611 1147 528 1200 447 1200 c 0
 341 1200 252 1132 252 1001 c 0
 252 699 837 680 837 331 c 0
 837 122 651 -25 413 -25 c 0
 269 -25 144 40 80 119 c 1
EndSplineSet
Colour: ffffff
EndChar

StartChar: T
Encoding: 84 84 33
Width: 1134
VWidth: 0
Flags: MW
LayerCount: 2
Fore
SplineSet
55 1244 m 1
 1127 1244 l 1
 1093 909 l 1
 1020 920 l 1
 993 1173 l 1
 655 1173 l 1
 655 94 l 1
 836 63 l 1
 824 0 l 1
 327 0 l 1
 333 58 l 1
 505 96 l 1
 505 1173 l 1
 180 1173 l 1
 135 912 l 1
 64 923 l 1
 55 1244 l 1
EndSplineSet
Colour: ffffff
EndChar

StartChar: Tbar
Encoding: 358 358 34
Width: 1134
VWidth: 0
Flags: MW
LayerCount: 2
Fore
SplineSet
181 596 m 5
 190 689 l 5
 992 689 l 5
 986 596 l 5
 181 596 l 5
EndSplineSet
Refer: 33 84 N 1 0 0 1 7 0 2
Colour: ffffff
EndChar

StartChar: Thorn
Encoding: 222 222 35
Width: 889
VWidth: 0
Flags: MW
LayerCount: 2
Fore
SplineSet
81 1187 m 1
 89 1244 l 1
 590 1244 l 1
 582 1187 l 1
 409 1156 l 1
 409 1021 l 1
 450 1023 499 1024 540 1024 c 0
 805 1024 1033 933 1033 660 c 0
 1033 416 816 254 569 254 c 0
 542 254 514 256 485 259 c 1
 481 271 471 302 471 322 c 1
 480 322 516 323 524 323 c 1
 765 329 868 454 868 632 c 0
 868 803 756 953 516 953 c 0
 475 953 409 946 409 946 c 1
 409 94 l 1
 644 64 l 1
 633 -0 l 1
 87 -0 l 1
 94 57 l 1
 259 96 l 5
 259 1154 l 1
 81 1187 l 1
EndSplineSet
Colour: ffffff
EndChar

StartChar: U
Encoding: 85 85 36
Width: 1371
VWidth: 0
Flags: MW
LayerCount: 2
Fore
SplineSet
61 1187 m 1
 70 1244 l 1
 568 1244 l 1
 561 1187 l 1
 392 1156 l 1
 392 503 l 2
 392 188 540 73 752 73 c 0
 966 73 1095 202 1095 466 c 2
 1096 1154 l 1
 912 1187 l 1
 920 1244 l 1
 1371 1244 l 1
 1362 1187 l 1
 1196 1156 l 1
 1191 503 l 2
 1189 160 1053 -27 711 -27 c 0
 480 -27 244 61 244 465 c 2
 244 1154 l 1
 61 1187 l 1
EndSplineSet
Colour: ffffff
EndChar

StartChar: V
Encoding: 86 86 40
Width: 1258
VWidth: 0
Flags: MW
LayerCount: 2
Fore
SplineSet
38 1188 m 1
 45 1244 l 1
 527 1244 l 1
 520 1188 l 1
 351 1156 l 1
 681 206 l 1
 1029 1152 l 1
 844 1188 l 1
 850 1244 l 1
 1272 1244 l 1
 1267 1188 l 1
 1137 1156 l 1
 703 -4 l 1
 601 -25 l 1
 185 1152 l 1
 38 1188 l 1
EndSplineSet
Colour: ffffff
EndChar

StartChar: W
Encoding: 87 87 41
Width: 1873
VWidth: 0
Flags: MW
LayerCount: 2
Fore
SplineSet
43 1188 m 1
 51 1244 l 1
 505 1244 l 1
 496 1190 l 1
 330 1156 l 1
 594 225 l 1
 884 1199 l 1
 995 1214 l 1
 1261 233 l 1
 1553 1151 l 1
 1369 1189 l 1
 1377 1244 l 1
 1794 1244 l 1
 1786 1188 l 1
 1666 1154 l 1
 1286 -4 l 1
 1177 -25 l 1
 912 971 l 1
 622 -4 l 1
 505 -24 l 1
 174 1153 l 1
 43 1188 l 1
EndSplineSet
Colour: ffffff
EndChar

StartChar: X
Encoding: 88 88 42
Width: 1195
VWidth: 0
Flags: MW
LayerCount: 2
Fore
SplineSet
-2 0 m 1
 7 56 l 1
 133 92 l 1
 524 620 l 1
 160 1154 l 1
 23 1189 l 1
 31 1244 l 1
 497 1244 l 1
 490 1189 l 1
 334 1152 l 1
 623 727 l 1
 937 1155 l 1
 766 1187 l 1
 775 1244 l 1
 1177 1244 l 1
 1173 1188 l 1
 1047 1159 l 1
 679 654 l 1
 1057 84 l 1
 1193 58 l 1
 1183 0 l 1
 718 0 l 1
 727 51 l 1
 889 90 l 1
 580 550 l 1
 247 89 l 1
 413 62 l 1
 401 0 l 1
 -2 0 l 1
EndSplineSet
Colour: ffffff
EndChar

StartChar: Y
Encoding: 89 89 43
Width: 1113
VWidth: 0
Flags: MW
LayerCount: 2
Fore
SplineSet
-9 1188 m 1
 -0 1244 l 1
 463 1244 l 1
 455 1188 l 1
 292 1156 l 1
 588 605 l 1
 875 1152 l 1
 691 1188 l 1
 697 1244 l 1
 1114 1244 l 1
 1108 1188 l 1
 981 1156 l 1
 634 509 l 1
 634 91 l 1
 806 63 l 1
 797 0 l 1
 314 0 l 1
 322 58 l 1
 484 96 l 1
 484 497 l 1
 130 1152 l 1
 -9 1188 l 1
EndSplineSet
Colour: ffffff
EndChar

StartChar: Z
Encoding: 90 90 47
Width: 1051
VWidth: 0
Flags: MW
LayerCount: 2
Fore
SplineSet
45 71 m 1
 819 1170 l 1
 232 1170 l 1
 154 903 l 1
 90 918 l 1
 99 1244 l 1
 1002 1244 l 1
 1004 1188 l 1
 219 79 l 1
 837 79 l 1
 952 347 l 1
 1021 336 l 1
 973 0 l 1
 52 0 l 1
 45 71 l 1
EndSplineSet
Colour: ffffff
EndChar

StartChar: a
Encoding: 97 97 48
Width: 847
VWidth: 0
Flags: MW
LayerCount: 2
Fore
SplineSet
93 169 m 0
 93 324 225 451 554 481 c 1
 554 529 l 2
 554 701 517 816 371 816 c 0
 268 816 258 756 237 601 c 1
 189 601 127 613 127 685 c 0
 127 791 306 889 443 889 c 0
 610 889 681 792 681 581 c 2
 681 230 l 2
 681 138 691 88 781 73 c 2
 839 62 l 1
 830 2 l 1
 796 -6 761 -18 711 -18 c 0
 613 -18 571 50 571 116 c 2
 571 131 l 1
 563 131 l 1
 539 74 447 -25 295 -25 c 0
 189 -25 93 46 93 169 c 0
230 207 m 0
 230 141 275 71 356 71 c 0
 439 71 514 128 554 186 c 1
 554 430 l 1
 345 394 230 334 230 207 c 0
EndSplineSet
Colour: ffffff
EndChar

StartChar: acute
Encoding: 180 180 49
Width: 567
VWidth: 0
Flags: MW
LayerCount: 2
Fore
SplineSet
199 1376 m 1
 327 1706 l 1
 430 1667 l 1
 248 1346 l 1
 199 1376 l 1
EndSplineSet
Colour: ffffff
EndChar

StartChar: ae
Encoding: 230 230 50
Width: 1248
VWidth: 0
Flags: MW
LayerCount: 2
Fore
SplineSet
92 163 m 0
 92 318 207 425 554 476 c 1
 554 539 l 2
 554 711 518 813 375 813 c 0
 272 813 253 731 238 609 c 1
 190 609 130 621 130 693 c 0
 130 799 304 888 443 888 c 0
 548 888 623 844 651 748 c 1
 727 846 832 886 928 886 c 0
 1074 886 1179 789 1179 578 c 0
 1179 547 1170 483 1161 448 c 1
 678 428 l 1
 682 240 766 70 964 70 c 0
 1047 70 1110 95 1185 146 c 1
 1204 104 l 1
 1136 25 1028 -30 895 -30 c 0
 792 -30 631 44 592 172 c 1
 562 74 443 -26 293 -26 c 0
 187 -26 92 40 92 163 c 0
228 200 m 0
 228 119 274 62 355 62 c 0
 446 62 554 144 554 255 c 2
 554 416 l 1
 329 382 228 327 228 200 c 0
678 492 m 1
 1028 529 l 1
 1034 548 1038 595 1038 611 c 0
 1038 729 974 809 878 809 c 0
 773 809 683 693 678 492 c 1
EndSplineSet
Colour: ffffff
EndChar

StartChar: ampersand
Encoding: 38 38 52
Width: 1282
VWidth: 0
Flags: MW
LayerCount: 2
Fore
SplineSet
56 278 m 0
 56 450 183 577 353 687 c 1
 286 757 211 865 211 975 c 0
 211 1131 347 1272 507 1272 c 0
 674 1272 780 1184 780 1016 c 0
 780 894 680 795 538 700 c 1
 538 693 l 1
 781 417 l 1
 964 720 l 1
 807 757 l 1
 813 812 l 1
 1238 812 l 1
 1230 757 l 1
 1061 723 l 1
 842 356 l 1
 994 176 1111 88 1186 64 c 2
 1225 52 l 1
 1215 -2 l 1
 1175 -16 1149 -20 1109 -20 c 0
 1005 -20 913 60 857 122 c 2
 762 227 l 1
 673 97 565 -20 372 -20 c 0
 180 -20 56 105 56 278 c 0
206 337 m 0
 206 201 287 86 424 86 c 0
 547 86 641 181 703 286 c 1
 405 626 l 1
 395 627 l 1
 296 555 206 465 206 337 c 0
331 1025 m 0
 331 930 413 824 483 752 c 1
 576 819 645 884 645 994 c 0
 645 1106 586 1200 483 1200 c 0
 389 1200 331 1115 331 1025 c 0
EndSplineSet
Colour: ffffff
EndChar

StartChar: asciicircum
Encoding: 94 94 53
Width: 733
VWidth: 0
Flags: MW
LayerCount: 2
Fore
SplineSet
49 826 m 1
 338 1238 l 1
 394 1251 l 1
 688 824 l 1
 640 792 l 1
 363 1098 l 1
 353 1098 l 1
 91 797 l 1
 49 826 l 1
EndSplineSet
Colour: ffffff
EndChar

StartChar: asciitilde
Encoding: 126 126 54
Width: 947
VWidth: 0
Flags: MW
LayerCount: 2
Fore
SplineSet
83 417 m 1
 83 417 144 644 298 613 c 2
 697 542 l 2
 766 527 814 624 814 624 c 1
 869 623 l 1
 869 623 804 390 647 422 c 2
 248 493 l 2
 182 508 130 404 130 404 c 1
 83 417 l 1
EndSplineSet
Colour: ffffff
EndChar

StartChar: asterisk
Encoding: 42 42 55
Width: 593
VWidth: 0
Flags: MW
LayerCount: 2
Fore
SplineSet
351 1291 m 1
 474 1280 l 1
 449 981 l 1
 739 1106 l 5
 766 990 l 1
 475 923 l 1
 687 686 l 1
 582 623 l 1
 426 882 l 1
 265 604 l 1
 172 685 l 1
 370 912 l 1
 60 978 l 1
 108 1092 l 1
 384 974 l 1
 351 1291 l 1
EndSplineSet
Colour: ffffff
EndChar

StartChar: at
Encoding: 64 64 56
Width: 1362
VWidth: 0
Flags: MW
LayerCount: 2
Fore
SplineSet
88 329 m 0
 88 708 365 1045 789 1045 c 0
 1070 1045 1304 856 1304 582 c 0
 1304 311 1107 69 833 69 c 0
 770 69 759 123 762 187 c 1
 753 187 l 1
 713 127 629 60 553 60 c 0
 454 60 389 154 389 325 c 0
 389 610 601 790 770 790 c 0
 823 790 864 786 922 773 c 1
 940 752 l 1
 898 385 l 2
 878 213 864 152 910 152 c 0
 1062 152 1196 314 1196 545 c 0
 1196 811 988 972 752 972 c 0
 432 972 210 693 210 355 c 0
 210 52 402 -149 729 -149 c 0
 879 -149 1041 -71 1088 -31 c 1
 1117 -82 l 1
 1029 -140 910 -227 692 -227 c 0
 387 -227 88 -55 88 329 c 0
512 369 m 0
 512 218 545 160 596 160 c 0
 649 160 729 208 764 248 c 1
 818 703 l 1
 795 709 747 714 716 714 c 0
 596 714 512 550 512 369 c 0
EndSplineSet
Colour: ffffff
EndChar

StartChar: b
Encoding: 98 98 57
Width: 961
VWidth: 0
Flags: MW
LayerCount: 2
Fore
SplineSet
18 1191 m 1
 27 1245 l 1
 285 1265 l 1
 300 1249 l 1
 300 837 l 1
 286 733 l 1
 298 733 l 1
 377 822 474 886 587 886 c 0
 780 886 905 718 905 466 c 0
 905 149 680 -24 420 -24 c 0
 330 -24 247 0 171 49 c 1
 171 1149 l 1
 18 1191 l 1
300 126 m 1
 341 85 421 62 508 62 c 0
 633 62 763 182 763 406 c 0
 763 615 700 785 520 785 c 0
 455 785 379 752 300 668 c 1
 300 126 l 1
EndSplineSet
Colour: ffffff
EndChar

StartChar: backslash
Encoding: 92 92 58
Width: 611
VWidth: 0
Flags: MW
LayerCount: 2
Fore
SplineSet
32 1259 m 1
 140 1254 l 1
 602 -367 l 1
 498 -362 l 1
 32 1259 l 1
EndSplineSet
Colour: ffffff
EndChar

StartChar: bar
Encoding: 124 124 59
Width: 448
VWidth: 0
Flags: MW
LayerCount: 2
Fore
SplineSet
191 -367 m 1
 191 1261 l 1
 287 1248 l 1
 287 -380 l 1
 191 -367 l 1
EndSplineSet
Colour: ffffff
EndChar

StartChar: braceright
Encoding: 125 125 60
Width: 607
VWidth: 0
Flags: MW
LayerCount: 2
Fore
SplineSet
32 -378 m 1
 40 -303 l 1
 127 -297 l 1
 333 -286 92 369 406 438 c 1
 406 443 l 1
 92 520 336 1162 139 1175 c 1
 45 1182 l 1
 37 1256 l 1
 139 1256 l 2
 548 1256 213 527 510 484 c 1
 559 476 l 1
 559 402 l 1
 507 395 l 2
 214 355 550 -378 135 -378 c 2
 32 -378 l 1
EndSplineSet
Colour: ffffff
EndChar

StartChar: bracketright
Encoding: 93 93 61
Width: 476
VWidth: 0
Flags: MW
LayerCount: 2
Fore
SplineSet
24 -306 m 1
 261 -286 l 1
 261 1164 l 1
 26 1185 l 1
 34 1256 l 1
 391 1256 l 1
 392 -375 l 1
 32 -375 l 1
 24 -306 l 1
EndSplineSet
Colour: ffffff
EndChar

StartChar: breve
Encoding: 728 728 62
Width: 596
VWidth: 0
Flags: MW
LayerCount: 2
Fore
SplineSet
105 1553 m 1
 135 1581 l 1
 159 1534 213 1467 295 1467 c 0
 379 1467 426 1533 454 1583 c 5
 488 1558 l 1
 458 1470 404 1374 295 1374 c 0
 177 1374 127 1466 105 1553 c 1
EndSplineSet
Colour: ffffff
EndChar

StartChar: brokenbar
Encoding: 166 166 63
Width: 449
VWidth: 0
Flags: MW
LayerCount: 2
Fore
SplineSet
193 -370 m 1
 193 419 l 1
 288 411 l 1
 288 -380 l 1
 193 -370 l 1
193 537 m 1
 193 1257 l 1
 287 1248 l 1
 285 529 l 1
 193 537 l 1
EndSplineSet
Colour: ffffff
EndChar

StartChar: c
Encoding: 99 99 64
Width: 779
VWidth: 0
Flags: MW
LayerCount: 2
Fore
SplineSet
91 405 m 0
 91 702 274 888 491 888 c 0
 659 888 722 805 722 726 c 0
 722 673 693 638 627 627 c 1
 590 729 539 810 443 810 c 0
 324 810 231 692 231 480 c 0
 231 247 339 69 523 69 c 0
 622 69 694 109 742 148 c 1
 763 102 l 1
 712 33 586 -30 457 -30 c 0
 226 -30 91 165 91 405 c 0
EndSplineSet
Colour: ffffff
EndChar

StartChar: caron
Encoding: 711 711 65
Width: 620
VWidth: 0
Flags: MW
LayerCount: 2
Fore
SplineSet
108 1530 m 1
 176 1585 l 1
 333 1429 l 1
 343 1429 l 1
 475 1582 l 1
 516 1553 l 1
 343 1371 l 1
 287 1357 l 1
 108 1530 l 1
EndSplineSet
Colour: ffffff
EndChar

StartChar: cedilla
Encoding: 184 184 67
Width: 361
VWidth: 0
Flags: MW
LayerCount: 2
Fore
SplineSet
76 -339 m 1
 134 -319 179 -278 179 -248 c 0
 179 -198 135 -163 99 -128 c 1
 190 3 l 1
 257 3 l 1
 203 -76 l 1
 240 -109 292 -160 292 -227 c 0
 292 -306 209 -355 92 -390 c 1
 76 -339 l 1
EndSplineSet
Colour: ffffff
EndChar

StartChar: cent
Encoding: 162 162 68
Width: 803
VWidth: 0
Flags: MW
LayerCount: 2
Fore
SplineSet
87 412 m 0
 87 709 270 920 487 920 c 0
 655 920 717 838 717 759 c 0
 717 706 688 671 622 660 c 1
 585 762 535 843 439 843 c 0
 320 843 227 698 227 486 c 0
 227 253 334 69 518 69 c 0
 617 69 689 109 737 148 c 1
 758 102 l 1
 707 33 582 -30 453 -30 c 0
 222 -30 87 172 87 412 c 0
375 1135 m 1
 502 1152 l 1
 477 884 l 1
 407 884 l 1
 375 1135 l 1
386 -267 m 1
 412 0 l 1
 481 0 l 1
 514 -250 l 1
 386 -267 l 1
EndSplineSet
Colour: ffffff
EndChar

StartChar: circumflex
Encoding: 710 710 69
Width: 615
VWidth: 0
Flags: MW
LayerCount: 2
Fore
SplineSet
105 1388 m 1
 273 1568 l 1
 328 1582 l 1
 506 1396 l 1
 466 1359 l 1
 293 1481 l 1
 284 1481 l 1
 135 1358 l 1
 105 1388 l 1
EndSplineSet
Colour: ffffff
EndChar

StartChar: colon
Encoding: 58 58 70
Width: 410
VWidth: 0
Flags: MW
LayerCount: 2
Fore
SplineSet
120 426 m 0
 120 487 156 527 208 527 c 0
 259 527 296 488 296 426 c 0
 296 361 263 316 209 316 c 0
 155 316 120 362 120 426 c 0
122 425 m 0
 122 487 158 527 210 527 c 0
 261 527 298 486 298 424 c 0
 298 359 264 315 210 315 c 0
 156 315 122 361 122 425 c 0
EndSplineSet
Colour: ffffff
EndChar

StartChar: comma
Encoding: 44 44 71
Width: 397
VWidth: 0
Flags: MW
LayerCount: 2
Fore
SplineSet
54 -240 m 1
 191 -195 234 -123 234 -50 c 0
 234 21 186 74 122 74 c 0
 113 74 102 73 93 71 c 1
 88 86 85 96 85 112 c 0
 85 180 139 218 193 218 c 0
 266 218 352 154 352 9 c 0
 352 -85 308 -230 72 -298 c 1
 54 -240 l 1
EndSplineSet
Colour: ffffff
EndChar

StartChar: commaaccent
Encoding: 806 806 72
Width: 573
VWidth: 0
Flags: MW
LayerCount: 2
Fore
SplineSet
4 -345 m 1
 79 -327 114 -289 114 -244 c 0
 114 -195 60 -163 21 -160 c 1
 25 -124 58 -85 105 -85 c 0
 153 -85 207 -120 207 -204 c 0
 207 -262 166 -359 21 -390 c 1
 4 -345 l 1
EndSplineSet
Colour: ffffff
EndChar

StartChar: copyright
Encoding: 169 169 73
Width: 1378
VWidth: 0
Flags: MW
LayerCount: 2
Fore
SplineSet
72 633 m 0
 72 1023 349 1301 687 1301 c 0
 1074 1301 1318 1025 1318 636 c 0
 1318 262 1052 -21 677 -21 c 0
 311 -21 72 251 72 633 c 0
167 644 m 0
 167 308 382 62 686 62 c 0
 990 62 1224 302 1224 626 c 0
 1224 965 1015 1222 688 1222 c 0
 388 1222 167 967 167 644 c 0
EndSplineSet
Refer: 64 99 N 0.835 0 0 0.835 301 289 2
Colour: ffffff
EndChar

StartChar: currency
Encoding: 164 164 74
Width: 769
VWidth: 0
Flags: MW
LayerCount: 2
Fore
SplineSet
83 723 m 1
 151 789 l 1
 229 701 l 1
 272 737 341 770 390 770 c 0
 444 770 517 740 557 710 c 1
 634 790 l 1
 693 720 l 1
 609 646 l 1
 630 609 653 539 653 492 c 0
 653 441 629 371 602 334 c 1
 695 248 l 1
 626 184 l 1
 547 274 l 1
 501 246 430 218 383 218 c 0
 343 218 281 243 240 268 c 1
 163 179 l 1
 96 247 l 1
 180 325 l 1
 153 366 127 437 127 490 c 0
 127 536 150 602 174 638 c 1
 83 723 l 1
217 495 m 0
 217 379 285 301 387 301 c 0
 492 301 564 377 564 488 c 0
 564 607 493 685 386 685 c 0
 284 685 217 608 217 495 c 0
EndSplineSet
Colour: ffffff
EndChar

StartChar: d
Encoding: 100 100 75
Width: 997
VWidth: 0
Flags: MW
LayerCount: 2
Fore
SplineSet
92 393 m 0
 92 692 306 889 518 889 c 0
 584 889 669 866 702 841 c 1
 710 841 l 1
 696 972 l 1
 696 1151 l 1
 544 1194 l 1
 553 1247 l 1
 811 1269 l 1
 826 1252 l 1
 826 222 l 2
 826 91 874 81 925 70 c 2
 978 58 l 1
 969 -2 l 1
 929 -14 902 -22 848 -22 c 0
 752 -22 710 42 710 124 c 2
 710 131 l 1
 700 131 l 1
 644 54 550 -21 411 -21 c 0
 233 -21 92 122 92 393 c 0
230 452 m 0
 230 217 319 77 474 77 c 0
 558 77 657 135 700 193 c 1
 700 685 l 1
 644 766 550 810 469 810 c 0
 325 810 230 674 230 452 c 0
EndSplineSet
Colour: ffffff
EndChar

StartChar: dagger
Encoding: 8224 8224 76
Width: 847
VWidth: 0
Flags: MW
LayerCount: 2
Fore
SplineSet
77 723 m 1
 86 819 l 1
 383 811 l 1
 375 1256 l 1
 488 1244 l 1
 477 811 l 1
 783 819 l 1
 777 718 l 1
 477 728 l 1
 493 -363 l 1
 368 -351 l 1
 383 730 l 1
 77 723 l 1
EndSplineSet
Colour: ffffff
EndChar

StartChar: daggerdbl
Encoding: 8225 8225 77
Width: 864
VWidth: 0
Flags: MW
LayerCount: 2
Fore
SplineSet
85 723 m 1
 93 818 l 1
 388 811 l 1
 380 1256 l 1
 494 1244 l 1
 483 811 l 1
 788 818 l 1
 781 717 l 1
 483 728 l 1
 475 429 l 1
 480 165 l 1
 792 171 l 1
 786 75 l 1
 480 85 l 1
 488 -363 l 1
 375 -353 l 1
 385 85 l 1
 98 75 l 1
 105 178 l 1
 385 166 l 1
 392 499 l 1
 388 730 l 1
 85 723 l 1
EndSplineSet
Colour: ffffff
EndChar

StartChar: dcroat
Encoding: 273 273 78
Width: 997
VWidth: 0
Flags: MW
LayerCount: 2
Fore
SplineSet
92 393 m 0
 92 692 306 889 518 889 c 0
 584 889 669 866 702 841 c 1
 710 841 l 1
 696 972 l 1
 696 1151 l 1
 544 1194 l 1
 553 1247 l 1
 811 1269 l 1
 826 1252 l 1
 826 222 l 2
 826 91 874 81 925 70 c 2
 978 58 l 1
 969 -2 l 1
 929 -14 902 -22 848 -22 c 0
 752 -22 710 42 710 124 c 2
 710 131 l 1
 700 131 l 1
 644 54 550 -21 411 -21 c 0
 233 -21 92 122 92 393 c 0
230 452 m 0
 230 217 319 77 474 77 c 0
 558 77 657 135 700 193 c 1
 700 685 l 1
 644 766 550 810 469 810 c 0
 325 810 230 674 230 452 c 0
471 999 m 1
 481 1063 l 1
 950 1063 l 1
 940 999 l 1
 471 999 l 1
EndSplineSet
Colour: ffffff
EndChar

StartChar: degree
Encoding: 176 176 79
Width: 424
VWidth: 0
Flags: HMW
LayerCount: 2
Fore
SplineSet
32 1107 m 0
 32 1210 117 1304 225 1304 c 0
 341 1304 396 1237 396 1128 c 0
 396 1013 307 928 201 928 c 0
 99 928 32 990 32 1107 c 0
108 1129 m 0
 108 1047 148 981 218 981 c 0
 275 981 319 1027 319 1105 c 0
 319 1183 278 1251 210 1251 c 0
 144 1251 108 1199 108 1129 c 0
EndSplineSet
Colour: ffffff
EndChar

StartChar: dieresiscomb
Encoding: 776 776 81
Width: 54
VWidth: 0
Flags: MW
LayerCount: 2
Fore
SplineSet
124 1466 m 0
 124 1515 153 1543 193 1543 c 0
 234 1543 265 1515 265 1466 c 0
 265 1415 237 1384 194 1384 c 0
 152 1384 124 1416 124 1466 c 0
392 1466 m 0
 392 1515 421 1543 461 1543 c 0
 502 1543 534 1515 534 1466 c 0
 534 1415 504 1384 461 1384 c 0
 419 1384 392 1416 392 1466 c 0
EndSplineSet
Colour: ffffff
EndChar

StartChar: divide
Encoding: 247 247 82
Width: 958
VWidth: 0
Flags: MW
LayerCount: 2
Fore
SplineSet
68 465 m 1
 81 550 l 1
 893 550 l 1
 882 465 l 1
 68 465 l 1
383 226 m 0
 383 290 419 330 473 330 c 0
 527 330 567 289 567 225 c 0
 567 158 530 112 474 112 c 0
 418 112 383 160 383 226 c 0
383 790 m 0
 383 854 419 894 473 894 c 0
 527 894 567 854 567 790 c 0
 567 723 530 676 474 676 c 0
 418 676 383 724 383 790 c 0
EndSplineSet
Colour: ffffff
EndChar

StartChar: dollar
Encoding: 36 36 83
Width: 860
VWidth: 0
Flags: MW
LayerCount: 2
Fore
SplineSet
80 119 m 1
 102 395 l 1
 177 384 l 1
 210 181 l 1
 251 109 348 57 451 57 c 0
 566 57 690 126 690 274 c 0
 690 554 116 577 116 938 c 0
 116 1151 298 1270 477 1270 c 0
 585 1270 691 1235 764 1165 c 1
 764 1161 737 869 737 869 c 1
 664 878 l 1
 638 1096 l 1
 611 1147 528 1200 447 1200 c 0
 341 1200 252 1132 252 1001 c 0
 252 699 837 680 837 331 c 0
 837 122 651 -25 413 -25 c 0
 269 -25 144 40 80 119 c 1
382 -179 m 1
 394 9 l 1
 422 54 l 1
 422 631 l 1
 426 700 l 1
 426 1208 l 1
 400 1244 l 1
 387 1395 l 1
 524 1411 l 1
 509 1244 l 1
 482 1204 l 1
 482 666 l 1
 484 583 l 1
 484 54 l 1
 514 20 l 1
 527 -164 l 1
 382 -179 l 1
EndSplineSet
Colour: ffffff
EndChar

StartChar: dotaccentcomb
Encoding: 775 775 85
Width: 26
VWidth: 0
Flags: MW
LayerCount: 2
Fore
SplineSet
129 1452 m 0
 129 1513 162 1554 213 1554 c 0
 264 1554 299 1514 299 1452 c 0
 299 1388 267 1346 213 1346 c 0
 160 1346 129 1390 129 1452 c 0
EndSplineSet
Colour: ffffff
EndChar

StartChar: dotbelowcomb
Encoding: 803 803 86
Width: 226
VWidth: 0
Flags: MW
LayerCount: 2
Fore
SplineSet
21 -274 m 0
 21 -213 54 -173 105 -173 c 0
 156 -173 192 -212 192 -274 c 0
 192 -338 159 -380 105 -380 c 0
 52 -380 21 -336 21 -274 c 0
EndSplineSet
Colour: ffffff
EndChar

StartChar: dotlessi
Encoding: 305 305 87
Width: 555
VWidth: 0
Flags: MW
LayerCount: 2
Fore
SplineSet
80 0 m 1
 92 55 l 1
 243 87 l 1
 243 772 l 1
 91 814 l 1
 99 865 l 1
 358 887 l 1
 374 871 l 1
 374 87 l 1
 534 57 l 1
 523 0 l 1
 80 0 l 1
EndSplineSet
Colour: ffffff
EndChar

StartChar: e
Encoding: 101 101 88
Width: 812
VWidth: 0
Flags: MW
LayerCount: 2
Fore
SplineSet
94 420 m 0
 94 720 293 886 486 886 c 0
 632 886 736 793 736 582 c 0
 736 551 728 486 719 451 c 1
 235 445 l 1
 239 257 324 78 522 78 c 0
 606 78 668 97 743 148 c 1
 762 104 l 1
 694 25 586 -30 453 -30 c 0
 264 -30 94 117 94 420 c 0
237 507 m 1
 588 530 l 1
 594 547 595 589 595 610 c 0
 595 730 535 809 437 809 c 0
 332 809 242 709 237 507 c 1
EndSplineSet
Colour: ffffff
EndChar

StartChar: eight
Encoding: 56 56 91
Width: 938
VWidth: 0
Flags: MW
LayerCount: 2
Fore
SplineSet
127 281 m 0
 127 394 201 498 357 590 c 1
 357 597 l 1
 245 673 173 765 173 897 c 0
 173 1061 309 1202 502 1202 c 0
 692 1202 798 1078 798 927 c 0
 798 791 708 679 604 625 c 1
 601 619 l 1
 756 514 840 430 840 291 c 0
 840 107 682 -27 455 -27 c 0
 271 -27 127 99 127 281 c 0
267 312 m 0
 267 140 402 47 509 47 c 0
 631 47 710 116 710 233 c 0
 710 346 600 437 410 557 c 1
 333 500 267 437 267 312 c 0
293 955 m 0
 293 854 366 772 547 656 c 1
 618 703 674 771 674 890 c 0
 674 1031 582 1141 476 1141 c 0
 361 1141 293 1058 293 955 c 0
EndSplineSet
Substitution2: "'sups' Superscript lookup 0 subtable" eight.superior
Colour: ffffff
EndChar

StartChar: eight.osf
Encoding: 65536 -1 92
Width: 815
VWidth: 0
Flags: MW
LayerCount: 2
Fore
SplineSet
67 281 m 0
 67 394 144 503 289 597 c 1
 289 604 l 1
 188 670 113 775 113 901 c 0
 113 1065 240 1202 424 1202 c 0
 605 1202 702 1086 702 935 c 0
 702 799 632 704 526 628 c 1
 525 622 l 1
 680 524 756 421 756 295 c 0
 756 111 585 -27 376 -27 c 0
 192 -27 67 99 67 281 c 0
195 312 m 0
 195 162 316 49 422 49 c 0
 553 49 633 125 633 248 c 0
 633 359 540 440 337 568 c 1
 267 521 195 430 195 312 c 0
225 967 m 0
 225 858 292 769 471 655 c 1
 525 702 589 776 589 899 c 0
 589 1023 504 1141 398 1141 c 0
 301 1141 225 1070 225 967 c 0
EndSplineSet
Colour: ffffff
EndChar

StartChar: emdash
Encoding: 8212 8212 93
Width: 1301
VWidth: 0
Flags: MW
LayerCount: 2
Fore
SplineSet
86 420 m 1
 100 503 l 1
 1220 509 l 1
 1206 426 l 1
 86 420 l 1
EndSplineSet
Colour: ffffff
EndChar

StartChar: emptyset
Encoding: 8709 8709 94
Width: 1012
VWidth: 0
Flags: MW
LayerCount: 2
Fore
SplineSet
21 96 m 1
 146 190 l 1
 178 199 l 1
 807 763 l 1
 812 788 l 1
 912 898 l 1
 979 799 l 1
 864 711 l 1
 844 712 l 1
 209 142 l 1
 198 114 l 1
 88 -4 l 1
 21 96 l 1
48 444 m 0
 48 698 274 930 507 930 c 0
 787 930 961 714 961 443 c 0
 961 186 784 -37 507 -37 c 0
 252 -37 48 152 48 444 c 0
163 443 m 0
 163 182 338 52 508 52 c 0
 703 52 845 177 845 444 c 0
 845 704 684 836 506 836 c 0
 311 836 163 687 163 443 c 0
EndSplineSet
Colour: ffffff
EndChar

StartChar: endash
Encoding: 8211 8211 95
Width: 792
VWidth: 0
Flags: MW
LayerCount: 2
Fore
SplineSet
86 420 m 1
 99 503 l 1
 710 509 l 1
 697 426 l 1
 86 420 l 1
EndSplineSet
Colour: ffffff
EndChar

StartChar: eng
Encoding: 331 331 96
Width: 982
VWidth: 0
Flags: MW
LayerCount: 2
Fore
SplineSet
79 0 m 1
 87 52 l 1
 240 86 l 1
 240 755 l 1
 85 794 l 1
 92 846 l 1
 357 876 l 1
 369 862 l 1
 359 730 l 1
 367 730 l 1
 424 801 545 890 678 890 c 0
 815 890 909 798 909 600 c 2
 909 150 l 1
 907 -114 792 -267 650 -356 c 2
 606 -383 l 1
 565 -315 l 1
 673 -234 779 -106 779 165 c 2
 778 568 l 2
 778 722 700 781 608 781 c 0
 513 781 448 748 370 670 c 1
 370 86 l 1
 516 58 l 1
 506 0 l 1
 79 0 l 1
EndSplineSet
Colour: ffffff
EndChar

StartChar: equal
Encoding: 61 61 97
Width: 800
VWidth: 0
Flags: MW
LayerCount: 2
Fore
SplineSet
87 330 m 1
 98 415 l 1
 713 415 l 1
 702 330 l 1
 87 330 l 1
90 569 m 1
 101 655 l 1
 716 655 l 1
 705 569 l 1
 90 569 l 1
EndSplineSet
Colour: ffffff
EndChar

StartChar: eth
Encoding: 240 240 98
Width: 931
VWidth: 0
Flags: MW
LayerCount: 2
Fore
SplineSet
107 451 m 0
 107 746 256 949 469 949 c 0
 548 949 637 896 667 820 c 1
 674 821 l 1
 649 915 595 1007 541 1086 c 1
 309 1040 l 1
 320 1103 l 1
 507 1141 l 1
 452 1214 396 1271 361 1303 c 1
 453 1303 l 1
 498 1275 555 1227 611 1164 c 1
 767 1197 l 1
 758 1133 l 1
 655 1112 l 1
 766 965 858 751 858 465 c 0
 858 157 698 -27 483 -27 c 0
 223 -27 107 208 107 451 c 0
246 499 m 1
 248 207 361 50 506 50 c 0
 661 50 721 210 721 425 c 0
 721 700 582 873 456 875 c 1
 451 875 l 1
 303 873 246 702 246 499 c 1
EndSplineSet
Colour: ffffff
EndChar

StartChar: exclam
Encoding: 33 33 99
Width: 447
VWidth: 0
Flags: MW
LayerCount: 2
Fore
SplineSet
146 79 m 0
 146 140 186 184 236 184 c 0
 287 184 329 139 329 78 c 0
 329 14 294 -35 236 -35 c 0
 180 -35 146 17 146 79 c 0
162 1254 m 0
 162 1281 226 1293 262 1293 c 0
 289 1293 321 1285 321 1254 c 0
 321 1085 296 684 269 361 c 1
 202 376 l 1
 182 697 162 1142 162 1254 c 0
EndSplineSet
Colour: ffffff
EndChar

StartChar: exclamdown
Encoding: 161 161 100
Width: 434
VWidth: 0
Flags: MW
LayerCount: 2
Fore
SplineSet
135 -377 m 0
 135 -208 159 201 186 524 c 1
 189 529 l 1
 253 515 l 1
 253 512 l 1
 273 193 295 -266 295 -375 c 2
 295 -377 l 1
 286 -405 230 -417 194 -417 c 0
 167 -417 135 -408 135 -377 c 0
127 797 m 0
 127 861 161 910 219 910 c 0
 275 910 310 858 310 796 c 0
 310 735 269 692 219 692 c 0
 168 692 127 736 127 797 c 0
EndSplineSet
Colour: ffffff
EndChar

StartChar: f
Encoding: 102 102 101
Width: 651
VWidth: 0
Flags: MW
LayerCount: 2
Fore
SplineSet
70 0 m 1
 82 51 l 1
 234 87 l 1
 234 791 l 1
 85 791 l 1
 97 845 l 1
 235 867 l 1
 264 1170 440 1305 582 1305 c 0
 688 1305 760 1260 760 1192 c 0
 760 1148 724 1112 691 1099 c 1
 653 1153 589 1220 514 1220 c 0
 437 1220 371 1149 369 981 c 1
 368 861 l 1
 626 861 l 1
 613 791 l 1
 368 791 l 1
 368 91 l 1
 614 61 l 1
 607 0 l 1
 70 0 l 1
EndSplineSet
Colour: ffffff
EndChar

StartChar: f.alt2
Encoding: 65537 -1 102
Width: 627
VWidth: 0
Flags: MW
LayerCount: 2
Fore
SplineSet
70 0 m 1
 82 51 l 1
 234 87 l 1
 234 791 l 1
 85 791 l 1
 97 845 l 1
 235 867 l 1
 252 1179 406 1304 507 1304 c 0
 585 1304 640 1282 640 1220 c 0
 640 1181 615 1151 583 1136 c 1
 553 1179 508 1214 458 1214 c 0
 405 1214 371 1149 369 981 c 1
 368 861 l 1
 626 861 l 1
 613 791 l 1
 368 791 l 1
 368 91 l 1
 614 61 l 1
 607 0 l 1
 70 0 l 1
EndSplineSet
Colour: ffffff
EndChar

StartChar: five
Encoding: 53 53 103
Width: 959
VWidth: 0
Flags: MW
LayerCount: 2
Fore
SplineSet
75 88 m 1
 103 369 l 1
 170 355 l 1
 188 155 l 1
 242 89 315 58 396 58 c 0
 540 58 629 158 629 308 c 0
 629 510 447 621 165 639 c 1
 280 1171 l 1
 729 1198 l 1
 708 1049 l 1
 323 1032 l 1
 279 771 l 1
 634 748 776 577 776 368 c 0
 776 163 598 -16 353 -16 c 0
 248 -16 154 12 75 88 c 1
EndSplineSet
Substitution2: "'sups' Superscript lookup 0 subtable" five.superior
Colour: ffffff
EndChar

StartChar: five.osf
Encoding: 65538 -1 104
Width: 850
VWidth: 0
Flags: MW
LayerCount: 2
Fore
SplineSet
-54 -147 m 0
 -54 -87 -8 -33 46 -26 c 1
 79 -117 150 -221 269 -221 c 0
 398 -221 525 -132 525 72 c 0
 525 271 371 388 98 413 c 1
 193 923 l 1
 638 961 l 1
 617 821 l 1
 250 796 l 1
 208 537 l 1
 494 501 676 362 676 133 c 0
 676 -91 486 -297 223 -297 c 0
 64 -297 -54 -233 -54 -147 c 0
EndSplineSet
Colour: ffffff
EndChar

StartChar: four
Encoding: 52 52 105
Width: 972
VWidth: 0
Flags: MW
LayerCount: 2
Fore
SplineSet
38 415 m 1
 655 1191 l 1
 704 1176 l 1
 698 1057 695 865 695 683 c 2
 695 462 l 1
 950 462 l 1
 934 357 l 1
 695 357 l 1
 695 89 l 1
 901 64 l 1
 890 0 l 1
 298 0 l 1
 305 57 l 1
 552 95 l 1
 552 361 l 1
 57 361 l 1
 38 415 l 1
186 462 m 1
 548 462 l 1
 548 948 l 1
 186 462 l 1
EndSplineSet
Substitution2: "'sups' Superscript lookup 0 subtable" four.superior
Colour: ffffff
EndChar

StartChar: four.osf
Encoding: 65539 -1 106
Width: 944
VWidth: 0
Flags: MW
LayerCount: 2
Fore
SplineSet
49 159 m 1
 658 978 l 1
 707 963 l 1
 701 844 697 636 697 454 c 2
 697 205 l 1
 952 205 l 1
 936 105 l 1
 698 105 l 1
 698 -269 l 1
 558 -300 l 1
 558 108 l 1
 67 108 l 1
 49 159 l 1
195 205 m 1
 556 205 l 1
 556 714 l 1
 195 205 l 1
EndSplineSet
Colour: ffffff
EndChar

StartChar: fraction
Encoding: 8260 8260 107
Width: 1738
VWidth: 0
Flags: MW
LayerCount: 2
Fore
SplineSet
164 -26 m 1
 540 588 l 1
 895 1211 l 1
 1025 1207 l 1
 1025 1192 l 1
 657 591 l 1
 310 -40 l 1
 164 -26 l 1
EndSplineSet
Colour: ffffff
EndChar

StartChar: g
Encoding: 103 103 108
Width: 865
VWidth: 0
Flags: MW
LayerCount: 2
Fore
SplineSet
50 -165 m 0
 50 -62 159 -4 220 28 c 1
 220 35 l 1
 166 60 124 105 124 162 c 0
 124 212 204 283 276 322 c 1
 276 327 l 1
 225 346 125 442 125 578 c 0
 125 744 273 885 444 885 c 0
 520 885 584 858 635 822 c 1
 650 822 854 838 854 838 c 1
 870 820 l 1
 835 725 l 1
 823 723 l 1
 682 764 l 1
 679 753 l 1
 694 727 723 649 723 588 c 0
 723 416 555 291 408 291 c 0
 368 291 327 302 315 306 c 1
 285 277 249 245 249 210 c 0
 249 158 300 132 419 132 c 2
 573 132 l 2
 734 132 843 110 841 -58 c 0
 839 -231 628 -387 396 -387 c 0
 200 -387 50 -313 50 -165 c 0
186 -116 m 0
 186 -251 298 -299 462 -299 c 0
 591 -299 713 -240 713 -107 c 0
 713 -18 676 17 492 17 c 2
 280 17 l 1
 280 17 186 -15 186 -116 c 0
252 599 m 0
 252 471 336 359 435 359 c 0
 524 359 593 424 593 565 c 0
 593 696 526 825 420 825 c 0
 302 825 252 730 252 599 c 0
EndSplineSet
Colour: ffffff
EndChar

StartChar: germandbls
Encoding: 223 223 110
Width: 1130
VWidth: 0
Flags: MW
LayerCount: 2
Fore
SplineSet
70 0 m 1
 82 52 l 1
 233 88 l 1
 233 804 l 1
 86 804 l 1
 97 853 l 1
 235 877 l 1
 248 1106 377 1304 601 1304 c 0
 752 1304 870 1205 870 1054 c 1
 870 876 653 792 653 682 c 0
 653 491 1083 460 1083 214 c 0
 1083 66 940 -33 786 -33 c 0
 626 -33 507 49 507 158 c 0
 507 229 559 263 613 269 c 1
 641 115 711 41 817 41 c 0
 903 41 966 86 966 161 c 0
 966 317 550 364 550 620 c 0
 550 805 744 864 744 1012 c 1
 744 1129 651 1219 541 1219 c 0
 429 1219 368 1122 368 945 c 2
 368 0 l 1
 70 0 l 1
EndSplineSet
Colour: ffffff
EndChar

StartChar: grave
Encoding: 96 96 111
Width: 579
VWidth: 0
Flags: MW
LayerCount: 2
Fore
SplineSet
150 1661 m 1
 254 1698 l 1
 387 1363 l 1
 336 1332 l 1
 150 1661 l 1
EndSplineSet
Colour: ffffff
EndChar

StartChar: greater
Encoding: 62 62 112
Width: 697
VWidth: 0
Flags: MW
LayerCount: 2
Fore
SplineSet
67 -25 m 1
 558 437 l 5
 87 914 l 1
 122 974 l 1
 743 456 l 1
 744 427 l 1
 109 -82 l 1
 67 -25 l 1
EndSplineSet
Colour: ffffff
EndChar

StartChar: guilsinglleft
Encoding: 8249 8249 113
Width: 432
VWidth: 0
Flags: MW
LayerCount: 2
Fore
SplineSet
51 469 m 1
 319 821 l 1
 355 774 l 1
 179 461 l 1
 356 128 l 1
 314 77 l 1
 53 449 l 1
 51 469 l 1
EndSplineSet
Colour: ffffff
EndChar

StartChar: h
Encoding: 104 104 114
Width: 1046
VWidth: 0
Flags: MW
LayerCount: 2
Fore
SplineSet
55 0 m 1
 66 57 l 1
 220 87 l 1
 220 1154 l 1
 63 1196 l 1
 72 1250 l 1
 336 1271 l 1
 352 1254 l 1
 352 839 l 1
 339 733 l 1
 347 733 l 1
 426 819 536 891 651 891 c 0
 790 891 884 816 884 588 c 2
 884 86 l 1
 1026 58 l 1
 1017 0 l 1
 606 0 l 1
 615 54 l 1
 752 86 l 1
 755 561 l 1
 755 568 l 2
 755 729 672 783 581 783 c 0
 491 783 423 747 352 670 c 1
 352 87 l 1
 497 58 l 1
 487 0 l 1
 55 0 l 1
EndSplineSet
Colour: ffffff
EndChar

StartChar: hbar
Encoding: 295 295 115
Width: 1046
VWidth: 0
Flags: MW
LayerCount: 2
Fore
SplineSet
30 978 m 1
 39 1043 l 1
 667 1043 l 1
 659 978 l 1
 30 978 l 1
EndSplineSet
Refer: 114 104 N 1 0 0 1 -12 0 2
Colour: ffffff
EndChar

StartChar: hungarumlaut
Encoding: 733 733 116
Width: 744
VWidth: 0
Flags: MW
LayerCount: 2
Fore
SplineSet
113 1401 m 1
 370 1609 l 1
 437 1531 l 1
 137 1359 l 1
 113 1401 l 1
323 1401 m 1
 574 1601 l 1
 639 1527 l 1
 348 1359 l 1
 323 1401 l 1
EndSplineSet
Colour: ffffff
EndChar

StartChar: hyphen
Encoding: 45 45 117
Width: 573
VWidth: 0
Flags: MW
LayerCount: 2
Fore
SplineSet
81 409 m 1
 92 489 l 1
 500 507 l 1
 489 426 l 1
 81 409 l 1
EndSplineSet
Colour: ffffff
EndChar

StartChar: i
Encoding: 105 105 118
Width: 555
VWidth: 0
Flags: HMW
LayerCount: 2
Back
SplineSet
4.58008 -395.961 m 5
 139.961 -294.68 271.268 -138.941 271.268 201.034 c 6
 271.268 954.783 l 5
 81.9395 1006.19 l 5
 93.1367 1073.37 l 5
 416.826 1099.32 l 5
 437.693 1077.95 l 5
 437.693 189.328 l 6
 437.693 -145.559 290.608 -334.378 111.968 -446.854 c 6
 56.4932 -481.463 l 5
 4.58008 -395.961 l 5
228.008 1495.79 m 4
 228.008 1577.73 276.358 1631.17 345.574 1631.17 c 4
 413.265 1631.17 463.65 1576.72 463.65 1495.28 c 4
 463.65 1411.31 416.317 1352.78 345.065 1352.78 c 4
 273.813 1352.78 228.008 1413.34 228.008 1495.79 c 4
EndSplineSet
Fore
Refer: 84 729 N 1 0 0 1 298 995 2
Refer: 87 305 N 1 0 0 1 0 0 3
Colour: ffffff
EndChar

StartChar: infinity
Encoding: 8734 8734 120
Width: 1376
VWidth: 0
Flags: MW
LayerCount: 2
Fore
SplineSet
64 503 m 0
 64 703 200 862 379 862 c 0
 503 862 599 810 695 655 c 1
 701 657 l 1
 781 768 881 858 1021 858 c 0
 1177 858 1298 739 1298 550 c 0
 1298 360 1156 216 985 216 c 0
 854 216 759 306 688 415 c 1
 682 415 l 1
 591 267 476 212 366 212 c 0
 187 212 64 322 64 503 c 0
139 548 m 0
 139 429 249 337 397 337 c 0
 504 337 606 394 653 464 c 1
 520 665 442 743 334 743 c 0
 214 743 139 676 139 548 c 0
730 600 m 1
 848 415 941 331 1054 331 c 0
 1162 331 1235 422 1235 523 c 0
 1235 632 1112 738 984 738 c 0
 856 738 779 656 730 600 c 1
EndSplineSet
Colour: ffffff
EndChar

StartChar: integral
Encoding: 8747 8747 121
Width: 918
VWidth: 0
Flags: MW
LayerCount: 2
Fore
SplineSet
10 -270 m 1
 10 -225 45 -190 79 -177 c 1
 117 -232 182 -298 257 -298 c 0
 335 -298 394 -226 402 -58 c 1
 405 834 l 2
 406 1173 608 1305 750 1305 c 0
 856 1305 929 1260 929 1192 c 0
 929 1148 892 1112 859 1099 c 1
 821 1153 756 1220 681 1220 c 0
 602 1220 539 1144 536 981 c 1
 537 82 l 2
 537 -248 334 -384 189 -384 c 0
 82 -384 10 -338 10 -270 c 1
EndSplineSet
Colour: ffffff
EndChar

StartChar: j
Encoding: 106 106 122
Width: 460
VWidth: 0
Flags: MW
LayerCount: 2
Fore
SplineSet
4 -315 m 5
 112 -234 216 -111 216 160 c 6
 216 760 l 5
 65 801 l 5
 74 855 l 5
 332 875 l 5
 349 858 l 5
 349 151 l 6
 349 -116 231 -266 89 -356 c 6
 45 -383 l 5
 4 -315 l 5
182 1191 m 4
 182 1256 220 1299 275 1299 c 4
 329 1299 369 1256 369 1191 c 4
 369 1124 332 1077 275 1077 c 4
 218 1077 182 1125 182 1191 c 4
EndSplineSet
Colour: ffffff
EndChar

StartChar: k
Encoding: 107 107 123
Width: 977
VWidth: 0
Flags: MW
LayerCount: 2
Fore
SplineSet
59 0 m 1
 69 55 l 1
 223 87 l 1
 223 1151 l 1
 67 1192 l 1
 73 1244 l 1
 336 1266 l 1
 352 1249 l 1
 352 87 l 1
 512 57 l 1
 503 0 l 1
 59 0 l 1
382 429 m 1
 382 447 l 1
 668 781 l 1
 534 818 l 1
 542 873 l 1
 935 873 l 1
 925 819 l 1
 775 782 l 1
 510 473 l 1
 610 355 l 2
 772 162 816 80 942 64 c 2
 981 59 l 1
 972 0 l 1
 957 -5 906 -20 861 -20 c 0
 745 -20 685 43 516 258 c 1
 382 429 l 1
EndSplineSet
Colour: ffffff
EndChar

StartChar: l
Encoding: 108 108 124
Width: 540
VWidth: 0
Flags: MW
LayerCount: 2
Fore
SplineSet
59 0 m 1
 69 55 l 1
 223 87 l 1
 223 1156 l 1
 67 1197 l 1
 73 1249 l 1
 335 1270 l 1
 352 1254 l 1
 352 87 l 1
 513 57 l 1
 501 0 l 1
 59 0 l 1
EndSplineSet
Colour: ffffff
EndChar

StartChar: logicalnot
Encoding: 172 172 125
Width: 931
VWidth: 0
Flags: MW
LayerCount: 2
Fore
SplineSet
78 584 m 1
 90 664 l 1
 835 664 l 1
 836 351 l 1
 747 332 l 1
 747 584 l 1
 78 584 l 1
EndSplineSet
Colour: ffffff
EndChar

StartChar: lozenge
Encoding: 9674 9674 126
Width: 941
VWidth: 0
Flags: MW
LayerCount: 2
Fore
SplineSet
230 474 m 1
 472 759 l 1
 715 472 l 1
 474 180 l 1
 230 474 l 1
EndSplineSet
Colour: ffffff
EndChar

StartChar: lslash
Encoding: 322 322 127
Width: 548
VWidth: 0
Flags: MW
LayerCount: 2
Fore
SplineSet
50 0 m 1
 60 55 l 1
 213 87 l 1
 213 1156 l 1
 58 1197 l 1
 64 1249 l 1
 326 1270 l 1
 343 1254 l 1
 343 87 l 1
 503 57 l 1
 492 0 l 1
 50 0 l 1
52 443 m 1
 68 549 l 1
 484 873 l 1
 467 768 l 1
 52 443 l 1
EndSplineSet
Colour: ffffff
EndChar

StartChar: m
Encoding: 109 109 128
Width: 1592
VWidth: 0
Flags: MW
LayerCount: 2
Fore
SplineSet
81 0 m 1
 90 54 l 1
 242 86 l 1
 242 753 l 1
 85 793 l 1
 91 845 l 1
 360 875 l 1
 372 861 l 1
 361 728 l 1
 369 728 l 1
 433 807 550 889 676 889 c 0
 776 889 864 836 889 723 c 1
 900 723 l 1
 962 802 1075 885 1201 885 c 0
 1377 885 1437 770 1437 597 c 2
 1437 87 l 1
 1579 60 l 1
 1566 2 l 1
 1169 2 l 1
 1175 54 l 1
 1305 86 l 1
 1305 573 l 2
 1305 705 1242 780 1129 780 c 0
 1028 780 951 709 905 660 c 1
 905 86 l 1
 1044 58 l 1
 1036 0 l 1
 638 0 l 1
 646 54 l 1
 779 86 l 1
 779 573 l 2
 779 697 714 781 606 781 c 0
 515 781 427 733 373 666 c 1
 373 86 l 1
 516 58 l 1
 506 0 l 1
 81 0 l 1
EndSplineSet
Colour: ffffff
EndChar

StartChar: macron
Encoding: 175 175 129
Width: 667
VWidth: 0
Flags: MW
LayerCount: 2
Fore
SplineSet
108 1380 m 1
 119 1456 l 1
 560 1456 l 1
 550 1380 l 1
 108 1380 l 1
EndSplineSet
Colour: ffffff
EndChar

StartChar: minus
Encoding: 8722 8722 130
Width: 804
VWidth: 0
Flags: MW
LayerCount: 2
Fore
SplineSet
90 421 m 1
 107 505 l 1
 718 508 l 1
 701 424 l 1
 90 421 l 1
EndSplineSet
Colour: ffffff
EndChar

StartChar: mu
Encoding: 956 956 131
Width: 1017
VWidth: 0
Flags: MW
LayerCount: 2
Fore
SplineSet
58 803 m 1
 66 857 l 1
 315 878 l 1
 332 860 l 1
 332 316 l 2
 332 152 396 82 502 82 c 0
 592 82 660 138 709 186 c 1
 709 759 l 1
 551 795 l 1
 557 854 l 1
 823 878 l 1
 837 860 l 1
 837 222 l 2
 837 120 862 83 938 68 c 2
 990 57 l 1
 984 -2 l 1
 943 -14 907 -21 857 -21 c 0
 766 -21 721 42 721 119 c 2
 721 131 l 1
 709 131 l 1
 630 30 531 -24 431 -24 c 0
 366 -24 307 -1 277 49 c 1
 271 49 l 1
 274 31 275 -22 279 -86 c 1
 294 -388 l 1
 183 -362 l 1
 185 -335 203 180 203 494 c 2
 203 761 l 1
 58 803 l 1
EndSplineSet
Colour: ffffff
EndChar

StartChar: multiply
Encoding: 215 215 132
Width: 779
VWidth: 0
Flags: MW
LayerCount: 2
Fore
SplineSet
65 302 m 1
 235 462 l 1
 66 625 l 1
 137 681 l 1
 295 514 l 1
 464 686 l 1
 520 615 l 1
 352 458 l 1
 525 292 l 1
 455 236 l 1
 291 407 l 1
 122 232 l 1
 65 302 l 1
EndSplineSet
Colour: ffffff
EndChar

StartChar: n
Encoding: 110 110 133
Width: 1071
VWidth: 0
Flags: MW
LayerCount: 2
Fore
SplineSet
79 0 m 1
 87 52 l 1
 240 86 l 1
 240 755 l 1
 85 794 l 1
 92 846 l 1
 357 876 l 1
 369 862 l 1
 359 730 l 1
 367 730 l 1
 424 801 545 890 678 890 c 0
 815 890 909 798 909 600 c 2
 909 86 l 1
 1050 58 l 1
 1043 0 l 1
 630 0 l 1
 638 52 l 1
 778 86 l 1
 778 568 l 2
 778 721 700 781 608 781 c 0
 513 781 448 748 370 670 c 1
 370 86 l 1
 516 58 l 1
 506 0 l 1
 79 0 l 1
EndSplineSet
Colour: ffffff
EndChar

StartChar: nine
Encoding: 57 57 134
Width: 937
VWidth: 0
Flags: MW
LayerCount: 2
Fore
SplineSet
106 818 m 0
 106 1043 284 1209 488 1209 c 0
 747 1209 850 994 850 760 c 0
 850 392 611 42 236 -27 c 1
 217 31 l 1
 543 128 646 354 676 576 c 1
 666 576 l 1
 603 516 520 472 407 472 c 0
 214 472 106 619 106 818 c 0
264 853 m 0
 264 698 337 565 488 565 c 0
 577 565 651 608 679 651 c 1
 687 696 688 755 688 793 c 0
 688 997 593 1144 473 1144 c 0
 321 1144 264 1036 264 853 c 0
EndSplineSet
Substitution2: "'sups' Superscript lookup 0 subtable" nine.superior
Colour: ffffff
EndChar

StartChar: nine.osf
Encoding: 65540 -1 135
Width: 796
VWidth: 0
Flags: MW
LayerCount: 2
Fore
SplineSet
52 576 m 0
 52 788 209 959 408 959 c 0
 667 959 749 745 749 511 c 0
 749 175 491 -160 157 -271 c 1
 135 -213 l 1
 422 -83 533 123 583 322 c 1
 574 322 l 1
 519 265 446 223 335 223 c 0
 148 223 52 373 52 576 c 0
203 602 m 0
 203 423 271 315 409 315 c 0
 495 315 558 355 587 398 c 1
 594 439 595 503 595 541 c 0
 595 745 509 893 389 893 c 0
 270 893 203 799 203 602 c 0
EndSplineSet
Colour: ffffff
EndChar

StartChar: notequal
Encoding: 8800 8800 136
Width: 800
VWidth: 0
Flags: MW
LayerCount: 2
Fore
SplineSet
17 327 m 1
 29 412 l 1
 741 412 l 1
 730 327 l 1
 17 327 l 1
20 567 m 1
 32 652 l 1
 743 652 l 1
 732 567 l 1
 20 567 l 1
50 54 m 1
 263 370 l 1
 287 393 l 1
 445 613 l 1
 456 642 l 1
 612 869 l 1
 710 872 l 1
 554 642 l 1
 532 613 l 1
 363 383 l 1
 350 353 l 1
 148 58 l 1
 50 54 l 1
EndSplineSet
Colour: ffffff
EndChar

StartChar: numbersign
Encoding: 35 35 137
Width: 914
VWidth: 0
Flags: MW
LayerCount: 2
Back
SplineSet
261.599 313.002 m 1
 229.535 350.154 l 1
 414.791 909.487 l 1
 482.48 1069.3 l 1
 382.219 1069.3 l 1
 390.871 1112.56 l 1
 488.08 1112.56 l 1
 508.946 1233.18 l 1
 546.608 1239.79 l 1
 526.25 1112.56 l 1
 682.497 1112.56 l 1
 701.837 1233.18 l 1
 738.48 1238.27 l 1
 718.633 1112.56 l 1
 825.511 1112.56 l 1
 815.841 1069.3 l 1
 714.561 1069.3 l 1
 690.131 915.594 l 1
 789.376 915.594 l 1
 781.232 873.861 l 1
 683.006 873.861 l 1
 666.211 747.642 l 1
 625.495 743.062 l 1
 646.361 873.861 l 1
 491.642 873.861 l 1
 472.302 747.642 l 1
 431.078 743.062 l 1
 451.945 873.861 l 1
 261.599 313.002 l 1
285.52 713.543 m 1
 450.926 756.803 l 1
 981.757 910.505 l 1
 816.858 867.244 l 1
 285.52 713.543 l 1
EndSplineSet
Fore
SplineSet
275 -19 m 17
 182 -26 l 9
 359 1150 l 17
 452 1160 l 9
 275 -19 l 17
41 712 m 17
 69 813 l 9
 979 813 l 17
 954 712 l 9
 41 712 l 17
-30 326 m 17
 -3 427 l 9
 905 427 l 17
 879 326 l 9
 -30 326 l 17
593 -19 m 17
 499 -26 l 9
 676 1150 l 17
 769 1159 l 9
 593 -19 l 17
EndSplineSet
Colour: ffffff
EndChar

StartChar: o
Encoding: 111 111 138
Width: 944
VWidth: 0
Flags: MW
LayerCount: 2
Fore
SplineSet
94 411 m 0
 94 714 288 891 512 891 c 0
 744 891 888 694 888 439 c 0
 888 160 706 -27 487 -27 c 0
 249 -27 94 151 94 411 c 0
235 483 m 0
 235 262 330 54 522 54 c 0
 665 54 747 205 747 380 c 0
 747 581 656 806 469 806 c 0
 318 806 235 659 235 483 c 0
EndSplineSet
Colour: ffffff
EndChar

StartChar: oe
Encoding: 339 339 139
Width: 1416
VWidth: 0
Flags: MW
LayerCount: 2
Fore
SplineSet
70 417 m 0
 70 721 261 890 466 890 c 0
 594 890 727 823 778 701 c 1
 835 797 948 886 1090 886 c 0
 1236 886 1340 801 1340 590 c 0
 1340 559 1332 482 1323 447 c 1
 840 442 l 1
 840 250 931 73 1126 73 c 0
 1209 73 1271 97 1346 148 c 1
 1368 104 l 1
 1300 25 1190 -30 1057 -30 c 0
 919 -30 818 49 760 161 c 1
 681 30 571 -27 443 -27 c 0
 216 -27 70 156 70 417 c 0
213 489 m 0
 213 268 310 57 486 57 c 0
 612 57 698 212 698 386 c 0
 698 587 613 807 435 807 c 0
 284 807 213 665 213 489 c 0
841 505 m 1
 1192 527 l 1
 1197 545 1200 607 1200 623 c 0
 1200 742 1137 805 1041 805 c 0
 949 805 846 707 841 505 c 1
EndSplineSet
Colour: ffffff
EndChar

StartChar: ogonek
Encoding: 731 731 140
Width: 486
VWidth: 0
Flags: MW
LayerCount: 2
Fore
SplineSet
125 -209 m 0
 125 -156 145 -100 259 3 c 1
 318 3 l 1
 256 -85 248 -125 248 -157 c 0
 248 -229 291 -291 381 -344 c 1
 347 -387 l 1
 203 -372 125 -295 125 -209 c 0
EndSplineSet
Colour: ffffff
EndChar

StartChar: one
Encoding: 49 49 141
Width: 889
VWidth: 0
Flags: MW
LayerCount: 2
Fore
SplineSet
120 1 m 1
 124 61 l 1
 398 103 l 1
 398 1060 l 1
 139 1060 l 1
 144 1121 l 1
 530 1185 l 1
 557 1185 l 1
 557 98 l 1
 825 70 l 1
 816 1 l 1
 120 1 l 1
EndSplineSet
Substitution2: "'sups' Superscript lookup 0 subtable" one.superior
Colour: ffffff
EndChar

StartChar: one.osf
Encoding: 65541 -1 142
Width: 608
VWidth: 0
Flags: MW
LayerCount: 2
Fore
SplineSet
58 1 m 1
 64 61 l 1
 262 103 l 1
 262 820 l 1
 82 821 l 1
 89 882 l 1
 375 946 l 1
 402 946 l 1
 402 98 l 1
 598 69 l 1
 590 1 l 1
 58 1 l 1
EndSplineSet
Colour: ffffff
EndChar

StartChar: onehalf
Encoding: 189 189 143
Width: 1737
VWidth: 0
Flags: HMW
LayerCount: 2
Fore
SplineSet
748 78 m 1
 902 202 l 2
 1036 312 1107 392 1107 492 c 0
 1107 570 1076 646 984 646 c 0
 922 646 886 629 869 606 c 1
 845 467 l 1
 790 472 l 1
 785 636 l 1
 821 690 927 726 1030 726 c 0
 1168 726 1260 660 1260 526 c 0
 1260 374 1124 271 928 128 c 2
 893 104 l 1
 1186 104 l 1
 1248 254 l 1
 1294 242 l 1
 1274 1 l 1
 746 1 l 1
 748 78 l 1
-15 550 m 1
 -12 610 l 1
 146 633 l 1
 146 1163 l 1
 -4 1163 l 1
 -0 1224 l 1
 268 1260 l 1
 287 1260 l 1
 287 630 l 1
 442 620 l 1
 437 550 l 1
 -15 550 l 1
172 -26 m 1
 548 588 l 1
 902 1211 l 1
 1038 1207 l 1
 1036 1190 l 1
 670 591 l 1
 322 -40 l 1
 172 -26 l 1
EndSplineSet
Colour: ffffff
EndChar

StartChar: onequarter
Encoding: 188 188 144
Width: 1737
VWidth: 0
Flags: HMW
LayerCount: 2
Fore
SplineSet
642 250 m 1
 1038 730 l 1
 1088 721 l 1
 1082 650 1080 534 1080 425 c 2
 1080 274 l 1
 1228 274 l 1
 1219 188 l 1
 1080 188 l 1
 1080 74 l 1
 1199 55 l 1
 1193 -0 l 1
 799 -0 l 1
 804 50 l 1
 954 76 l 1
 954 192 l 1
 652 192 l 1
 642 250 l 1
748 274 m 1
 952 274 l 1
 952 532 l 1
 748 274 l 1
-15 550 m 1
 -12 610 l 1
 146 633 l 1
 146 1163 l 1
 -4 1163 l 1
 -0 1224 l 1
 268 1260 l 1
 287 1260 l 1
 287 630 l 1
 442 620 l 1
 437 550 l 1
 -15 550 l 1
182 -26 m 1
 558 588 l 1
 912 1211 l 1
 1048 1207 l 1
 1046 1190 l 1
 680 591 l 1
 332 -40 l 1
 182 -26 l 1
EndSplineSet
Colour: ffffff
EndChar

StartChar: one.superior
Encoding: 185 185 145
Width: 563
VWidth: 0
Flags: HMW
LayerCount: 2
Fore
SplineSet
69 548 m 1
 72 608 l 1
 230 631 l 1
 230 1161 l 1
 80 1161 l 1
 84 1222 l 1
 352 1258 l 1
 371 1258 l 1
 371 628 l 1
 526 618 l 1
 521 548 l 1
 69 548 l 1
EndSplineSet
Colour: ffffff
EndChar

StartChar: ordfeminine
Encoding: 170 170 146
Width: 847
VWidth: 0
Flags: HMW
LayerCount: 2
Fore
SplineSet
143 690 m 0
 143 814 244 942 514 950 c 1
 514 980 l 2
 514 1118 495 1202 382 1202 c 0
 303 1202 293 1140 281 1023 c 1
 224 1019 171 1050 171 1111 c 1
 171 1199 318 1268 432 1268 c 0
 570 1268 637 1191 637 1022 c 2
 637 756 l 2
 637 682 639 644 711 631 c 2
 759 622 l 1
 752 574 l 1
 724 552 695 543 653 543 c 0
 571 543 527 599 527 651 c 2
 527 662 l 1
 521 662 l 1
 501 616 434 537 309 537 c 0
 222 537 143 592 143 690 c 0
275 725 m 0
 275 672 299 625 366 625 c 0
 434 625 482 669 514 715 c 1
 514 900 l 1
 358 875 275 827 275 725 c 0
EndSplineSet
Colour: ffffff
EndChar

StartChar: ordmasculine
Encoding: 186 186 147
Width: 944
VWidth: 0
Flags: HMW
LayerCount: 2
Fore
SplineSet
126 886 m 0
 126 1128 291 1270 475 1270 c 0
 667 1270 790 1113 790 909 c 0
 790 685 636 536 455 536 c 0
 258 536 126 678 126 886 c 0
261 944 m 0
 261 761 325 604 484 604 c 0
 602 604 655 722 655 862 c 0
 655 1028 594 1198 440 1198 c 0
 315 1198 261 1084 261 944 c 0
EndSplineSet
Colour: ffffff
EndChar

StartChar: oslash
Encoding: 248 248 148
Width: 944
VWidth: 0
Flags: MW
LayerCount: 2
Fore
SplineSet
56 0 m 1
 199 162 l 1
 242 183 l 1
 686 724 l 1
 700 765 l 1
 783 873 l 1
 918 880 l 1
 776 709 l 1
 723 675 l 1
 280 141 l 1
 269 99 l 1
 193 6 l 1
 56 0 l 1
231 489 m 0
 231 268 325 54 517 54 c 0
 660 54 741 211 741 386 c 0
 741 588 651 819 464 819 c 0
 313 819 231 665 231 489 c 0
88 417 m 0
 88 723 283 903 507 903 c 0
 739 903 883 700 883 445 c 0
 883 166 701 -27 482 -27 c 0
 241 -27 88 156 88 417 c 0
EndSplineSet
Colour: ffffff
EndChar

StartChar: p
Encoding: 112 112 149
Width: 978
VWidth: 0
Flags: MW
LayerCount: 2
Fore
SplineSet
52 -373 m 1
 58 -315 l 1
 210 -285 l 1
 210 754 l 1
 56 792 l 1
 64 845 l 1
 329 873 l 1
 342 859 l 1
 333 722 l 1
 340 722 l 1
 391 793 489 886 620 886 c 0
 791 886 920 761 920 462 c 0
 920 177 735 -20 482 -20 c 0
 452 -20 413 -15 380 -9 c 1
 375 87 l 1
 421 69 457 64 536 64 c 0
 675 64 778 189 778 404 c 0
 778 638 709 781 554 781 c 0
 461 781 390 714 340 662 c 1
 340 -286 l 1
 496 -312 l 1
 486 -373 l 1
 52 -373 l 1
EndSplineSet
Colour: ffffff
EndChar

StartChar: paragraph
Encoding: 182 182 150
Width: 1291
VWidth: 0
Flags: MW
LayerCount: 2
Fore
SplineSet
144 836 m 0
 144 1074 358 1245 604 1245 c 2
 869 1245 l 1
 869 0 l 1
 504 0 l 1
 510 58 l 1
 739 97 l 1
 739 1169 l 1
 698 1171 658 1171 649 1171 c 0
 414 1171 313 1059 313 852 c 0
 313 681 426 537 642 537 c 1
 624 463 l 1
 363 463 144 544 144 836 c 0
936 0 m 1
 936 1245 l 1
 1238 1245 l 1
 1231 1188 l 1
 1058 1157 l 1
 1058 89 l 1
 1244 63 l 1
 1235 -1 l 1
 936 0 l 1
EndSplineSet
Colour: ffffff
EndChar

StartChar: parenright
Encoding: 41 41 151
Width: 474
VWidth: 0
Flags: MW
LayerCount: 2
Fore
SplineSet
54 1201 m 1
 91 1256 l 1
 157 1200 428 975 428 450 c 0
 428 -66 147 -328 96 -375 c 1
 48 -330 l 1
 93 -257 283 40 283 456 c 0
 283 881 140 1088 54 1201 c 1
EndSplineSet
Colour: ffffff
EndChar

StartChar: partialdiff
Encoding: 8706 8706 152
Width: 923
VWidth: 0
Flags: MW
LayerCount: 2
Fore
SplineSet
105 451 m 0
 105 746 254 949 467 949 c 0
 546 949 634 896 664 820 c 1
 672 821 l 1
 625 1015 450 1225 359 1303 c 1
 450 1303 l 1
 724 1135 856 824 856 465 c 0
 856 157 695 -27 480 -27 c 0
 220 -27 105 208 105 451 c 0
244 499 m 1
 246 207 359 50 504 50 c 0
 659 50 718 210 718 425 c 0
 718 700 580 873 454 875 c 1
 449 875 l 1
 301 873 244 702 244 499 c 1
EndSplineSet
Colour: ffffff
EndChar

StartChar: percent
Encoding: 37 37 153
Width: 1738
VWidth: 0
Flags: MW
LayerCount: 2
Fore
SplineSet
56 899 m 0
 56 1068 175 1213 298 1213 c 0
 316 1213 328 1211 334 1209 c 1
 334 1153 l 17
 319 1164 313 1168 294 1168 c 0
 212 1168 184 1013 184 899 c 0
 184 781 222 637 297 637 c 0
 381 637 414 779 414 899 c 0
 414 1042 392 1137 368 1196 c 9
 895 1211 l 25
 904 1142 l 25
 479 1150 l 17
 519 1103 542 949 542 899 c 0
 542 726 415 584 297 584 c 0
 170 584 56 707 56 899 c 0
164 -26 m 1
 540 588 l 1
 895 1211 l 1
 1025 1207 l 1
 1023 1191 l 1
 657 591 l 1
 310 -40 l 1
 164 -26 l 1
652 277 m 0
 652 446 771 591 894 591 c 0
 1036 591 1138 453 1138 274 c 0
 1138 105 1014 -36 896 -36 c 0
 769 -36 652 87 652 277 c 0
781 277 m 0
 781 159 821 16 896 16 c 0
 980 16 1012 158 1012 280 c 0
 1012 400 970 546 894 546 c 0
 809 546 781 391 781 277 c 0
EndSplineSet
Colour: ffffff
EndChar

StartChar: period
Encoding: 46 46 154
Width: 391
VWidth: 0
Flags: MW
LayerCount: 2
Fore
SplineSet
109 81 m 0
 109 145 145 186 199 186 c 0
 253 186 292 144 292 80 c 0
 292 13 256 -32 200 -32 c 0
 144 -32 109 15 109 81 c 0
EndSplineSet
Colour: ffffff
EndChar

StartChar: periodcentered
Encoding: 183 183 155
Width: 402
VWidth: 0
Flags: MW
LayerCount: 2
Fore
SplineSet
111 503 m 0
 111 567 149 608 203 608 c 0
 257 608 295 567 295 503 c 0
 295 436 259 391 203 391 c 0
 147 391 111 437 111 503 c 0
EndSplineSet
Colour: ffffff
EndChar

StartChar: perthousand
Encoding: 8240 8240 156
Width: 1797
VWidth: 0
Flags: MW
LayerCount: 2
Fore
SplineSet
56 899 m 0
 56 1068 175 1213 298 1213 c 0
 316 1213 328 1211 334 1209 c 1
 334 1153 l 17
 319 1164 313 1168 294 1168 c 0
 212 1168 184 1013 184 899 c 0
 184 781 222 637 297 637 c 0
 381 637 414 779 414 899 c 0
 414 1042 392 1137 368 1196 c 9
 895 1211 l 25
 904 1142 l 25
 479 1150 l 17
 519 1103 542 949 542 899 c 0
 542 726 415 584 297 584 c 0
 170 584 56 707 56 899 c 0
164 -26 m 1
 540 588 l 1
 895 1211 l 1
 1025 1207 l 1
 1025 1192 l 1
 657 591 l 1
 310 -40 l 1
 164 -26 l 1
652 277 m 0
 652 446 771 591 894 591 c 0
 1036 591 1138 453 1138 274 c 0
 1138 105 1014 -36 896 -36 c 0
 769 -36 652 87 652 277 c 0
781 277 m 0
 781 159 821 16 896 16 c 0
 980 16 1012 158 1012 280 c 0
 1012 400 970 546 894 546 c 0
 809 546 781 391 781 277 c 0
1223 276 m 0
 1223 445 1343 590 1466 590 c 0
 1608 590 1710 452 1710 273 c 0
 1710 104 1586 -37 1468 -37 c 0
 1341 -37 1223 86 1223 276 c 0
1353 276 m 0
 1353 158 1393 15 1468 15 c 0
 1552 15 1584 156 1584 278 c 0
 1584 398 1542 545 1466 545 c 0
 1381 545 1353 390 1353 276 c 0
EndSplineSet
Colour: ffffff
EndChar

StartChar: plus
Encoding: 43 43 157
Width: 680
VWidth: 0
Flags: MW
LayerCount: 2
Fore
SplineSet
87 417 m 1
 99 503 l 1
 308 503 l 1
 308 742 l 1
 396 730 l 1
 397 503 l 1
 617 503 l 1
 606 417 l 1
 397 417 l 1
 399 173 l 1
 308 186 l 1
 308 417 l 1
 87 417 l 1
EndSplineSet
Colour: ffffff
EndChar

StartChar: product
Encoding: 8719 8719 158
Width: 1446
VWidth: 0
Flags: MW
LayerCount: 2
Fore
SplineSet
83 1187 m 1
 90 1244 l 1
 1412 1244 l 1
 1403 1187 l 1
 1236 1156 l 1
 1236 90 l 1
 1419 63 l 1
 1410 0 l 1
 911 0 l 1
 922 58 l 1
 1087 96 l 1
 1087 1161 l 1
 414 1160 l 1
 414 90 l 1
 600 63 l 1
 588 0 l 1
 90 0 l 1
 97 58 l 1
 264 96 l 1
 264 1154 l 1
 83 1187 l 1
EndSplineSet
Colour: ffffff
EndChar

StartChar: q
Encoding: 113 113 159
Width: 963
VWidth: 0
Flags: MW
LayerCount: 2
Fore
SplineSet
88 407 m 0
 88 679 303 889 513 889 c 0
 593 889 664 861 694 845 c 1
 788 878 l 1
 811 878 l 1
 811 -280 l 1
 972 -306 l 1
 963 -367 l 1
 519 -367 l 1
 527 -308 l 1
 678 -280 l 1
 678 691 l 1
 643 745 570 809 464 809 c 0
 334 809 227 672 227 468 c 0
 227 203 322 78 465 78 c 0
 510 78 597 94 647 127 c 1
 651 71 l 1
 588 11 486 -21 405 -21 c 0
 229 -21 88 107 88 407 c 0
EndSplineSet
Colour: ffffff
EndChar

StartChar: question
Encoding: 63 63 160
Width: 619
VWidth: 0
Flags: MW
LayerCount: 2
Fore
SplineSet
40 1159 m 0
 40 1217 114 1287 238 1287 c 0
 405 1287 567 1110 567 893 c 0
 567 661 268 670 268 508 c 0
 268 468 283 420 303 371 c 1
 245 354 l 1
 209 395 164 484 164 565 c 0
 164 786 473 765 473 943 c 0
 473 1048 387 1147 291 1147 c 0
 215 1147 142 1119 99 1073 c 1
 69 1087 40 1119 40 1159 c 0
191 79 m 0
 191 140 232 184 282 184 c 0
 333 184 374 139 374 78 c 0
 374 14 340 -35 282 -35 c 0
 226 -35 191 17 191 79 c 0
EndSplineSet
Colour: ffffff
EndChar

StartChar: quotedbl
Encoding: 34 34 161
Width: 437
VWidth: 0
Flags: MW
LayerCount: 2
Fore
SplineSet
103 1303 m 1
 248 1291 l 1
 212 899 l 1
 139 891 l 1
 103 1303 l 1
289 1303 m 1
 436 1291 l 1
 400 899 l 1
 326 891 l 1
 289 1303 l 1
EndSplineSet
Colour: ffffff
EndChar

StartChar: quotereversed
Encoding: 8219 8219 162
Width: 393
VWidth: 0
Flags: MW
LayerCount: 2
Fore
SplineSet
51 1080 m 0
 51 1225 137 1287 210 1287 c 0
 280 1287 339 1223 309 1142 c 1
 230 1153 169 1095 169 1020 c 0
 169 947 212 874 349 829 c 1
 330 773 l 1
 94 841 51 986 51 1080 c 0
EndSplineSet
Colour: ffffff
EndChar

StartChar: quotesingle
Encoding: 39 39 163
Width: 333
VWidth: 0
Flags: MW
LayerCount: 2
Fore
SplineSet
111 1303 m 1
 257 1291 l 1
 221 899 l 1
 148 891 l 1
 111 1303 l 1
EndSplineSet
Colour: ffffff
EndChar

StartChar: r
Encoding: 114 114 164
Width: 738
VWidth: 0
Flags: MW
LayerCount: 2
Back
SplineSet
474.94 422.059 m 1
 450.775 442.772 430.696 472.47 408.603 472.47 c 1
 389.27 472.47 467.473 477.182 446.758 453.016 c 1
 426.044 428.85 412.58 852.905 406.366 810.095 c 1
 308.14 587.098 l 1
 455.174 583.688 l 1
 595.026 541.52 l 1
 254.7 535.92 l 1
 256.859 419.665 l 1
 357.234 444.522 l 1
 374.538 550.383 436.121 1010.48 516.025 1010.48 c 1
 550.634 1010.48 484.762 1020.16 484.762 984.531 c 1
 484.762 963.664 483.886 998.584 463.528 984.841 c 1
 445.205 1018.94 598.427 1058.54 571.961 1058.54 c 1
 490.529 1058.54 470.896 907.644 459.189 808.907 c 1
 448.831 433.355 l 1
 604.782 421.141 l 1
 620.665 475.688 637.487 494.732 664.416 524.076 c 1
 691.346 553.421 718.964 568.093 747.274 568.093 c 1
 770.058 568.093 788.355 561.016 802.166 546.862 c 1
 815.976 532.707 822.879 515.963 822.879 496.63 c 1
 822.879 469.012 507.393 444.154 474.94 422.059 c 1
EndSplineSet
Fore
SplineSet
76 -0 m 1
 84 52 l 1
 239 86 l 1
 239 757 l 1
 79 796 l 1
 88 848 l 1
 347 877 l 1
 363 860 l 1
 349 615 l 1
 363 615 l 1
 411 788 506 895 603 895 c 0
 673 895 714 850 714 799 c 0
 714 766 691 731 652 704 c 1
 618 739 584 756 545 756 c 0
 463 756 391 626 369 464 c 1
 369 88 l 1
 599 61 l 1
 591 -0 l 1
 76 -0 l 1
EndSplineSet
Colour: ffffff
EndChar

StartChar: radical
Encoding: 8730 8730 165
Width: 1000
VWidth: 0
Flags: MW
LayerCount: 2
Fore
SplineSet
15 458 m 1
 25 517 l 1
 278 533 l 1
 452 55 l 1
 918 1296 l 1
 1016 1303 l 1
 475 -116 l 1
 382 -133 l 1
 161 434 l 1
 15 458 l 1
EndSplineSet
Colour: ffffff
EndChar

StartChar: registered
Encoding: 174 174 166
Width: 1351
VWidth: 0
Flags: HMW
LayerCount: 2
Fore
SplineSet
398 774 m 1
 403 813 l 1
 478 834 l 1
 478 1266 l 1
 401 1279 l 1
 406 1317 l 1
 472 1328 567 1338 634 1338 c 0
 759 1338 853 1297 853 1198 c 0
 853 1132 802 1069 722 1034 c 1
 721 1033 l 1
 805 926 l 2
 863 851 882 838 922 821 c 2
 941 814 l 1
 935 773 l 1
 916 766 897 765 873 765 c 0
 801 765 759 805 708 899 c 2
 647 1010 l 1
 574 1010 l 1
 574 835 l 1
 659 817 l 1
 654 774 l 1
 398 774 l 1
574 1062 m 1
 665 1062 l 1
 711 1087 750 1124 750 1181 c 0
 750 1253 702 1285 619 1285 c 0
 598 1285 575 1284 574 1284 c 1
 574 1062 l 1
177 1022 m 0
 177 1338 388 1520 652 1520 c 0
 928 1520 1144 1344 1144 1026 c 0
 1144 722 916 542 642 542 c 0
 384 542 177 730 177 1022 c 0
249 1036 m 0
 249 776 416 604 650 604 c 0
 881 604 1072 768 1072 1016 c 0
 1072 1290 889 1457 652 1459 c 0
 430 1461 249 1318 249 1036 c 0
EndSplineSet
Colour: ffffff
EndChar

StartChar: ring
Encoding: 730 730 167
Width: 517
VWidth: 0
Flags: MW
LayerCount: 2
Fore
SplineSet
104 1528 m 0
 104 1620 177 1700 271 1700 c 0
 367 1700 428 1631 428 1537 c 0
 428 1447 361 1362 259 1362 c 0
 167 1362 104 1426 104 1528 c 0
171 1540 m 0
 171 1478 204 1407 270 1407 c 0
 326 1407 360 1449 360 1524 c 0
 360 1588 324 1656 260 1656 c 0
 198 1656 171 1598 171 1540 c 0
EndSplineSet
Colour: ffffff
EndChar

StartChar: s
Encoding: 115 115 168
Width: 692
VWidth: 0
Flags: MW
LayerCount: 2
Fore
SplineSet
71 154 m 0
 71 216 118 257 177 264 c 1
 211 106 274 40 380 40 c 0
 466 40 529 90 529 160 c 0
 529 337 108 376 108 637 c 0
 108 754 195 889 385 889 c 0
 516 889 615 814 615 713 c 0
 615 636 570 602 510 597 c 1
 502 636 l 2
 467 790 407 825 347 825 c 0
 264 825 214 774 214 700 c 0
 214 499 647 461 647 212 c 0
 647 64 502 -35 348 -35 c 0
 188 -35 71 45 71 154 c 0
EndSplineSet
Colour: ffffff
EndChar

StartChar: section
Encoding: 167 167 169
Width: 875
VWidth: 0
Flags: MW
LayerCount: 2
Fore
SplineSet
75 -238 m 1
 96 39 l 1
 172 29 l 1
 204 -176 l 1
 245 -248 343 -299 446 -299 c 0
 561 -299 686 -229 686 -81 c 0
 686 193 100 223 118 576 c 1
 464 369 l 2
 631 271 831 181 831 -25 c 0
 831 -234 647 -381 409 -381 c 0
 265 -381 139 -317 75 -238 c 1
113 938 m 0
 113 1151 294 1270 473 1270 c 0
 581 1270 687 1235 760 1165 c 1
 760 1161 733 869 733 869 c 1
 660 878 l 1
 634 1096 l 1
 607 1147 525 1200 444 1200 c 0
 338 1200 248 1132 248 1001 c 0
 248 698 850 683 830 318 c 1
 453 546 l 2
 295 642 113 735 113 938 c 0
EndSplineSet
Colour: ffffff
EndChar

StartChar: seven
Encoding: 55 55 170
Width: 919
VWidth: 0
Flags: MW
LayerCount: 2
Fore
SplineSet
83 829 m 1
 111 1182 l 1
 874 1182 l 1
 874 1130 l 1
 441 -33 l 1
 282 -16 l 1
 756 1047 l 1
 205 1047 l 1
 137 820 l 1
 83 829 l 1
EndSplineSet
Substitution2: "'sups' Superscript lookup 0 subtable" seven.superior
Colour: ffffff
EndChar

StartChar: seven.osf
Encoding: 65542 -1 171
Width: 723
VWidth: 0
Flags: MW
LayerCount: 2
Fore
SplineSet
28 607 m 1
 60 933 l 1
 704 933 l 1
 710 859 l 1
 489 461 320 157 286 -299 c 1
 277 -299 263 -304 255 -304 c 0
 170 -304 136 -255 136 -185 c 0
 136 31 451 566 594 806 c 1
 143 806 l 1
 80 597 l 1
 28 607 l 1
EndSplineSet
Colour: ffffff
EndChar

StartChar: six
Encoding: 54 54 172
Width: 940
VWidth: 0
Flags: MW
LayerCount: 2
Fore
SplineSet
120 422 m 0
 120 758 373 1104 694 1214 c 1
 723 1164 l 1
 442 1039 333 808 293 609 c 1
 302 609 l 1
 354 657 435 709 557 709 c 0
 752 709 875 563 875 362 c 0
 875 140 701 -21 484 -21 c 0
 221 -21 120 188 120 422 c 0
283 407 m 0
 283 199 376 44 499 44 c 0
 657 44 712 156 712 327 c 0
 712 482 635 619 484 619 c 0
 393 619 315 576 290 540 c 1
 285 506 283 442 283 407 c 0
EndSplineSet
Substitution2: "'sups' Superscript lookup 0 subtable" six.superior
Colour: ffffff
EndChar

StartChar: six.osf
Encoding: 65543 -1 173
Width: 807
VWidth: 0
Flags: MW
LayerCount: 2
Fore
SplineSet
81 422 m 0
 81 739 323 1109 651 1218 c 1
 679 1167 l 1
 411 1052 293 813 253 614 c 1
 261 614 l 1
 320 671 407 711 494 711 c 0
 674 711 775 557 775 372 c 0
 775 164 612 -21 418 -21 c 0
 163 -21 81 188 81 422 c 0
239 407 m 0
 239 199 319 48 439 48 c 0
 562 48 623 176 623 327 c 0
 623 482 568 619 417 619 c 0
 343 619 279 579 249 544 c 1
 244 510 239 442 239 407 c 0
EndSplineSet
Colour: ffffff
EndChar

StartChar: slash
Encoding: 47 47 174
Width: 610
VWidth: 0
Flags: MW
LayerCount: 2
Fore
SplineSet
35 -361 m 1
 498 1238 l 1
 605 1244 l 1
 139 -355 l 1
 35 -361 l 1
EndSplineSet
Colour: ffffff
EndChar

StartChar: softhyphen
Encoding: 173 173 175
Width: 573
VWidth: 0
Flags: MW
LayerCount: 2
Fore
SplineSet
82 420 m 1
 90 509 l 1
 498 570 l 1
 490 480 l 1
 82 420 l 1
EndSplineSet
Colour: ffffff
EndChar

StartChar: sterling
Encoding: 163 163 177
Width: 1092
VWidth: 0
Flags: MW
LayerCount: 2
Fore
SplineSet
82 0 m 1
 89 58 l 1
 257 96 l 1
 286 199 294 313 297 461 c 1
 298 561 l 1
 120 552 l 1
 131 631 l 1
 301 641 l 1
 304 786 l 1
 312 1107 445 1251 672 1251 c 0
 753 1251 825 1244 904 1211 c 1
 873 892 l 1
 806 902 l 1
 775 1141 l 1
 754 1152 693 1171 657 1171 c 0
 497 1171 458 1089 455 702 c 1
 455 648 l 1
 674 661 l 1
 664 581 l 1
 453 568 l 1
 453 516 l 1
 451 333 432 174 391 78 c 1
 890 77 l 1
 1001 336 l 1
 1064 322 l 1
 1030 0 l 1
 82 0 l 1
EndSplineSet
Colour: ffffff
EndChar

StartChar: summation
Encoding: 8721 8721 178
Width: 1104
VWidth: 0
Flags: MW
LayerCount: 2
Fore
SplineSet
40 1194 m 1
 51 1244 l 1
 1038 1244 l 1
 1007 925 l 1
 941 934 l 1
 911 1173 l 1
 221 1173 l 1
 687 676 l 1
 683 637 l 1
 208 108 l 1
 929 108 l 1
 1015 357 l 1
 1077 347 l 1
 1047 0 l 1
 47 0 l 1
 47 58 l 1
 555 619 l 1
 555 629 l 1
 40 1194 l 1
EndSplineSet
Colour: ffffff
EndChar

StartChar: t
Encoding: 116 116 179
Width: 640
VWidth: 0
Flags: MW
LayerCount: 2
Fore
SplineSet
66 771 m 1
 66 811 l 1
 166 856 230 944 280 1068 c 1
 327 1068 l 1
 327 840 l 1
 610 840 l 1
 602 768 l 1
 326 768 l 1
 323 310 l 2
 323 142 367 98 461 98 c 0
 535 98 616 163 616 163 c 1
 635 119 l 1
 575 33 481 -24 380 -24 c 0
 257 -24 187 53 189 251 c 2
 193 771 l 1
 66 771 l 1
EndSplineSet
Colour: ffffff
EndChar

StartChar: tbar
Encoding: 359 359 180
Width: 654
VWidth: 0
Flags: MW
LayerCount: 2
Fore
SplineSet
72 486 m 1
 81 580 l 1
 608 580 l 1
 601 486 l 1
 72 486 l 1
EndSplineSet
Refer: 179 116 N 1 0 0 1 6 0 2
Colour: ffffff
EndChar

StartChar: thorn
Encoding: 254 254 182
Width: 961
VWidth: 0
Flags: MW
LayerCount: 2
Fore
SplineSet
39 -370 m 1
 45 -311 l 1
 197 -282 l 1
 194 1154 l 5
 44 1196 l 1
 52 1250 l 1
 313 1270 l 1
 329 1254 l 1
 329 849 l 1
 317 740 l 1
 326 740 l 1
 381 808 472 898 603 898 c 0
 774 898 905 750 905 468 c 0
 905 186 726 -17 483 -17 c 0
 452 -17 410 -13 377 -4 c 1
 373 82 l 1
 411 70 448 66 501 66 c 0
 675 66 760 216 760 411 c 0
 760 645 691 792 537 792 c 0
 444 792 376 730 326 678 c 1
 326 -283 l 1
 482 -309 l 1
 472 -370 l 1
 39 -370 l 1
EndSplineSet
Colour: ffffff
EndChar

StartChar: three
Encoding: 51 51 183
Width: 959
VWidth: 0
Flags: MW
LayerCount: 2
Fore
SplineSet
88 90 m 1
 133 353 l 1
 200 342 l 1
 210 138 l 1
 238 88 317 36 405 36 c 0
 557 36 661 135 661 292 c 0
 661 445 517 551 325 555 c 1
 319 605 l 1
 409 645 614 742 614 929 c 0
 614 1028 556 1137 432 1137 c 0
 353 1137 299 1098 263 1057 c 1
 220 833 l 1
 156 844 l 1
 149 1092 l 1
 198 1139 321 1211 483 1211 c 0
 650 1211 781 1115 781 959 c 0
 781 797 633 688 512 643 c 1
 512 633 l 1
 690 608 827 505 827 345 c 0
 827 127 617 -33 386 -33 c 0
 246 -33 125 26 88 90 c 1
EndSplineSet
Substitution2: "'sups' Superscript lookup 0 subtable" three.superior
Colour: ffffff
EndChar

StartChar: three.osf
Encoding: 65544 -1 184
Width: 717
VWidth: 0
Flags: MW
LayerCount: 2
Fore
SplineSet
-17 -135 m 0
 -17 -86 30 -30 96 -24 c 1
 114 -120 170 -220 283 -220 c 0
 449 -220 517 -99 517 24 c 0
 517 189 389 298 199 305 c 1
 194 355 l 1
 313 401 472 501 472 676 c 0
 472 776 432 875 318 875 c 0
 212 875 151 787 115 686 c 1
 48 708 l 1
 77 826 196 979 374 979 c 0
 521 979 625 869 625 722 c 0
 625 564 480 436 380 394 c 1
 380 386 l 1
 526 373 666 240 666 75 c 0
 666 -115 480 -295 257 -295 c 0
 106 -295 -17 -224 -17 -135 c 0
EndSplineSet
Colour: ffffff
EndChar

StartChar: threequarters
Encoding: 190 190 185
Width: 1737
VWidth: 0
Flags: HMW
LayerCount: 2
Fore
SplineSet
-8 595 m 1
 26 766 l 1
 85 759 l 1
 91 632 l 1
 110 604 157 576 210 576 c 0
 302 576 364 636 364 726 c 0
 364 814 256 874 140 876 c 1
 132 915 l 1
 178 933 322 984 322 1092 c 0
 322 1149 286 1214 216 1214 c 0
 172 1214 142 1210 122 1188 c 1
 94 1046 l 1
 32 1052 l 1
 28 1208 l 1
 60 1247 155 1286 263 1286 c 0
 377 1286 470 1224 470 1126 c 0
 470 1024 383 965 292 937 c 1
 292 930 l 1
 430 914 510 841 510 742 c 0
 510 607 361 508 198 508 c 0
 100 508 18 543 -8 595 c 1
189 -26 m 1
 566 588 l 1
 919 1211 l 1
 1056 1207 l 1
 1053 1190 l 1
 687 591 l 1
 340 -40 l 1
 189 -26 l 1
642 250 m 1
 1038 730 l 1
 1088 721 l 1
 1082 650 1080 534 1080 425 c 2
 1080 274 l 1
 1228 274 l 1
 1219 188 l 1
 1080 188 l 1
 1080 74 l 1
 1199 55 l 1
 1193 -0 l 1
 799 -0 l 1
 804 50 l 1
 954 76 l 1
 954 192 l 1
 652 192 l 1
 642 250 l 1
748 274 m 1
 952 274 l 1
 952 532 l 1
 748 274 l 1
EndSplineSet
Colour: ffffff
EndChar

StartChar: three.superior
Encoding: 179 179 186
Width: 650
VWidth: 0
Flags: HMW
LayerCount: 2
Fore
SplineSet
56 598 m 1
 89 768 l 1
 148 762 l 1
 154 634 l 1
 173 606 221 579 274 579 c 0
 366 579 427 638 427 728 c 0
 427 816 320 876 204 878 c 1
 196 918 l 1
 242 936 386 986 386 1094 c 0
 386 1151 349 1217 279 1217 c 0
 235 1217 206 1212 186 1190 c 1
 158 1049 l 1
 95 1055 l 1
 91 1210 l 1
 123 1249 218 1288 326 1288 c 0
 440 1288 533 1227 533 1129 c 0
 533 1027 446 968 355 940 c 1
 355 933 l 1
 493 917 574 844 574 745 c 0
 574 610 425 511 262 511 c 0
 164 511 82 546 56 598 c 1
EndSplineSet
Colour: ffffff
EndChar

StartChar: tilde
Encoding: 732 732 187
Width: 798
VWidth: 0
Flags: MW
LayerCount: 2
Fore
SplineSet
108 1381 m 1
 108 1381 145 1544 255 1520 c 2
 458 1478 l 2
 507 1465 534 1532 534 1532 c 1
 576 1530 l 1
 576 1530 533 1366 421 1391 c 2
 220 1433 l 2
 174 1445 141 1371 141 1371 c 1
 108 1381 l 1
EndSplineSet
Colour: ffffff
EndChar

StartChar: trademark
Encoding: 8482 8482 188
Width: 1138
VWidth: 0
Flags: HMW
LayerCount: 2
Fore
SplineSet
580 684 m 1
 584 723 l 1
 659 741 l 1
 694 1187 l 1
 611 1204 l 1
 615 1244 l 1
 817 1244 l 1
 850 1158 l 1
 961 824 l 1
 1095 1175 l 1
 1125 1244 l 1
 1322 1244 l 1
 1318 1204 l 1
 1242 1188 l 1
 1266 738 l 1
 1347 726 l 1
 1345 684 l 1
 1100 684 l 1
 1104 723 l 1
 1180 741 l 1
 1154 1168 l 1
 985 710 l 1
 915 704 l 1
 751 1156 l 1
 719 738 l 1
 801 726 l 1
 796 684 l 1
 580 684 l 1
45 1244 m 1
 577 1244 l 1
 562 1083 l 1
 509 1088 l 1
 497 1197 l 1
 352 1197 l 1
 352 741 l 1
 434 728 l 1
 428 684 l 1
 180 684 l 1
 183 725 l 1
 260 743 l 1
 260 1197 l 1
 121 1197 l 1
 101 1084 l 1
 49 1089 l 1
 45 1244 l 1
EndSplineSet
Colour: ffffff
EndChar

StartChar: two
Encoding: 50 50 189
Width: 959
VWidth: 0
Flags: MW
LayerCount: 2
Back
SplineSet
874.37 0 m 5
 96.7002 0 l 5
 90.5918 103.824 l 5
 330.815 312.493 l 6
 394.941 367.459 394.941 367.459 435.658 405.121 c 132
 462.802 430.229 494.187 462.124 529.813 500.803 c 132
 565.439 539.482 593.431 574.771 613.789 606.663 c 132
 634.147 638.558 651.79 674.692 666.72 715.069 c 132
 681.649 755.445 689.113 795.653 689.113 835.689 c 4
 689.113 1007.38 619.558 1092.88 480.445 1092.2 c 4
 369.155 1092.2 279.581 1006.02 211.722 833.654 c 5
 128.255 864.191 l 5
 138.433 907.621 155.907 950.882 180.676 993.972 c 132
 205.444 1037.06 235.303 1076.25 270.25 1111.54 c 132
 305.198 1146.83 346.423 1175.5 393.924 1197.55 c 132
 441.426 1219.61 490.624 1230.63 541.52 1230.63 c 4
 650.772 1230.63 733.561 1200.43 789.885 1140.04 c 132
 846.209 1079.64 874.37 993.123 874.37 880.477 c 4
 874.37 845.19 869.28 809.903 859.102 774.617 c 132
 848.922 739.329 836.368 706.757 821.439 676.898 c 132
 806.51 647.041 786.831 615.824 762.401 583.252 c 132
 737.972 550.68 714.561 522.349 692.167 498.259 c 132
 669.773 474.168 642.629 447.194 610.735 417.337 c 132
 578.841 387.478 551.867 363.388 529.813 345.065 c 132
 496.732 317.583 496.732 317.583 447.872 276.867 c 132
 399.014 236.15 399.014 236.15 376.62 216.811 c 6
 283.992 136.397 l 5
 763.42 136.397 l 5
 861.137 317.583 l 5
 931.372 307.404 l 5
 874.37 0 l 5
EndSplineSet
Fore
SplineSet
70 74 m 1
 308 278 l 2
 538 475 669 628 669 842 c 0
 669 988 615 1128 455 1128 c 0
 348 1128 278 1076 249 1021 c 1
 208 780 l 1
 151 788 l 1
 141 1057 l 1
 195 1130 349 1209 501 1209 c 0
 705 1209 843 1094 843 860 c 0
 843 594 593 397 320 180 c 2
 241 118 l 1
 740 118 l 1
 835 361 l 1
 890 353 l 1
 843 0 l 1
 76 0 l 1
 70 74 l 1
EndSplineSet
Substitution2: "'sups' Superscript lookup 0 subtable" two.superior
Colour: ffffff
EndChar

StartChar: two.osf
Encoding: 65545 -1 190
Width: 803
VWidth: 0
Flags: MW
LayerCount: 2
Fore
SplineSet
54 74 m 1
 301 278 l 1
 455 405 537 523 537 679 c 0
 537 801 476 882 375 882 c 0
 273 882 179 780 146 662 c 1
 81 686 l 1
 105 813 244 978 426 980 c 0
 601 982 700 865 700 697 c 0
 700 491 505 337 306 181 c 1
 223 116 l 1
 636 116 l 1
 714 295 l 1
 769 287 l 1
 723 0 l 1
 60 0 l 1
 54 74 l 1
EndSplineSet
Colour: ffffff
EndChar

StartChar: two.superior
Encoding: 178 178 191
Width: 631
VWidth: 0
Flags: HMW
LayerCount: 2
Fore
SplineSet
46 626 m 1
 200 750 l 2
 334 860 405 940 405 1040 c 0
 405 1118 374 1194 282 1194 c 0
 220 1194 184 1177 167 1154 c 1
 143 1014 l 1
 88 1019 l 1
 83 1184 l 1
 119 1238 225 1274 328 1274 c 0
 466 1274 558 1208 558 1074 c 0
 558 922 422 818 226 675 c 2
 191 652 l 1
 484 652 l 1
 546 802 l 1
 592 790 l 1
 572 548 l 1
 44 548 l 1
 46 626 l 1
EndSplineSet
Colour: ffffff
EndChar

StartChar: u
Encoding: 117 117 192
Width: 1013
VWidth: 0
Flags: MW
LayerCount: 2
Fore
SplineSet
54 800 m 1
 62 853 l 1
 311 874 l 1
 327 857 l 1
 327 317 l 2
 327 153 393 86 499 86 c 0
 589 86 660 137 705 187 c 1
 705 754 l 1
 548 790 l 1
 554 850 l 1
 820 874 l 1
 834 857 l 1
 834 223 l 2
 834 123 857 85 933 70 c 2
 987 58 l 1
 980 -1 l 1
 939 -13 904 -21 854 -21 c 0
 763 -21 717 43 717 120 c 2
 717 132 l 1
 705 132 l 1
 636 30 536 -24 427 -24 c 0
 288 -24 199 60 199 275 c 2
 199 757 l 1
 54 800 l 1
EndSplineSet
Colour: ffffff
EndChar

StartChar: underscore
Encoding: 95 95 193
Width: 869
VWidth: 0
Flags: MW
LayerCount: 2
Fore
SplineSet
14 -133 m 1
 26 -47 l 1
 854 -47 l 1
 844 -133 l 1
 14 -133 l 1
EndSplineSet
Colour: ffffff
EndChar

StartChar: uniF001
Encoding: 61441 61441 194
Width: 1171
VWidth: 0
Flags: MW
LayerCount: 2
Fore
SplineSet
70 0 m 1
 82 51 l 1
 234 87 l 1
 234 779 l 1
 85 779 l 1
 97 833 l 1
 235 855 l 1
 254 1173 436 1305 578 1305 c 0
 684 1305 752 1260 752 1192 c 0
 752 1148 716 1112 683 1099 c 1
 640 1168 584 1220 513 1220 c 0
 436 1220 370 1149 369 981 c 2
 368 849 l 1
 626 849 l 1
 613 779 l 1
 368 779 l 1
 368 91 l 1
 614 61 l 1
 607 0 l 1
 70 0 l 1
697 0 m 1
 710 55 l 1
 860 87 l 1
 860 760 l 1
 708 801 l 1
 716 853 l 1
 975 875 l 1
 991 857 l 1
 991 87 l 1
 1152 57 l 1
 1140 0 l 1
 697 0 l 1
829 1194 m 0
 829 1258 866 1298 919 1298 c 0
 973 1298 1013 1257 1013 1193 c 0
 1013 1126 975 1081 919 1081 c 0
 863 1081 829 1128 829 1194 c 0
EndSplineSet
Colour: ffffff
EndChar

StartChar: uniF002
Encoding: 61442 61442 195
Width: 1154
VWidth: 0
Flags: MW
LayerCount: 2
Fore
SplineSet
681 0 m 1
 692 55 l 1
 845 87 l 1
 845 1156 l 1
 689 1197 l 1
 696 1249 l 1
 958 1270 l 1
 975 1254 l 1
 975 87 l 1
 1135 57 l 1
 1124 0 l 1
 681 0 l 1
70 0 m 1
 82 51 l 1
 234 87 l 1
 234 779 l 1
 85 779 l 1
 97 833 l 1
 235 855 l 1
 237 1173 404 1304 505 1304 c 0
 583 1304 640 1282 640 1220 c 0
 640 1181 615 1151 583 1136 c 1
 553 1179 499 1214 449 1214 c 0
 395 1214 365 1106 367 965 c 2
 368 849 l 1
 626 849 l 1
 613 779 l 1
 368 779 l 1
 368 91 l 1
 614 61 l 1
 607 0 l 1
 70 0 l 1
EndSplineSet
Colour: ffffff
EndChar

StartChar: v
Encoding: 118 118 196
Width: 921
VWidth: 0
Flags: MW
LayerCount: 2
Fore
SplineSet
30 806 m 1
 37 861 l 1
 443 861 l 1
 438 808 l 1
 292 771 l 1
 501 161 l 1
 713 769 l 1
 553 806 l 1
 564 861 l 1
 923 861 l 1
 914 808 l 1
 805 771 l 1
 524 -11 l 1
 434 -26 l 1
 152 769 l 1
 30 806 l 1
EndSplineSet
Colour: ffffff
EndChar

StartChar: w
Encoding: 119 119 197
Width: 1237
VWidth: 0
Flags: MW
LayerCount: 2
Fore
SplineSet
22 808 m 1
 29 863 l 1
 412 863 l 1
 405 809 l 1
 270 777 l 1
 391 360 l 1
 428 203 l 1
 591 798 l 1
 705 817 l 1
 843 345 l 1
 875 193 l 1
 1036 775 l 1
 885 808 l 1
 892 863 l 1
 1248 863 l 1
 1240 809 l 1
 1132 777 l 1
 910 -9 l 1
 825 -25 l 1
 634 630 l 1
 462 -9 l 1
 375 -25 l 1
 138 775 l 1
 22 808 l 1
EndSplineSet
Colour: ffffff
EndChar

StartChar: x
Encoding: 120 120 200
Width: 934
VWidth: 0
Flags: MW
LayerCount: 2
Fore
SplineSet
17 0 m 1
 26 52 l 1
 134 86 l 1
 400 431 l 1
 154 783 l 1
 36 815 l 1
 43 870 l 1
 437 870 l 1
 427 817 l 1
 312 785 l 1
 496 527 l 1
 693 781 l 1
 555 815 l 1
 567 870 l 1
 916 870 l 1
 905 816 l 1
 801 783 l 1
 550 459 l 1
 812 84 l 1
 926 52 l 1
 918 0 l 1
 513 0 l 1
 525 51 l 1
 652 84 l 1
 456 362 l 1
 244 86 l 1
 386 54 l 1
 377 0 l 1
 17 0 l 1
EndSplineSet
Colour: ffffff
EndChar

StartChar: y
Encoding: 121 121 201
Width: 936
VWidth: 0
Flags: MW
LayerCount: 2
Fore
SplineSet
30 -274 m 0
 30 -241 40 -206 75 -176 c 1
 122 -212 165 -229 233 -229 c 0
 289 -229 358 -194 415 -49 c 2
 438 12 l 1
 160 772 l 1
 36 805 l 1
 45 861 l 1
 428 861 l 1
 422 808 l 1
 295 775 l 1
 510 195 l 1
 740 771 l 1
 610 806 l 1
 621 861 l 1
 938 861 l 1
 933 808 l 1
 832 772 l 1
 502 -53 l 2
 409 -286 330 -379 175 -379 c 0
 91 -379 30 -332 30 -274 c 0
EndSplineSet
Colour: ffffff
EndChar

StartChar: yen
Encoding: 165 165 205
Width: 1151
VWidth: 0
Flags: MW
LayerCount: 2
Fore
SplineSet
90 1188 m 1
 98 1244 l 1
 537 1244 l 1
 529 1188 l 1
 379 1156 l 1
 618 638 l 1
 845 1151 l 1
 674 1188 l 1
 680 1244 l 1
 1074 1244 l 1
 1067 1188 l 1
 941 1155 l 1
 674 578 l 1
 1004 578 l 1
 993 505 l 1
 655 505 l 1
 655 338 l 1
 1001 338 l 1
 990 265 l 1
 655 265 l 1
 655 90 l 1
 829 62 l 1
 820 0 l 1
 339 0 l 1
 347 56 l 1
 509 96 l 1
 509 265 l 1
 183 265 l 1
 194 338 l 1
 509 338 l 1
 509 505 l 1
 186 505 l 1
 197 578 l 1
 490 578 l 1
 227 1152 l 1
 90 1188 l 1
EndSplineSet
Colour: ffffff
EndChar

StartChar: z
Encoding: 122 122 206
Width: 858
VWidth: 0
Flags: MW
LayerCount: 2
Fore
SplineSet
96 63 m 1
 612 788 l 1
 227 788 l 1
 171 583 l 1
 115 592 l 1
 125 861 l 1
 772 861 l 1
 774 809 l 1
 251 78 l 1
 664 78 l 1
 739 275 l 1
 790 269 l 1
 760 0 l 1
 100 0 l 1
 96 63 l 1
EndSplineSet
Colour: ffffff
EndChar

StartChar: zero
Encoding: 48 48 207
Width: 984
VWidth: 0
Flags: MW
LayerCount: 2
Fore
SplineSet
105 587 m 0
 105 989 293 1203 514 1203 c 0
 755 1203 910 995 910 587 c 0
 910 145 712 -27 513 -27 c 0
 288 -27 105 133 105 587 c 0
273 584 m 0
 273 228 352 48 515 48 c 0
 675 48 741 227 741 587 c 0
 741 921 672 1125 511 1125 c 0
 339 1125 273 920 273 584 c 0
EndSplineSet
Substitution2: "'sups' Superscript lookup 0 subtable" zero.superior
Colour: ffffff
EndChar

StartChar: zero.osf
Encoding: 65546 -1 208
Width: 987
VWidth: 0
Flags: MW
LayerCount: 2
Fore
SplineSet
128 475 m 0
 128 726 281 977 516 976 c 0
 764 975 906 755 906 481 c 0
 906 165 717 -24 517 -24 c 0
 302 -24 128 164 128 475 c 0
286 479 m 0
 286 177 379 50 518 50 c 0
 653 50 747 168 747 478 c 0
 747 766 664 908 516 908 c 0
 359 908 286 768 286 479 c 0
EndSplineSet
Colour: ffffff
EndChar

StartChar: Euro.osf
Encoding: 65547 -1 209
Width: 1117
VWidth: 0
Flags: MW
LayerCount: 2
Fore
SplineSet
9 350 m 1
 18 432 l 1
 611 432 l 1
 594 350 l 1
 9 350 l 1
13 513 m 1
 19 595 l 1
 647 595 l 1
 630 513 l 1
 13 513 l 1
140 458 m 0
 140 736 309 984 592 984 c 0
 695 984 776 954 852 898 c 1
 822 606 l 1
 755 616 l 1
 719 830 l 1
 674 875 624 905 551 905 c 0
 385 905 307 750 307 490 c 1
 307 214 407 62 598 62 c 0
 653 62 706 94 735 132 c 1
 767 344 l 1
 834 353 l 1
 865 83 l 1
 772 8 700 -24 568 -24 c 0
 304 -24 140 163 140 458 c 0
EndSplineSet
Colour: ffffff
EndChar

StartChar: ampersand.osf
Encoding: 65548 -1 210
Width: 1282
VWidth: 0
Flags: MW
LayerCount: 2
Fore
SplineSet
157 201 m 1
 157 478 612 516 612 763 c 0
 612 853 561 912 486 912 c 0
 425 912 380 858 380 785 c 0
 380 714 434 643 507 556 c 2
 745 263 l 2
 864 117 943 86 1020 64 c 2
 1061 53 l 1
 1050 -1 l 1
 1010 -15 984 -19 944 -19 c 0
 858 -19 761 31 688 120 c 2
 374 507 l 2
 314 580 255 660 255 747 c 0
 255 864 371 981 506 981 c 0
 647 981 732 897 731 792 c 0
 728 507 308 482 308 236 c 0
 308 145 367 73 453 73 c 0
 607 73 709 201 839 509 c 1
 706 545 l 1
 712 595 l 1
 1095 595 l 1
 1087 545 l 1
 932 512 l 1
 776 210 696 -20 402 -20 c 0
 236 -20 157 84 157 201 c 1
EndSplineSet
Colour: ffffff
EndChar

StartChar: dollar.osf
Encoding: 65549 -1 211
Width: 860
VWidth: 0
Flags: MW
LayerCount: 2
Fore
SplineSet
71 160 m 0
 71 222 118 263 177 270 c 1
 211 112 274 40 380 40 c 0
 466 40 529 97 529 167 c 0
 529 340 108 383 108 648 c 0
 108 765 195 900 385 900 c 0
 516 900 615 827 615 726 c 0
 615 649 570 613 510 608 c 1
 502 648 l 2
 467 802 407 836 347 836 c 0
 264 836 214 786 214 712 c 0
 214 504 647 469 647 218 c 0
 647 70 502 -35 348 -35 c 0
 188 -35 71 51 71 160 c 0
310 -197 m 1
 325 -15 l 1
 424 -6 l 1
 438 -179 l 1
 310 -197 l 1
318 1042 m 1
 438 1059 l 1
 424 890 l 1
 332 890 l 1
 318 1042 l 1
EndSplineSet
Colour: ffffff
EndChar

StartChar: paragraph.osf
Encoding: 65550 -1 212
Width: 1335
VWidth: 0
Flags: MW
LayerCount: 2
Fore
SplineSet
245 640 m 0
 245 849 449 974 670 974 c 2
 871 974 l 1
 871 0 l 1
 507 0 l 1
 514 58 l 1
 742 97 l 1
 743 899 l 1
 706 901 682 901 673 901 c 0
 513 901 409 841 409 657 c 0
 409 508 504 420 688 417 c 1
 671 341 l 1
 418 341 245 404 245 640 c 0
940 -1 m 1
 940 975 l 1
 1242 975 l 1
 1235 917 l 1
 1062 887 l 1
 1062 89 l 1
 1248 63 l 1
 1239 -1 l 1
 940 -1 l 1
EndSplineSet
Colour: ffffff
EndChar

StartChar: percent.osf
Encoding: 65551 -1 213
Width: 1468
VWidth: 0
Flags: MW
LayerCount: 2
Fore
SplineSet
24 713 m 0
 24 856 135 970 252 970 c 0
 268 970 280 969 287 967 c 1
 287 913 l 17
 273 921 267 925 249 925 c 0
 171 925 143 808 143 712 c 0
 143 614 180 506 251 506 c 0
 331 506 363 612 363 713 c 0
 363 827 336 912 319 957 c 9
 842 969 l 25
 851 903 l 25
 424 911 l 17
 461 871 483 755 483 712 c 0
 483 566 362 454 251 454 c 0
 130 454 24 551 24 713 c 0
125 -21 m 1
 492 464 l 1
 842 969 l 1
 969 965 l 1
 968 951 l 1
 602 467 l 1
 266 -33 l 1
 125 -21 l 1
611 223 m 0
 611 366 723 481 840 481 c 0
 975 481 1071 371 1071 220 c 0
 1071 77 953 -34 842 -34 c 0
 721 -34 611 63 611 223 c 0
732 223 m 0
 732 125 771 18 842 18 c 0
 922 18 952 122 952 225 c 0
 952 326 913 437 840 437 c 0
 759 437 732 319 732 223 c 0
EndSplineSet
Colour: ffffff
EndChar

StartChar: perthousand.osf
Encoding: 65552 -1 214
Width: 1708
VWidth: 0
Flags: MW
LayerCount: 2
Fore
SplineSet
24 713 m 0
 24 856 135 970 252 970 c 0
 268 970 280 969 287 967 c 1
 287 913 l 17
 273 921 267 925 249 925 c 0
 171 925 143 808 143 712 c 0
 143 614 180 506 251 506 c 0
 331 506 363 612 363 713 c 0
 363 827 336 912 319 957 c 9
 842 969 l 25
 851 903 l 25
 424 911 l 17
 461 871 483 755 483 712 c 0
 483 566 362 454 251 454 c 0
 130 454 24 551 24 713 c 0
125 -21 m 1
 492 464 l 1
 842 969 l 1
 969 965 l 1
 968 950 l 1
 602 467 l 1
 266 -33 l 1
 125 -21 l 1
611 223 m 0
 611 366 723 481 840 481 c 0
 975 481 1071 371 1071 220 c 0
 1071 77 953 -34 842 -34 c 0
 721 -34 611 63 611 223 c 0
732 223 m 0
 732 125 771 18 842 18 c 0
 922 18 952 122 952 225 c 0
 952 326 913 437 840 437 c 0
 759 437 732 319 732 223 c 0
1154 223 m 0
 1154 366 1267 479 1384 479 c 0
 1519 479 1614 371 1614 220 c 0
 1614 77 1496 -33 1385 -33 c 0
 1264 -33 1154 63 1154 223 c 0
1276 223 m 0
 1276 125 1314 19 1385 19 c 0
 1465 19 1496 122 1496 225 c 0
 1496 326 1457 435 1384 435 c 0
 1303 435 1276 319 1276 223 c 0
EndSplineSet
Colour: ffffff
EndChar

StartChar: sterling.osf
Encoding: 65553 -1 215
Width: 1284
VWidth: 0
Flags: MW
LayerCount: 2
Fore
SplineSet
126 0 m 1
 132 58 l 1
 301 92 l 1
 331 156 340 235 340 320 c 2
 340 413 l 1
 163 403 l 1
 174 478 l 1
 345 488 l 1
 347 606 l 1
 351 818 456 982 683 982 c 0
 805 982 931 915 931 838 c 0
 931 768 872 730 809 718 c 1
 793 830 747 913 665 913 c 0
 512 913 494 813 494 554 c 2
 494 496 l 1
 752 510 l 1
 742 435 l 1
 492 418 l 1
 492 375 l 2
 492 241 474 136 429 78 c 1
 849 78 l 1
 948 316 l 1
 1009 301 l 1
 982 0 l 1
 126 0 l 1
EndSplineSet
Colour: ffffff
EndChar

StartChar: uni1E9E.alt
Encoding: 65554 -1 216
Width: 1284
VWidth: 0
Flags: MW
LayerCount: 2
Fore
SplineSet
119 0 m 1
 126 58 l 1
 295 97 l 1
 295 727 l 2
 295 1090 447 1274 779 1274 c 0
 961 1274 1133 1256 1204 1235 c 1
 1205 1184 l 1
 878 751 l 1
 1027 664 1304 566 1304 323 c 0
 1304 112 1136 -25 895 -25 c 0
 750 -25 622 39 562 123 c 1
 583 400 l 1
 659 389 l 1
 692 185 l 1
 733 112 830 57 933 57 c 0
 1057 57 1156 129 1156 267 c 0
 1156 466 864 579 709 666 c 1
 687 711 l 1
 1019 1159 l 1
 1019 1163 l 1
 970 1182 805 1203 741 1203 c 0
 514 1203 442 1013 442 750 c 2
 442 0 l 1
 119 0 l 1
EndSplineSet
Colour: ffffff
EndChar

StartChar: uni1E9E.alt2
Encoding: 65555 -1 217
Width: 1164
VWidth: 830
Flags: MW
LayerCount: 2
Fore
SplineSet
74 0 m 1
 81 58 l 1
 249 97 l 1
 249 765 l 2
 249 1110 419 1274 734 1274 c 0
 915 1274 1089 1243 1170 1168 c 1
 1144 871 l 1
 1071 880 l 1
 1045 1093 l 1
 1000 1139 952 1169 877 1169 c 0
 767 1169 669 1046 705 910 c 0
 770 639 1259 635 1259 315 c 0
 1259 104 1091 -25 850 -25 c 0
 704 -25 575 35 516 120 c 1
 538 396 l 1
 614 385 l 1
 646 181 l 1
 687 108 785 57 888 57 c 0
 1019 57 1111 126 1111 259 c 0
 1111 544 554 532 554 890 c 0
 554 1032 641 1163 782 1196 c 1
 784 1199 l 1
 761 1201 723 1203 696 1203 c 0
 498 1203 397 1048 397 788 c 2
 397 0 l 1
 74 0 l 1
EndSplineSet
Colour: ffffff
EndChar

StartChar: yen.osf
Encoding: 65556 -1 218
Width: 1188
VWidth: 0
Flags: MW
LayerCount: 2
Back
SplineSet
308.823 988.986 m 1
 312.385 619.112 l 1
 640.555 608.162 l 1
 635.495 561.104 l 1
 316.667 543.293 l 1
 441.343 284.767 l 1
 659.284 579.399 l 1
 573.78 944.801 l 1
 489.579 965.668 l 1
 706.622 986.062 l 1
 827.568 988.986 l 1
 747.664 970.665 l 1
 596.507 657.663 l 1
 826.042 657.663 l 1
 819.425 627.635 l 1
 596.507 627.635 l 1
 596.507 470.879 l 1
 711.528 457.646 l 1
 705.93 428.637 l 1
 416.849 428.637 l 1
 420.411 454.592 l 1
 530.344 473.933 l 1
 530.344 627.635 l 1
 315.568 627.635 l 1
 321.675 657.663 l 1
 530.344 657.663 l 1
 385.294 969.138 l 1
 308.823 988.986 l 1
EndSplineSet
Fore
SplineSet
170 906 m 1
 180 961 l 1
 597 961 l 1
 590 906 l 1
 460 873 l 1
 651 434 l 1
 841 869 l 1
 694 906 l 1
 700 961 l 1
 1069 961 l 1
 1062 906 l 1
 937 872 l 1
 706 379 l 1
 1039 379 l 1
 1028 306 l 1
 692 306 l 1
 692 90 l 1
 866 62 l 1
 856 0 l 1
 376 0 l 1
 383 56 l 1
 546 96 l 1
 546 306 l 1
 221 306 l 1
 232 379 l 1
 532 379 l 1
 309 869 l 1
 170 906 l 1
221 525 m 1
 232 597 l 1
 517 597 l 9
 544 525 l 17
 221 525 l 1
729 525 m 9
 764 597 l 17
 1039 597 l 1
 1028 525 l 1
 729 525 l 9
EndSplineSet
Colour: ffffff
EndChar

StartChar: .notdef
Encoding: 65562 -1 348
Width: 564
VWidth: 0
Flags: MW
LayerCount: 2
Back
SplineSet
51.9131 0 m 5
 51.9131 1389.42 l 5
 605.646 1389.42 l 5
 605.646 0 l 5
 51.9131 0 l 5
121.129 69.2168 m 5
 536.43 69.2168 l 5
 536.43 1320.21 l 5
 121.129 1320.21 l 5
 121.129 69.2168 l 5
EndSplineSet
Fore
SplineSet
41 0 m 1
 41 1107 l 1
 482 1107 l 1
 482 0 l 1
 41 0 l 1
96 55 m 1
 427 55 l 1
 427 1051 l 1
 96 1051 l 1
 96 55 l 1
EndSplineSet
Colour: ffffff
EndChar

StartChar: Acaron
Encoding: 461 461 349
Width: 1324
VWidth: 0
Flags: HMW
LayerCount: 2
Back
SplineSet
-46.8232 0 m 1
 -34.6084 92.6279 l 1
 151.666 161.846 l 1
 702.346 1555.34 l 1
 892.691 1594.02 l 1
 1382.3 155.737 l 1
 1555.34 100.771 l 1
 1544.14 0 l 1
 896.764 0 l 1
 911.014 92.6279 l 1
 1126.81 161.846 l 1
 989.392 543.555 l 1
 463.142 543.555 l 1
 321.654 155.737 l 1
 555.77 100.771 l 1
 541.52 0 l 1
 -46.8232 0 l 1
509.965 670.791 m 1
 952.748 670.791 l 1
 744.08 1299.85 l 1
 509.965 670.791 l 1
539.482 1919.75 m 1
 640.255 1997.1 l 1
 826.528 1816.94 l 1
 838.743 1816.94 l 1
 993.463 1993.03 l 1
 1049.45 1954.35 l 1
 833.654 1729.4 l 1
 764.438 1711.08 l 1
 539.482 1919.75 l 1
EndSplineSet
Fore
Refer: 65 711 N 1 0 0 1 417 15 2
Refer: 0 65 N 1 0 0 1 0 0 3
Colour: ffffff
EndChar

StartChar: Icaron
Encoding: 463 463 350
Width: 674
VWidth: 0
Flags: HMW
LayerCount: 2
Back
SplineSet
63.1094 1467.8 m 1
 76.3418 1563.48 l 1
 760.365 1563.48 l 1
 748.15 1467.8 l 1
 535.411 1419.96 l 1
 535.411 143.523 l 1
 763.42 100.771 l 1
 750.187 0 l 1
 72.2695 0 l 1
 81.4307 92.6279 l 1
 292.135 151.666 l 1
 292.135 1415.89 l 1
 63.1094 1467.8 l 1
146.576 1919.75 m 1
 247.348 1997.1 l 1
 435.658 1816.94 l 1
 447.872 1816.94 l 1
 602.592 1993.03 l 1
 657.559 1954.35 l 1
 440.748 1729.4 l 1
 371.53 1711.08 l 1
 146.576 1919.75 l 1
EndSplineSet
Fore
Refer: 65 711 N 1 0 0 1 32 15 2
Refer: 19 73 N 1 0 0 1 0 0 3
Colour: ffffff
EndChar

StartChar: Ocaron
Encoding: 465 465 351
Width: 1331
VWidth: 0
Flags: HMW
LayerCount: 2
Back
SplineSet
76.3418 778.688 m 0
 76.3418 1262.19 386.8 1599.11 887.603 1599.11 c 0
 1342.6 1599.11 1614.38 1219.44 1614.38 778.688 c 0
 1614.38 345.065 1322.24 -33.5908 800.063 -33.5908 c 0
 366.441 -33.5908 76.3418 323.689 76.3418 778.688 c 0
356.263 849.939 m 0
 356.263 480.445 499.785 99.7539 862.154 99.7539 c 0
 1243.87 99.7539 1334.46 415.3 1334.46 720.668 c 0
 1334.46 1076.93 1187.88 1477.98 827.546 1477.98 c 0
 449.908 1477.98 356.263 1177.7 356.263 849.939 c 0
590.378 1919.75 m 1
 691.149 1997.1 l 1
 879.459 1816.94 l 1
 891.674 1816.94 l 1
 1046.39 1993.03 l 1
 1100.34 1954.35 l 1
 884.548 1729.4 l 1
 815.332 1711.08 l 1
 590.378 1919.75 l 1
EndSplineSet
Fore
Refer: 65 711 N 1 0 0 1 418 15 2
Refer: 26 79 N 1 0 0 1 0 0 3
Colour: ffffff
EndChar

StartChar: Tcommaaccent
Encoding: 538 538 352
Width: 1134
VWidth: 0
Flags: HMW
LayerCount: 2
Back
SplineSet
30.5371 1563.48 m 1xfa
 1428.1 1563.48 l 1
 1383.32 1139.02 l 1
 1266.26 1157.34 l 1
 1216.38 1448.46 l 1
 833.654 1448.46 l 1
 833.654 143.523 l 1
 1066.75 100.771 l 1
 1050.46 0 l 1
 370.513 0 l 1
 381.709 92.6279 l 1
 593.431 151.666 l 1
 593.431 1448.46 l 1
 222.918 1448.46 l 1
 155.737 1143.09 l 1
 41.7344 1159.38 l 1
 30.5371 1563.48 l 1xfa
566.967 -423.443 m 1
 655.523 -401.05 684.023 -355.244 684.023 -309.439 c 0
 684.023 -267.706 610.735 -214.775 583.252 -211.722 c 1
 594.449 -157.773 636.183 -106.879 695.22 -106.879 c 0
 745.098 -106.879 822.457 -143.523 822.457 -255.491 c 0xf6
 822.457 -323.689 776.652 -445.837 590.378 -489.606 c 1
 566.967 -423.443 l 1
EndSplineSet
Fore
Refer: 72 806 N 1 0 0 1 470 -14 2
Refer: 33 84 N 1 0 0 1 0 0 3
Colour: ffffff
EndChar

StartChar: Ucaron
Encoding: 467 467 353
Width: 1371
VWidth: 0
Flags: HMW
LayerCount: 2
Back
SplineSet
27.4824 1467.8 m 1
 43.7695 1563.48 l 1
 725.757 1563.48 l 1
 713.543 1467.8 l 1
 501.821 1419.96 l 1
 501.821 641.272 l 2
 501.821 282.974 680.97 132.326 938.497 132.326 c 0
 1191.95 132.326 1346.67 277.885 1347.69 605.646 c 2
 1350.74 1415.89 l 1
 1120.7 1467.8 l 1
 1133.93 1563.48 l 1
 1734.49 1563.48 l 1
 1721.26 1467.8 l 1
 1512.59 1419.96 l 1
 1505.46 647.38 l 2
 1501.39 194.417 1313.08 -33.5908 876.406 -33.5908 c 0
 586.307 -33.5908 259.562 60.0557 259.562 589.36 c 2
 259.562 1415.89 l 1
 27.4824 1467.8 l 1
655.523 1919.75 m 1
 756.294 1997.1 l 1
 944.604 1816.94 l 1
 956.819 1816.94 l 1
 1111.54 1993.03 l 1
 1165.49 1954.35 l 1
 949.693 1729.4 l 1
 880.477 1711.08 l 1
 655.523 1919.75 l 1
EndSplineSet
Fore
Refer: 65 711 N 1 0 0 1 409 15 2
Refer: 36 85 N 1 0 0 1 0 0 3
Colour: ffffff
EndChar

StartChar: Udieresisacute
Encoding: 471 471 354
Width: 1371
VWidth: 0
Flags: HMW
LayerCount: 2
Back
SplineSet
27.4824 1467.8 m 1
 43.7695 1563.48 l 1
 725.757 1563.48 l 1
 713.543 1467.8 l 1
 501.821 1419.96 l 1
 501.821 641.272 l 2
 501.821 282.974 680.97 132.326 938.497 132.326 c 0
 1191.95 132.326 1346.67 277.885 1347.69 605.646 c 2
 1350.74 1415.89 l 1
 1120.7 1467.8 l 1
 1133.93 1563.48 l 1
 1734.49 1563.48 l 1
 1721.26 1467.8 l 1
 1512.59 1419.96 l 1
 1505.46 647.38 l 2
 1501.39 194.417 1313.08 -33.5908 876.406 -33.5908 c 0
 586.307 -33.5908 259.562 60.0557 259.562 589.36 c 2
 259.562 1415.89 l 1
 27.4824 1467.8 l 1
647.38 1805.74 m 0
 647.38 1864.78 701.328 1903.46 752.224 1903.46 c 0
 807.188 1903.46 860.119 1863.76 860.119 1805.74 c 0
 860.119 1743.65 807.188 1704.97 752.224 1704.97 c 0
 698.274 1704.97 647.38 1743.65 647.38 1805.74 c 0
862.154 1937.05 m 1
 1015.86 2346.24 l 5
 1157.34 2296.37 l 1
 926.282 1896.33 l 1
 862.154 1937.05 l 1
983.284 1805.74 m 0
 983.284 1864.78 1037.23 1903.46 1088.13 1903.46 c 0
 1143.09 1903.46 1198.06 1863.76 1198.06 1805.74 c 0
 1198.06 1743.65 1143.09 1704.97 1088.13 1704.97 c 0
 1034.18 1704.97 983.284 1743.65 983.284 1805.74 c 0
EndSplineSet
Fore
Refer: 49 180 N 1 0 0 1 471 284 2
Refer: 240 220 N 1 0 0 1 0 0 3
Colour: ffffff
EndChar

StartChar: Udieresiscaron
Encoding: 473 473 355
Width: 1371
VWidth: 0
Flags: HMW
LayerCount: 2
Back
SplineSet
27.4824 1467.8 m 1
 43.7695 1563.48 l 1
 725.757 1563.48 l 1
 713.543 1467.8 l 1
 501.821 1419.96 l 1
 501.821 641.272 l 2
 501.821 282.974 680.97 132.326 938.497 132.326 c 0
 1191.95 132.326 1346.67 277.885 1347.69 605.646 c 2
 1350.74 1415.89 l 1
 1120.7 1467.8 l 1
 1133.93 1563.48 l 1
 1734.49 1563.48 l 1
 1721.26 1467.8 l 1
 1512.59 1419.96 l 1
 1505.46 647.38 l 2
 1501.39 194.417 1313.08 -33.5908 876.406 -33.5908 c 0
 586.307 -33.5908 259.562 60.0557 259.562 589.36 c 2
 259.562 1415.89 l 1
 27.4824 1467.8 l 1
647.38 1780.29 m 0
 647.38 1839.33 701.328 1879.03 752.224 1879.03 c 0
 807.188 1879.03 860.119 1838.31 860.119 1780.29 c 0
 860.119 1718.2 807.188 1679.52 752.224 1679.52 c 0
 698.274 1679.52 647.38 1718.2 647.38 1780.29 c 0
666.72 2079.55 m 1
 768.509 2156.92 l 1
 954.783 1976.75 l 1
 968.016 1976.75 l 1
 1122.74 2152.84 l 1
 1177.7 2115.18 l 1
 960.891 1890.23 l 1
 891.674 1871.9 l 1
 666.72 2079.55 l 1
983.284 1780.29 m 0
 983.284 1839.33 1037.23 1879.03 1088.13 1879.03 c 0
 1143.09 1879.03 1198.06 1838.31 1198.06 1780.29 c 0
 1198.06 1718.2 1143.09 1679.52 1088.13 1679.52 c 0
 1034.18 1679.52 983.284 1718.2 983.284 1780.29 c 0
EndSplineSet
Fore
Refer: 65 711 N 1 0 0 1 407 273 2
Refer: 240 220 N 1 0 0 1 0 0 3
Colour: ffffff
EndChar

StartChar: Udieresisgrave
Encoding: 475 475 356
Width: 1371
VWidth: 0
Flags: HMW
LayerCount: 2
Back
SplineSet
27.4824 1467.8 m 1
 43.7695 1563.48 l 1
 725.757 1563.48 l 1
 713.543 1467.8 l 1
 501.821 1419.96 l 1
 501.821 641.272 l 2
 501.821 282.974 680.97 132.326 938.497 132.326 c 0
 1191.95 132.326 1346.67 277.885 1347.69 605.646 c 2
 1350.74 1415.89 l 1
 1120.7 1467.8 l 1
 1133.93 1563.48 l 1
 1734.49 1563.48 l 1
 1721.26 1467.8 l 1
 1512.59 1419.96 l 1
 1505.46 647.38 l 2
 1501.39 194.417 1313.08 -33.5908 876.406 -33.5908 c 0
 586.307 -33.5908 259.562 60.0557 259.562 589.36 c 2
 259.562 1415.89 l 1
 27.4824 1467.8 l 1
647.38 1783.35 m 0
 647.38 1842.39 701.328 1880.05 752.224 1880.05 c 0
 807.188 1880.05 860.119 1841.37 860.119 1783.35 c 0
 860.119 1721.26 807.188 1682.58 752.224 1682.58 c 0
 698.274 1682.58 647.38 1721.26 647.38 1783.35 c 0
666.72 2264.81 m 1
 810.243 2311.63 l 1
 977.177 1891.24 l 1
 903.889 1848.49 l 1
 666.72 2264.81 l 1
983.284 1783.35 m 0
 983.284 1842.39 1037.23 1880.05 1088.13 1880.05 c 0
 1143.09 1880.05 1198.06 1841.37 1198.06 1783.35 c 0
 1198.06 1721.26 1143.09 1682.58 1088.13 1682.58 c 0
 1034.18 1682.58 983.284 1721.26 983.284 1783.35 c 0
EndSplineSet
Fore
Refer: 111 96 N 1 0 0 1 383 298 2
Refer: 240 220 N 1 0 0 1 0 0 3
Colour: ffffff
EndChar

StartChar: Udieresismacron
Encoding: 469 469 357
Width: 1371
VWidth: 0
Flags: HMW
LayerCount: 2
Back
SplineSet
27.4824 1467.8 m 1
 43.7695 1563.48 l 1
 725.757 1563.48 l 1
 713.543 1467.8 l 1
 501.821 1419.96 l 1
 501.821 641.272 l 2
 501.821 282.974 680.97 132.326 938.497 132.326 c 0
 1191.95 132.326 1346.67 277.885 1347.69 605.646 c 2
 1350.74 1415.89 l 1
 1120.7 1467.8 l 1
 1133.93 1563.48 l 1
 1734.49 1563.48 l 1
 1721.26 1467.8 l 1
 1512.59 1419.96 l 1
 1505.46 647.38 l 2
 1501.39 194.417 1313.08 -33.5908 876.406 -33.5908 c 0
 586.307 -33.5908 259.562 60.0557 259.562 589.36 c 2
 259.562 1415.89 l 1
 27.4824 1467.8 l 1
638.219 1914.66 m 1
 655.523 2040.87 l 1
 1209.26 2040.87 l 1
 1192.97 1914.66 l 1
 638.219 1914.66 l 1
647.38 1762.99 m 0
 647.38 1822.03 701.328 1859.69 752.224 1859.69 c 0
 807.188 1859.69 860.119 1821.01 860.119 1762.99 c 0
 860.119 1700.9 807.188 1661.2 752.224 1661.2 c 0
 698.274 1661.2 647.38 1700.9 647.38 1762.99 c 0
983.284 1762.99 m 0
 983.284 1822.03 1037.23 1859.69 1088.13 1859.69 c 0
 1143.09 1859.69 1198.06 1821.01 1198.06 1762.99 c 0
 1198.06 1700.9 1143.09 1661.2 1088.13 1661.2 c 0
 1034.18 1661.2 983.284 1700.9 983.284 1762.99 c 0
EndSplineSet
Fore
Refer: 129 175 N 1 0 0 1 384 250 2
Refer: 240 220 N 1 0 0 1 0 0 3
Colour: ffffff
EndChar

StartChar: Ygrave
Encoding: 7922 7922 358
Width: 1113
VWidth: 0
Flags: MW
LayerCount: 2
Back
SplineSet
373.567 2085.66 m 1
 518.107 2133.5 l 1
 684.023 1714.13 l 1
 612.771 1670.36 l 1
 373.567 2085.66 l 1
-91.6104 1467.8 m 1
 -75.3242 1563.48 l 1
 563.913 1563.48 l 1
 548.644 1467.8 l 1
 349.137 1419.96 l 1
 698.274 804.135 l 1
 1030.11 1415.89 l 1
 800.063 1467.8 l 1
 812.278 1563.48 l 1
 1371.1 1563.48 l 1
 1358.89 1467.8 l 1
 1202.13 1419.96 l 1
 768.509 664.685 l 1
 768.509 143.523 l 1
 973.104 100.771 l 1
 960.891 0 l 1
 324.708 0 l 1
 336.922 92.6279 l 1
 525.232 151.666 l 1
 525.232 634.147 l 1
 81.4307 1415.89 l 1
 -91.6104 1467.8 l 1
EndSplineSet
Fore
Refer: 111 96 S 1 0 0 1 227 40 2
Refer: 43 89 N 1 0 0 1 0 0 3
Colour: ffffff
EndChar

StartChar: acaron
Encoding: 462 462 359
Width: 847
VWidth: 0
Flags: HMW
LayerCount: 2
Back
SplineSet
59.0371 211.722 m 0xba
 59.0371 396.979 228.008 580.198 638.219 609.718 c 1
 638.219 678.935 l 2
 638.219 848.922 590.378 1010.77 416.317 1010.77 c 0
 296.207 1010.77 295.189 899.817 276.867 744.08 c 1
 210.704 744.08 101.789 749.169 101.789 873.352 c 0
 101.789 1009.75 358.298 1131.9 532.358 1131.9 c 0
 756.294 1131.9 842.815 1010.77 842.815 745.098 c 2
 842.815 289.082 l 2
 842.815 173.042 866.227 139.452 983.284 120.111 c 2
 1045.38 108.915 l 1
 1030.11 1.01758 l 1x76
 971.069 -7.12598 932.39 -22.3936 858.083 -22.3936 c 0
 712.524 -22.3936 663.666 71.252 663.666 145.559 c 2
 663.666 164.898 l 1
 649.415 164.898 l 1
 615.824 98.7354 510.982 -30.5371 305.367 -30.5371 c 0
 173.042 -30.5371 59.0371 58.0195 59.0371 211.722 c 0xba
246.33 1456.6 m 1
 347.102 1533.96 l 1
 535.411 1353.8 l 1
 547.626 1353.8 l 1
 702.346 1529.89 l 1
 756.294 1491.21 l 1
 540.502 1266.26 l 1
 471.284 1247.94 l 1
 246.33 1456.6 l 1
278.902 269.741 m 0xba
 278.902 206.633 327.761 124.183 420.39 124.183 c 0
 507.929 124.183 596.485 189.328 638.219 236.15 c 1
 638.219 537.447 l 1
 364.406 483.498 278.902 389.853 278.902 269.741 c 0xba
EndSplineSet
Fore
Refer: 65 711 N 1 0 0 1 132 -367 2
Refer: 48 97 N 1 0 0 1 0 0 3
Colour: ffffff
EndChar

StartChar: approxequal
Encoding: 8776 8776 360
Width: 947
VWidth: 0
Flags: MW
LayerCount: 2
Back
SplineSet
88.5566 356.263 m 1x48
 88.5566 356.263 144.541 606.663 309.439 606.663 c 0x48
 314.528 606.663 321.654 606.663 326.743 605.646 c 2
 887.603 550.68 l 1
 891.674 550.68 l 2
 938.497 550.68 995.498 626.004 995.498 626.004 c 1
 1075.91 624.986 l 1
 1075.91 624.986 1010.77 370.513 845.869 370.513 c 0
 840.78 370.513 831.619 369.495 826.528 370.513 c 2x88
 266.688 427.515 l 1
 261.599 427.515 l 2
 210.704 427.515 157.773 339.977 157.773 339.977 c 1
 88.5566 356.263 l 1x48
88.5566 678.935 m 1
 88.5566 678.935 144.541 929.337 309.439 929.337 c 0x18
 314.528 929.337 321.654 928.317 326.743 927.3 c 2
 887.603 872.334 l 1
 891.674 872.334 l 2
 938.497 872.334 995.498 948.676 995.498 948.676 c 1
 1075.91 946.641 l 1
 1075.91 946.641 1010.77 692.167 845.869 692.167 c 0x28
 840.78 692.167 831.619 693.185 826.528 694.202 c 2
 266.688 749.169 l 1
 261.599 749.169 l 2x18
 210.704 749.169 157.773 662.648 157.773 662.648 c 1
 88.5566 678.935 l 1
EndSplineSet
Fore
Refer: 54 126 N 1 0 0 1 0 -126 2
Refer: 54 126 N 1 0 0 1 0 125 2
Colour: ffffff
EndChar

StartChar: braceleft
Encoding: 123 123 361
Width: 607
VWidth: 0
Flags: MW
LayerCount: 2
Back
SplineSet
5.08887 489.606 m 1
 5.08887 613.789 l 1
 66.1631 624.986 l 1
 432.604 688.096 21.376 1577.73 535.411 1577.73 c 2
 662.648 1577.73 l 1
 651.45 1452.53 l 1
 548.644 1444.39 l 2
 463.142 1437.26 458.052 1312.06 458.052 1157.34 c 2
 458.052 1084.05 l 2
 458.052 864.191 446.854 616.843 243.276 558.823 c 1
 243.276 550.68 l 1
 617.861 442.783 332.851 -325.726 563.913 -340.994 c 2
 657.559 -348.119 l 1
 667.737 -475.356 l 1
 539.482 -475.356 l 2
 18.3223 -475.356 430.569 421.408 70.2344 479.428 c 2
 5.08887 489.606 l 1
EndSplineSet
Fore
SplineSet
559 -378 m 1
 551 -303 l 1
 464 -297 l 1
 258 -286 498 369 184 438 c 1
 184 443 l 1
 498 520 255 1162 452 1175 c 1
 546 1182 l 1
 554 1256 l 1
 452 1256 l 2
 43 1256 377 527 80 484 c 1
 32 476 l 1
 32 402 l 1
 83 395 l 2
 376 355 41 -378 456 -378 c 2
 559 -378 l 1
EndSplineSet
Colour: ffffff
EndChar

StartChar: bracketleft
Encoding: 91 91 362
Width: 476
VWidth: 0
Flags: MW
LayerCount: 2
Back
SplineSet
136.397 -472.302 m 1
 136.397 1577.73 l 1
 582.234 1577.73 l 1
 595.468 1465.77 l 1
 326.743 1440.32 l 1
 326.743 -326.743 l 1
 598.521 -350.154 l 1
 586.307 -471.284 l 1
 136.397 -472.302 l 1
EndSplineSet
Fore
SplineSet
392 -306 m 1
 155 -286 l 1
 155 1164 l 1
 390 1185 l 1
 383 1256 l 1
 25 1256 l 1
 24 -375 l 1
 384 -375 l 1
 392 -306 l 1
EndSplineSet
Colour: ffffff
EndChar

StartChar: bullet
Encoding: 8226 8226 363
Width: 1174
VWidth: 0
Flags: MW
LayerCount: 2
Back
SplineSet
89.5742 722.704 m 0
 89.5742 839.761 192.382 931.372 309.439 931.372 c 0
 429.551 931.372 532.358 837.726 532.358 720.668 c 0
 532.358 596.485 429.551 496.732 309.439 496.732 c 0
 189.328 496.732 89.5742 598.521 89.5742 722.704 c 0
EndSplineSet
Fore
Refer: 154 46 N 1.31264 0 0 1.44238 -15 460 2
Colour: ffffff
EndChar

StartChar: ellipsis
Encoding: 8230 8230 364
Width: 1174
VWidth: 0
Flags: MW
LayerCount: 2
Back
SplineSet
92.6279 116.039 m 0
 92.6279 196.454 161.846 257.526 242.259 257.526 c 0
 324.708 257.526 393.924 193.399 393.924 112.986 c 0
 393.924 28.502 324.708 -38.6797 242.259 -38.6797 c 0
 159.809 -38.6797 92.6279 31.5547 92.6279 116.039 c 0
652.47 116.039 m 0
 652.47 196.454 721.687 257.526 802.1 257.526 c 0
 884.548 257.526 953.766 193.399 953.766 112.986 c 0
 953.766 28.502 884.548 -38.6797 802.1 -38.6797 c 0
 719.65 -38.6797 652.47 31.5547 652.47 116.039 c 0
1245.9 116.039 m 0
 1245.9 196.454 1314.1 257.526 1394.51 257.526 c 0
 1476.96 257.526 1547.2 193.399 1547.2 112.986 c 0
 1547.2 28.502 1476.96 -38.6797 1394.51 -38.6797 c 0
 1312.06 -38.6797 1245.9 31.5547 1245.9 116.039 c 0
EndSplineSet
Fore
Refer: 154 46 N 1 0 0 1 783 0 2
Refer: 154 46 S 1 0 0 1 392 0 2
Refer: 154 46 N 1 0 0 1 0 0 2
Colour: ffffff
EndChar

StartChar: gcommaaccent
Encoding: 291 291 365
Width: 865
VWidth: 0
Flags: HMW
LayerCount: 2
Back
SplineSet
30.5371 -203.578 m 0xf350
 30.5371 -87.5391 168.97 -12.2148 231.062 22.3936 c 1
 231.062 33.5908 l 1
 152.685 71.252 110.95 133.344 110.95 205.613 c 0
 110.95 273.813 228.008 374.585 320.637 412.246 c 1
 320.637 421.408 l 1
 257.526 437.693 115.021 571.037 115.021 741.026 c 0
 115.021 948.676 323.689 1126.81 535.411 1126.81 c 0xe6c0
 651.45 1126.81 736.954 1093.22 800.063 1047.41 c 1xeac0
 818.387 1047.41 1069.8 1066.75 1069.8 1066.75 c 1
 1095.25 1038.25 l 1
 1046.39 898.8 l 1
 1026.04 898.8 l 1
 871.315 948.676 l 1
 871.315 927.3 l 1
 887.603 892.691 914.067 816.35 914.067 753.241 c 0
 914.067 522.179 679.952 378.656 489.606 378.656 c 0
 439.73 378.656 389.853 386.8 375.603 390.871 c 1
 346.083 360.334 312.493 319.619 312.493 280.938 c 0xf2e0
 312.493 230.044 347.102 189.328 543.555 189.328 c 2
 714.561 189.328 l 2
 900.835 189.328 1062.68 155.737 1062.68 -63.1094 c 0
 1062.68 -281.956 771.562 -485.535 485.535 -485.535 c 0
 254.474 -485.535 30.5371 -419.372 30.5371 -203.578 c 0xf350
251.42 -135.38 m 0xe350
 251.42 -304.35 390.871 -350.154 552.716 -350.154 c 0
 717.613 -350.154 849.939 -292.135 849.939 -126.219 c 0
 849.939 -14.25 762.401 4.07129 535.411 4.07129 c 2
 316.564 4.07129 l 1
 316.564 4.07129 251.42 -19.3398 251.42 -135.38 c 0xe350
316.564 764.438 m 0
 316.564 590.378 432.604 477.392 524.215 477.392 c 0
 636.183 477.392 709.472 551.698 709.472 728.811 c 0
 709.472 864.191 638.219 1034.18 505.893 1034.18 c 0xe660
 377.639 1034.18 316.564 929.337 316.564 764.438 c 0
419.372 1394.51 m 0
 419.372 1462.71 465.177 1585.88 651.45 1629.65 c 1
 674.863 1563.48 l 1
 586.307 1541.09 556.787 1496.3 556.787 1450.5 c 0
 556.787 1408.76 630.076 1353.8 657.559 1350.74 c 1
 646.361 1296.79 604.628 1246.92 545.591 1246.92 c 0
 495.714 1246.92 419.372 1282.54 419.372 1394.51 c 0
EndSplineSet
Fore
SplineSet
50 -165 m 0
 50 -62 159 -4 220 28 c 1
 220 35 l 1
 166 60 124 105 124 162 c 0
 124 212 204 283 276 322 c 1
 276 327 l 1
 225 346 125 442 125 578 c 0
 125 744 273 885 444 885 c 0
 520 885 584 858 635 822 c 1
 650 822 854 838 854 838 c 1
 870 820 l 1
 835 725 l 1
 823 723 l 1
 682 764 l 1
 679 753 l 1
 694 727 723 649 723 588 c 0
 723 416 555 291 408 291 c 0
 368 291 327 302 315 306 c 1
 285 277 249 245 249 210 c 0
 249 158 300 132 419 132 c 2
 573 132 l 2
 734 132 843 110 841 -58 c 0
 839 -231 628 -387 396 -387 c 0
 200 -387 50 -313 50 -165 c 0
186 -116 m 0
 186 -251 298 -299 462 -299 c 0
 591 -299 713 -240 713 -107 c 0
 713 -18 676 17 492 17 c 2
 280 17 l 1
 280 17 186 -15 186 -116 c 0
252 599 m 0
 252 471 336 359 435 359 c 0
 524 359 593 424 593 565 c 0
 593 696 526 825 420 825 c 0
 302 825 252 730 252 599 c 0
EndSplineSet
Refer: 72 806 N -1 0 0 -1 542 905 2
Colour: ffffff
EndChar

StartChar: greaterequal
Encoding: 8805 8805 366
Width: 697
VWidth: 0
Flags: MW
LayerCount: 2
Back
SplineSet
54.9658 -335.904 m 1
 76.3418 -205.613 l 1
 842.815 -197.472 l 1
 822.457 -327.761 l 1
 54.9658 -335.904 l 1
96.7002 -16.2861 m 1
 575.109 571.037 l 1
 120.111 1131.9 l 1
 192.382 1223.51 l 1
 871.315 572.055 l 1
 872.334 537.447 l 1
 174.061 -103.824 l 1
 96.7002 -16.2861 l 1
EndSplineSet
Fore
Refer: 95 8211 S -1 0 0 1 775 -674 2
Refer: 112 62 S 1 0 0 1 23 0 2
Colour: ffffff
EndChar

StartChar: guillemotleft
Encoding: 171 171 367
Width: 432
VWidth: 0
Flags: HMW
LayerCount: 2
Back
SplineSet
29.5195 589.36 m 1
 366.441 1031.13 l 1
 421.408 956.819 l 1
 214.775 579.181 l 1
 425.479 177.113 l 1
 359.315 96.7002 l 1
 30.5371 563.913 l 1
 29.5195 589.36 l 1
339.977 589.36 m 1
 676.898 1031.13 l 1
 732.883 956.819 l 1
 525.232 579.181 l 1
 736.954 177.113 l 1
 670.791 96.7002 l 1
 340.994 563.913 l 1
 339.977 589.36 l 1
EndSplineSet
Fore
Refer: 113 8249 N 1 0 0 1 219 0 2
Refer: 113 8249 N 1 0 0 1 -28 0 2
Colour: ffffff
EndChar

StartChar: guillemotright
Encoding: 187 187 368
Width: 432
VWidth: 0
Flags: HMW
LayerCount: 2
Back
SplineSet
76.3418 177.113 m 1
 287.046 579.181 l 1
 80.4131 956.819 l 1
 135.38 1031.13 l 1
 472.302 589.36 l 1
 470.266 563.913 l 1
 141.487 96.7002 l 1
 76.3418 177.113 l 1
386.8 177.113 m 1
 598.521 579.181 l 1
 390.871 956.819 l 1
 446.854 1031.13 l 1
 783.777 589.36 l 1
 780.724 563.913 l 1
 452.963 96.7002 l 1
 386.8 177.113 l 1
EndSplineSet
Fore
Refer: 367 171 N -1 0 0 1 599 0 2
Colour: ffffff
EndChar

StartChar: guilsinglright
Encoding: 8250 8250 369
Width: 432
VWidth: 0
Flags: MW
LayerCount: 2
Back
SplineSet
76.3418 177.113 m 1
 287.046 579.181 l 1
 80.4131 956.819 l 1
 135.38 1031.13 l 1
 472.302 589.36 l 1
 470.266 563.913 l 1
 141.487 96.7002 l 1
 76.3418 177.113 l 1
EndSplineSet
Fore
Refer: 113 8249 N -1 0 0 1 407 0 2
Colour: ffffff
EndChar

StartChar: icaron
Encoding: 464 464 370
Width: 555
VWidth: 0
Flags: HMW
LayerCount: 2
Back
SplineSet
46.8232 0 m 1
 61.0732 99.7539 l 1
 251.42 145.559 l 1
 251.42 919.157 l 1
 61.0732 988.374 l 1
 77.3604 1084.05 l 1
 431.587 1112.56 l 1
 462.124 1081 l 1
 462.124 145.559 l 1
 663.666 100.771 l 1
 649.415 0 l 1
 46.8232 0 l 1
76.3418 1487.14 m 1
 178.131 1564.5 l 1
 365.424 1383.32 l 1
 377.639 1383.32 l 1
 532.358 1560.43 l 1
 587.324 1521.75 l 1
 370.513 1296.79 l 1
 301.296 1280.51 l 1
 76.3418 1487.14 l 1
EndSplineSet
Fore
Refer: 65 711 N 1 0 0 1 -4 -367 2
Refer: 87 305 N 1 0 0 1 0 0 3
Colour: ffffff
EndChar

StartChar: less
Encoding: 60 60 371
Width: 697
VWidth: 0
Flags: HMW
LayerCount: 2
Back
SplineSet
46.8232 537.447 m 1
 49.876 572.055 l 1
 726.775 1223.51 l 1
 799.046 1131.9 l 1
 344.048 571.037 l 1
 823.476 -16.2861 l 1
 745.098 -103.824 l 1
 46.8232 537.447 l 1
EndSplineSet
Fore
Refer: 112 62 S -1 0 0 1 731 0 2
Colour: ffffff
EndChar

StartChar: lessequal
Encoding: 8804 8804 372
Width: 697
VWidth: 0
Flags: MW
LayerCount: 2
Back
SplineSet
46.8232 537.447 m 1
 49.876 572.055 l 1
 726.775 1223.51 l 1
 799.046 1131.9 l 1
 344.048 571.037 l 1
 823.476 -16.2861 l 1
 745.098 -103.824 l 1
 46.8232 537.447 l 1
76.3418 -335.904 m 1
 96.7002 -205.613 l 1
 865.209 -197.472 l 1
 844.851 -327.761 l 1
 76.3418 -335.904 l 1
EndSplineSet
Fore
Refer: 95 8211 S 1 0 0 1 -21 -674 2
Refer: 112 62 S -1 0 0 1 731 0 2
Colour: ffffff
EndChar

StartChar: ocaron
Encoding: 466 466 374
Width: 944
VWidth: 0
Flags: HMW
LayerCount: 2
Back
SplineSet
65.1455 535.411 m 0
 65.1455 917.121 331.833 1134.95 612.771 1134.95 c 0
 922.211 1134.95 1108.49 900.835 1108.49 554.752 c 0
 1108.49 204.596 875.388 -33.5908 582.234 -33.5908 c 0
 250.401 -33.5908 65.1455 211.722 65.1455 535.411 c 0
289.082 624.986 m 0
 289.082 365.424 377.639 88.5566 624.986 88.5566 c 0
 802.1 88.5566 884.548 273.813 884.548 450.926 c 0
 884.548 699.293 799.046 1002.62 559.841 1002.62 c 0
 370.513 1002.62 289.082 822.457 289.082 624.986 c 0
323.689 1456.6 m 1
 424.461 1533.96 l 1
 612.771 1353.8 l 1
 624.986 1353.8 l 1
 779.706 1529.89 l 1
 833.654 1491.21 l 1
 617.861 1266.26 l 1
 548.644 1247.94 l 1
 323.689 1456.6 l 1
EndSplineSet
Fore
Refer: 65 711 N 1 0 0 1 201 -367 2
Refer: 138 111 N 1 0 0 1 0 0 3
Colour: ffffff
EndChar

StartChar: overline
Encoding: 8254 8254 375
Width: 365
VWidth: 0
Flags: MW
LayerCount: 2
Back
SplineSet
41.7344 1636.77 m 1
 58.0195 1764.01 l 1
 612.771 1764.01 l 1
 595.468 1636.77 l 1
 41.7344 1636.77 l 1
EndSplineSet
Fore
Refer: 129 175 S 1 0 0 1 -74 -65 2
Colour: ffffff
EndChar

StartChar: parenleft
Encoding: 40 40 376
Width: 474
VWidth: 0
Flags: HMW
LayerCount: 2
Back
SplineSet
61.0732 559.841 m 0
 61.0732 1219.44 403.085 1507.5 485.535 1577.73 c 1
 547.626 1494.27 l 1
 439.73 1352.78 285.011 1105.43 285.011 572.055 c 0
 285.011 49.876 509.965 -307.404 564.931 -399.014 c 1
 478.409 -471.284 l 1
 415.3 -412.246 61.0732 -87.5391 61.0732 559.841 c 0
EndSplineSet
Fore
Refer: 151 41 N -1 0 0 1 477 0 2
Colour: ffffff
EndChar

StartChar: plusminus
Encoding: 177 177 377
Width: 680
VWidth: 0
Flags: HMW
LayerCount: 2
Back
SplineSet
73.2891 16.2861 m 1
 93.6455 146.576 l 1
 862.154 154.72 l 1
 841.798 24.4287 l 1
 73.2891 16.2861 l 1
104.843 597.503 m 1
 119.094 722.704 l 1
 382.728 722.704 l 1
 382.728 1014.84 l 1
 518.107 999.57 l 1
 520.144 722.704 l 1
 795.992 722.704 l 1
 780.724 597.503 l 1
 520.144 597.503 l 1
 522.179 301.296 l 1
 382.728 315.546 l 1
 382.728 597.503 l 1
 104.843 597.503 l 1
EndSplineSet
Fore
Refer: 130 8722 S 1 0 0 1 -30 -395 2
Refer: 157 43 N 1 0 0 1 8 65 2
Colour: ffffff
EndChar

StartChar: questiondown
Encoding: 191 191 378
Width: 619
VWidth: 0
Flags: MW
LayerCount: 2
Back
SplineSet
66.1631 49.876 m 0xe8
 66.1631 348.119 428.532 305.367 428.532 491.642 c 0
 428.532 541.52 419.372 587.324 401.05 649.415 c 1
 493.678 670.791 l 1
 527.268 620.915 591.396 495.714 591.396 394.941 c 0
 591.396 112.986 205.613 207.65 205.613 -49.876 c 0
 205.613 -165.917 337.939 -267.706 412.246 -267.706 c 0
 507.929 -267.706 598.521 -236.15 652.47 -178.131 c 1
 694.202 -194.417 745.098 -249.383 745.098 -317.583 c 0
 745.098 -383.745 695.22 -487.571 497.75 -487.571 c 0
 303.332 -487.571 66.1631 -269.741 66.1631 49.876 c 0xe8
293.152 1017.89 m 0xf0
 293.152 1106.45 363.388 1176.68 450.926 1176.68 c 0
 538.465 1176.68 605.646 1103.4 605.646 1014.84 c 0
 605.646 930.354 533.376 867.244 450.926 867.244 c 0
 366.441 867.244 293.152 933.408 293.152 1017.89 c 0xf0
EndSplineSet
Fore
Refer: 160 63 S -1 0 0 -1 634 900 2
Colour: ffffff
EndChar

StartChar: quotedblbase
Encoding: 8222 8222 379
Width: 397
VWidth: 0
Flags: MW
LayerCount: 2
Back
SplineSet
68.1982 -319.619 m 1
 233.098 -276.867 297.225 -181.185 297.225 -100.771 c 0
 297.225 -30.5371 239.204 33.5908 150.648 33.5908 c 0
 138.433 33.5908 125.2 31.5547 112.986 30.5371 c 1
 102.807 57.002 95.6826 79.3955 95.6826 108.915 c 0
 95.6826 209.687 185.257 261.599 248.365 261.599 c 0
 335.904 261.599 468.23 189.328 468.23 0 c 0
 468.23 -117.059 427.515 -318.601 96.7002 -406.139 c 1
 68.1982 -319.619 l 1
467.213 -319.619 m 1
 632.111 -276.867 695.22 -181.185 695.22 -100.771 c 0
 695.22 -30.5371 639.236 33.5908 550.68 33.5908 c 0
 538.465 33.5908 525.232 31.5547 513.018 30.5371 c 1
 502.839 57.002 493.678 79.3955 493.678 108.915 c 0
 493.678 209.687 585.289 261.599 648.397 261.599 c 0
 735.937 261.599 868.263 189.328 868.263 0 c 0
 868.263 -117.059 827.546 -318.601 496.732 -406.139 c 1
 467.213 -319.619 l 1
EndSplineSet
Fore
Refer: 384 8218 N 1 0 0 1 324 0 2
Refer: 384 8218 N 1 0 0 1 0 0 2
Colour: ffffff
EndChar

StartChar: quotedblleft
Encoding: 8220 8220 380
Width: 397
VWidth: 0
Flags: MW
LayerCount: 2
Back
SplineSet
68.1982 1212.31 m 0
 68.1982 1329.37 109.933 1530.91 440.748 1618.45 c 1
 468.23 1531.93 l 1
 303.332 1489.18 240.224 1393.5 240.224 1313.08 c 0
 240.224 1242.85 298.243 1178.72 386.8 1178.72 c 0
 399.014 1178.72 412.246 1180.76 424.461 1181.77 c 1
 434.64 1155.31 442.783 1132.92 442.783 1103.4 c 0
 442.783 1002.62 352.191 950.711 289.082 950.711 c 0
 201.543 950.711 68.1982 1022.98 68.1982 1212.31 c 0
464.159 1212.31 m 0
 464.159 1329.37 505.893 1530.91 836.708 1618.45 c 1
 865.209 1531.93 l 1
 700.311 1489.18 637.2 1393.5 637.2 1313.08 c 0
 637.2 1242.85 694.202 1178.72 782.759 1178.72 c 0
 794.974 1178.72 807.188 1180.76 819.404 1181.77 c 1
 829.582 1155.31 837.726 1132.92 837.726 1103.4 c 0
 837.726 1002.62 747.133 950.711 684.023 950.711 c 0
 596.485 950.711 464.159 1022.98 464.159 1212.31 c 0
EndSplineSet
Fore
Refer: 382 8216 S 1 0 0 1 316 0 2
Refer: 382 8216 N 1 0 0 1 0 0 2
Colour: ffffff
EndChar

StartChar: quotedblright
Encoding: 8221 8221 381
Width: 397
VWidth: 0
Flags: MW
LayerCount: 2
Back
SplineSet
77.3604 1035.2 m 1
 242.259 1077.95 305.367 1173.63 305.367 1254.04 c 0
 305.367 1324.28 249.383 1388.41 160.826 1388.41 c 0
 148.612 1388.41 135.38 1387.39 123.165 1386.37 c 1
 112.986 1412.83 104.843 1436.25 104.843 1465.77 c 0
 104.843 1566.54 195.436 1616.41 258.545 1616.41 c 0
 346.083 1616.41 478.409 1544.14 478.409 1354.82 c 0
 478.409 1237.76 437.693 1036.21 106.879 948.676 c 1
 77.3604 1035.2 l 1
477.392 1035.2 m 1
 642.291 1077.95 705.399 1173.63 705.399 1254.04 c 0
 705.399 1324.28 648.397 1388.41 559.841 1388.41 c 0
 547.626 1388.41 534.394 1387.39 522.179 1386.37 c 1
 512 1412.83 502.839 1436.25 502.839 1465.77 c 0
 502.839 1566.54 594.449 1616.41 657.559 1616.41 c 0
 745.098 1616.41 877.424 1544.14 877.424 1354.82 c 0
 877.424 1237.76 836.708 1036.21 505.893 948.676 c 1
 477.392 1035.2 l 1
EndSplineSet
Fore
Refer: 383 8217 S 1 0 0 1 347 0 2
Refer: 383 8217 N 1 0 0 1 0 0 2
Colour: ffffff
EndChar

StartChar: quoteleft
Encoding: 8216 8216 382
Width: 397
VWidth: 0
Flags: MW
LayerCount: 2
Back
SplineSet
66.1631 1208.24 m 0
 66.1631 1325.3 107.897 1526.84 438.711 1614.38 c 1
 467.213 1527.86 l 1
 302.313 1485.1 239.204 1389.42 239.204 1309.01 c 0
 239.204 1238.78 296.207 1174.65 384.764 1174.65 c 0
 396.979 1174.65 409.193 1176.68 421.408 1177.7 c 1
 431.587 1151.24 440.748 1128.84 440.748 1099.32 c 0
 440.748 998.553 349.137 946.641 286.028 946.641 c 0
 198.489 946.641 66.1631 1018.91 66.1631 1208.24 c 0
EndSplineSet
Fore
Refer: 71 44 S -1 0 0 -1 407 985 2
Colour: ffffff
EndChar

StartChar: quoteright
Encoding: 8217 8217 383
Width: 397
VWidth: 0
Flags: MW
LayerCount: 2
Back
SplineSet
77.3604 1030.11 m 1
 242.259 1072.86 305.367 1166.5 305.367 1246.92 c 0
 305.367 1317.15 249.383 1382.3 160.826 1382.3 c 0
 148.612 1382.3 135.38 1380.26 123.165 1379.24 c 1
 112.986 1405.71 104.843 1429.12 104.843 1458.64 c 0
 104.843 1559.41 195.436 1610.31 258.545 1610.31 c 0
 346.083 1610.31 478.409 1538.04 478.409 1348.71 c 0
 478.409 1231.65 437.693 1030.11 106.879 942.569 c 1
 77.3604 1030.11 l 1
EndSplineSet
Fore
Refer: 71 44 N 1 0 0 1 0 1064 2
Colour: ffffff
EndChar

StartChar: quotesinglbase
Encoding: 8218 8218 384
Width: 397
VWidth: 0
Flags: MW
LayerCount: 2
Back
SplineSet
68.1982 -306.387 m 1
 233.098 -263.635 297.225 -168.97 297.225 -88.5566 c 0
 297.225 -18.3223 239.204 45.8047 150.648 45.8047 c 0
 138.433 45.8047 125.2 43.7695 112.986 42.752 c 1
 102.807 69.2168 95.6826 92.6279 95.6826 122.147 c 0
 95.6826 222.918 185.257 273.813 248.365 273.813 c 0
 335.904 273.813 468.23 201.543 468.23 12.2148 c 0
 468.23 -104.843 427.515 -306.387 96.7002 -393.924 c 1
 68.1982 -306.387 l 1
EndSplineSet
Fore
Refer: 71 44 S 1 0 0 1 0 0 2
Colour: ffffff
EndChar

StartChar: semicolon
Encoding: 59 59 385
Width: 397
VWidth: 0
Flags: MW
LayerCount: 2
Back
SplineSet
96.7002 -289.082 m 1xe8
 250.401 -249.383 309.439 -163.881 309.439 -87.5391 c 0
 309.439 -22.3936 256.509 38.6797 174.061 38.6797 c 0
 162.863 38.6797 149.63 36.6436 138.433 35.626 c 1
 128.255 60.0557 120.111 82.4492 120.111 108.915 c 0
 120.111 202.561 204.596 250.401 263.635 250.401 c 0
 344.048 250.401 468.23 182.202 468.23 7.12598 c 0
 468.23 -101.789 429.551 -290.1 123.165 -370.513 c 1
 96.7002 -289.082 l 1xe8
157.773 935.443 m 0xf0
 157.773 1012.8 223.937 1071.84 301.296 1071.84 c 0
 381.709 1071.84 447.872 1010.77 447.872 933.408 c 0
 447.872 851.976 381.709 786.831 301.296 786.831 c 0
 220.883 786.831 157.773 854.013 157.773 935.443 c 0xf0
EndSplineSet
Fore
Refer: 154 46 N 1 0 0 1 41 661 2
Refer: 71 44 N 1 0 0 0.960692 15 -12 2
Colour: ffffff
EndChar

StartChar: tcommaaccent
Encoding: 539 539 386
Width: 640
VWidth: 0
Flags: HMW
LayerCount: 2
Back
SplineSet
34.6084 984.302 m 1
 34.6084 1052.5 l 1
 138.433 1132.92 257.526 1255.06 346.083 1367.03 c 1
 412.246 1367.03 l 1
 412.246 1092.2 l 1
 767.491 1092.2 l 1
 756.294 981.248 l 1
 410.211 981.248 l 1
 406.139 409.193 l 1
 406.139 401.05 l 2
 406.139 211.722 462.124 153.702 590.378 153.702 c 0
 683.006 153.702 771.562 223.937 771.562 223.937 c 1
 798.028 155.737 l 1
 721.687 43.7695 601.574 -29.5195 458.052 -29.5195 c 0
 304.35 -29.5195 190.346 45.8047 190.346 326.743 c 2
 190.346 365.424 l 1
 194.417 984.302 l 1
 34.6084 984.302 l 1
319.619 -423.443 m 1
 408.176 -401.05 436.676 -355.244 436.676 -309.439 c 0
 436.676 -267.706 363.388 -214.775 335.904 -211.722 c 1
 347.102 -157.773 388.835 -106.879 447.872 -106.879 c 0
 497.75 -106.879 575.109 -143.523 575.109 -255.491 c 0
 575.109 -323.689 527.268 -445.837 340.994 -489.606 c 1
 319.619 -423.443 l 1
EndSplineSet
Fore
Refer: 72 806 N 1 0 0 1 275 -37 2
Refer: 179 116 N 1 0 0 1 0 0 3
Colour: ffffff
EndChar

StartChar: ucaron
Encoding: 468 468 387
Width: 1013
VWidth: 0
Flags: HMW
LayerCount: 2
Back
SplineSet
24.4287 984.302 m 1xbc
 41.7344 1084.05 l 1
 378.656 1110.52 l 1
 409.193 1079.98 l 1
 409.193 399.014 l 2
 409.193 209.687 490.624 143.523 603.61 143.523 c 0xbc
 716.596 143.523 783.777 185.257 837.726 240.224 c 1
 837.726 907.961 l 1
 637.2 960.891 l 1
 649.415 1075.91 l 1
 1018.91 1110.52 l 1
 1046.39 1079.98 l 1
 1046.39 269.741 l 2
 1046.39 143.523 1099.32 130.291 1181.77 111.968 c 2
 1239.79 99.7539 l 1
 1228.6 -5.08887 l 1x7c
 1150.22 -23.4111 1112.56 -29.5195 1038.25 -29.5195 c 0
 912.032 -29.5195 852.994 49.876 852.994 153.702 c 2
 852.994 164.898 l 1
 837.726 164.898 l 1
 750.187 36.6436 629.057 -29.5195 477.392 -29.5195 c 0
 315.546 -29.5195 197.472 66.1631 197.472 335.904 c 2
 197.472 915.085 l 1
 24.4287 984.302 l 1xbc
358.298 1456.6 m 1
 459.069 1533.96 l 1
 645.344 1353.8 l 1
 657.559 1353.8 l 1
 813.296 1529.89 l 1
 868.263 1491.21 l 1
 652.47 1266.26 l 1
 583.252 1247.94 l 1
 358.298 1456.6 l 1
EndSplineSet
Fore
Refer: 65 711 N 1 0 0 1 254 -367 2
Refer: 192 117 N 1 0 0 1 0 0 3
Colour: ffffff
EndChar

StartChar: udieresisacute
Encoding: 472 472 388
Width: 1013
VWidth: 0
Flags: HMW
LayerCount: 2
Back
SplineSet
24.4287 984.302 m 1xbc80
 41.7344 1084.05 l 1
 378.656 1110.52 l 1
 409.193 1079.98 l 1
 409.193 399.014 l 2
 409.193 209.687 490.624 143.523 603.61 143.523 c 0xbc80
 716.596 143.523 783.777 185.257 837.726 240.224 c 1
 837.726 907.961 l 1
 637.2 960.891 l 1
 649.415 1075.91 l 1
 1018.91 1110.52 l 1
 1046.39 1079.98 l 1
 1046.39 269.741 l 2
 1046.39 143.523 1099.32 130.291 1181.77 111.968 c 2
 1239.79 99.7539 l 1
 1228.6 -5.08887 l 1x7c80
 1150.22 -23.4111 1112.56 -29.5195 1038.25 -29.5195 c 0
 912.032 -29.5195 852.994 49.876 852.994 153.702 c 2
 852.994 164.898 l 1
 837.726 164.898 l 1
 750.187 36.6436 629.057 -29.5195 477.392 -29.5195 c 0
 315.546 -29.5195 197.472 66.1631 197.472 335.904 c 2
 197.472 915.085 l 1
 24.4287 984.302 l 1xbc80
350.154 1362.96 m 0x3a
 350.154 1422 404.103 1461.69 454.998 1461.69 c 0
 509.965 1461.69 562.896 1420.98 562.896 1362.96 c 0
 562.896 1300.87 509.965 1262.19 454.998 1262.19 c 0
 401.05 1262.19 350.154 1300.87 350.154 1362.96 c 0x3a
567.984 1506.48 m 1
 722.704 1915.67 l 1
 862.154 1865.8 l 1
 633.129 1466.78 l 1
 567.984 1506.48 l 1
686.061 1362.96 m 0x39
 686.061 1422 740.008 1461.69 790.902 1461.69 c 0
 845.869 1461.69 900.835 1420.98 900.835 1362.96 c 0
 900.835 1300.87 845.869 1262.19 790.902 1262.19 c 0
 736.954 1262.19 686.061 1300.87 686.061 1362.96 c 0x39
EndSplineSet
Fore
Refer: 49 180 N 1 0 0 1 251 -98 2
Refer: 261 252 N 1 0 0 1 0 0 3
Colour: ffffff
EndChar

StartChar: udieresiscaron
Encoding: 474 474 389
Width: 1013
VWidth: 0
Flags: HMW
LayerCount: 2
Back
SplineSet
24.4287 984.302 m 1xbc80
 41.7344 1084.05 l 1
 378.656 1110.52 l 1
 409.193 1079.98 l 1
 409.193 399.014 l 2
 409.193 209.687 490.624 143.523 603.61 143.523 c 0xbc80
 716.596 143.523 783.777 185.257 837.726 240.224 c 1
 837.726 907.961 l 1
 637.2 960.891 l 1
 649.415 1075.91 l 1
 1018.91 1110.52 l 1
 1046.39 1079.98 l 1
 1046.39 269.741 l 2
 1046.39 143.523 1099.32 130.291 1181.77 111.968 c 2
 1239.79 99.7539 l 1
 1228.6 -5.08887 l 1x7c80
 1150.22 -23.4111 1112.56 -29.5195 1038.25 -29.5195 c 0
 912.032 -29.5195 852.994 49.876 852.994 153.702 c 2
 852.994 164.898 l 1
 837.726 164.898 l 1
 750.187 36.6436 629.057 -29.5195 477.392 -29.5195 c 0
 315.546 -29.5195 197.472 66.1631 197.472 335.904 c 2
 197.472 915.085 l 1
 24.4287 984.302 l 1xbc80
350.154 1362.96 m 0x3a
 350.154 1422 404.103 1461.69 454.998 1461.69 c 0
 509.965 1461.69 562.896 1420.98 562.896 1362.96 c 0
 562.896 1300.87 509.965 1262.19 454.998 1262.19 c 0
 401.05 1262.19 350.154 1300.87 350.154 1362.96 c 0x3a
371.53 1679.52 m 5
 472.302 1756.88 l 5
 660.612 1577.73 l 5
 672.826 1577.73 l 5
 827.546 1752.81 l 5
 883.53 1716.17 l 5
 666.72 1490.2 l 5
 597.503 1471.87 l 5
 371.53 1679.52 l 5
686.061 1362.96 m 0x39
 686.061 1422 740.008 1461.69 790.902 1461.69 c 0
 845.869 1461.69 900.835 1420.98 900.835 1362.96 c 0
 900.835 1300.87 845.869 1262.19 790.902 1262.19 c 0
 736.954 1262.19 686.061 1300.87 686.061 1362.96 c 0x39
EndSplineSet
Fore
Refer: 65 711 N 1 0 0 1 187 -109 2
Refer: 261 252 N 1 0 0 1 0 0 3
Colour: ffffff
EndChar

StartChar: udieresisgrave
Encoding: 476 476 390
Width: 1013
VWidth: 0
Flags: HMW
LayerCount: 2
Back
SplineSet
24.4287 984.302 m 1xbc80
 41.7344 1084.05 l 1
 378.656 1110.52 l 1
 409.193 1079.98 l 1
 409.193 399.014 l 2
 409.193 209.687 490.624 143.523 603.61 143.523 c 0xbc80
 716.596 143.523 783.777 185.257 837.726 240.224 c 1
 837.726 907.961 l 1
 637.2 960.891 l 1
 649.415 1075.91 l 1
 1018.91 1110.52 l 1
 1046.39 1079.98 l 1
 1046.39 269.741 l 2
 1046.39 143.523 1099.32 130.291 1181.77 111.968 c 2
 1239.79 99.7539 l 1
 1228.6 -5.08887 l 1x7c80
 1150.22 -23.4111 1112.56 -29.5195 1038.25 -29.5195 c 0
 912.032 -29.5195 852.994 49.876 852.994 153.702 c 2
 852.994 164.898 l 1
 837.726 164.898 l 1
 750.187 36.6436 629.057 -29.5195 477.392 -29.5195 c 0
 315.546 -29.5195 197.472 66.1631 197.472 335.904 c 2
 197.472 915.085 l 1
 24.4287 984.302 l 1xbc80
350.154 1362.96 m 0x3a
 350.154 1422 404.103 1461.69 454.998 1461.69 c 0
 509.965 1461.69 562.896 1420.98 562.896 1362.96 c 0
 562.896 1300.87 509.965 1262.19 454.998 1262.19 c 0
 401.05 1262.19 350.154 1300.87 350.154 1362.96 c 0x3a
371.53 1867.83 m 1
 517.089 1915.67 l 1
 683.006 1495.28 l 1
 610.735 1452.53 l 1
 371.53 1867.83 l 1
686.061 1362.96 m 0x39
 686.061 1422 740.008 1461.69 790.902 1461.69 c 0
 845.869 1461.69 900.835 1420.98 900.835 1362.96 c 0
 900.835 1300.87 845.869 1262.19 790.902 1262.19 c 0
 736.954 1262.19 686.061 1300.87 686.061 1362.96 c 0x39
EndSplineSet
Fore
Refer: 111 96 N 1 0 0 1 163 -84 2
Refer: 261 252 N 1 0 0 1 0 0 3
Colour: ffffff
EndChar

StartChar: udieresismacron
Encoding: 470 470 391
Width: 1013
VWidth: 0
Flags: HMW
LayerCount: 2
Back
SplineSet
24.4287 984.302 m 1xbe40
 41.7344 1084.05 l 1
 378.656 1110.52 l 1
 409.193 1079.98 l 1
 409.193 399.014 l 2
 409.193 209.687 490.624 143.523 603.61 143.523 c 0xbe40
 716.596 143.523 783.777 185.257 837.726 240.224 c 1
 837.726 907.961 l 1
 637.2 960.891 l 1
 649.415 1075.91 l 1
 1018.91 1110.52 l 1
 1046.39 1079.98 l 1
 1046.39 269.741 l 2
 1046.39 143.523 1099.32 130.291 1181.77 111.968 c 2
 1239.79 99.7539 l 1
 1228.6 -5.08887 l 1x7e40
 1150.22 -23.4111 1112.56 -29.5195 1038.25 -29.5195 c 0
 912.032 -29.5195 852.994 49.876 852.994 153.702 c 2
 852.994 164.898 l 1
 837.726 164.898 l 1
 750.187 36.6436 629.057 -29.5195 477.392 -29.5195 c 0
 315.546 -29.5195 197.472 66.1631 197.472 335.904 c 2
 197.472 915.085 l 1
 24.4287 984.302 l 1xbe40
346.083 1521.75 m 1
 362.37 1647.97 l 1
 915.085 1647.97 l 1
 899.817 1521.75 l 1
 346.083 1521.75 l 1
350.154 1342.6 m 0x3d
 350.154 1401.64 404.103 1440.32 454.998 1440.32 c 0
 509.965 1440.32 562.896 1400.62 562.896 1342.6 c 0
 562.896 1280.51 509.965 1241.83 454.998 1241.83 c 0
 401.05 1241.83 350.154 1280.51 350.154 1342.6 c 0x3d
686.061 1342.6 m 0x3c80
 686.061 1401.64 740.008 1440.32 790.902 1440.32 c 0
 845.869 1440.32 900.835 1400.62 900.835 1342.6 c 0
 900.835 1280.51 845.869 1241.83 790.902 1241.83 c 0
 736.954 1241.83 686.061 1280.51 686.061 1342.6 c 0x3c80
EndSplineSet
Fore
Refer: 129 175 N 1 0 0 1 165 -132 2
Refer: 261 252 N 1 0 0 1 0 0 3
Colour: ffffff
EndChar

StartChar: ygrave
Encoding: 7923 7923 392
Width: 936
VWidth: 0
Flags: MW
LayerCount: 2
Back
SplineSet
315.546 1622.52 m 1
 460.087 1670.36 l 1
 626.004 1250.99 l 1
 554.752 1207.22 l 1
 315.546 1622.52 l 1
2.03516 -327.761 m 0
 2.03516 -277.885 14.25 -226.989 72.2695 -177.113 c 1
 140.47 -223.937 195.436 -244.294 261.599 -244.294 c 0
 323.689 -244.294 409.193 -231.062 477.392 -62.0918 c 2
 501.821 0 l 1
 143.523 952.748 l 1
 -12.2148 1000.59 l 1
 2.03516 1097.29 l 1
 529.305 1097.29 l 1
 518.107 1004.66 l 1
 358.298 956.819 l 1
 614.807 278.902 l 1
 886.585 950.711 l 1
 722.704 1002.62 l 1
 740.008 1097.29 l 1
 1169.56 1097.29 l 1
 1160.4 1004.66 l 1
 1034.18 952.748 l 1
 617.861 -66.1631 l 2
 486.553 -387.817 385.781 -477.392 195.436 -477.392 c 0
 79.3955 -477.392 2.03516 -400.032 2.03516 -327.761 c 0
EndSplineSet
Fore
Refer: 111 96 S 1 0 0 1 164 -342 2
Refer: 201 121 N 1 0 0 1 0 0 3
Colour: ffffff
EndChar

StartChar: four.superior
Encoding: 65563 -1 393
Width: 621
VWidth: 0
Flags: HMW
LayerCount: 2
Fore
SplineSet
22 798 m 1
 419 1278 l 1
 470 1269 l 1
 464 1198 461 1082 461 973 c 2
 461 822 l 1
 609 822 l 1
 600 736 l 1
 461 736 l 1
 461 622 l 1
 580 603 l 1
 574 548 l 1
 180 548 l 1
 185 598 l 1
 336 624 l 1
 336 740 l 1
 34 740 l 1
 22 798 l 1
129 822 m 1
 333 822 l 1
 333 1080 l 1
 129 822 l 1
EndSplineSet
EndChar

StartChar: five.superior
Encoding: 65564 -1 394
Width: 620
VWidth: 0
Flags: HMW
LayerCount: 2
Fore
SplineSet
44 609 m 1
 65 786 l 1
 124 778 l 1
 134 656 l 1
 165 620 208 599 255 599 c 0
 335 599 380 657 380 730 c 0
 380 821 292 909 104 908 c 1
 174 1262 l 1
 471 1290 l 1
 455 1148 l 1
 216 1138 l 1
 187 1004 l 1
 412 1013 515 889 516 759 c 0
 517 640 394 526 230 526 c 0
 160 526 99 548 44 609 c 1
EndSplineSet
EndChar

StartChar: six.superior
Encoding: 65565 -1 395
Width: 642
VWidth: 0
Flags: HMW
LayerCount: 2
Fore
SplineSet
70 805 m 0
 70 1014 240 1215 455 1284 c 1
 478 1233 l 1
 310 1153 242 1028 218 902 c 1
 224 902 l 1
 258 948 308 990 389 990 c 0
 519 990 594 906 594 776 c 0
 594 632 478 527 324 527 c 0
 138 527 70 659 70 805 c 0
212 793 m 0
 212 679 264 594 335 594 c 0
 427 594 453 656 453 750 c 0
 453 834 414 904 326 904 c 0
 273 904 231 876 217 856 c 1
 214 838 212 812 212 793 c 0
EndSplineSet
EndChar

StartChar: seven.superior
Encoding: 65566 -1 396
Width: 537
VWidth: 0
Flags: HMW
LayerCount: 2
Fore
SplineSet
38 1003 m 1
 58 1270 l 1
 542 1270 l 1
 542 1218 l 1
 276 513 l 1
 122 524 l 1
 434 1135 l 1
 130 1135 l 1
 90 998 l 1
 38 1003 l 1
EndSplineSet
EndChar

StartChar: eight.superior
Encoding: 65567 -1 397
Width: 602
VWidth: 0
Flags: HMW
LayerCount: 2
Fore
SplineSet
67 714 m 0
 67 780 104 853 224 909 c 1
 224 913 l 1
 156 958 107 1009 107 1091 c 0
 107 1193 194 1278 316 1278 c 0
 436 1278 510 1198 510 1104 c 0
 510 1020 464 967 386 934 c 1
 385 930 l 1
 503 864 548 806 548 719 c 0
 548 604 441 524 291 524 c 0
 169 524 67 600 67 714 c 0
181 748 m 0
 181 644 262 594 324 594 c 0
 389 594 436 634 436 701 c 0
 436 762 358 822 260 882 c 1
 225 852 181 820 181 748 c 0
213 1112 m 0
 213 1054 266 1014 344 960 c 1
 377 992 401 1012 401 1085 c 0
 401 1156 354 1218 299 1218 c 0
 245 1218 213 1172 213 1112 c 0
EndSplineSet
EndChar

StartChar: nine.superior
Encoding: 65568 -1 398
Width: 638
VWidth: 0
Flags: HMW
LayerCount: 2
Fore
SplineSet
70 1028 m 0
 70 1174 188 1281 332 1281 c 0
 516 1281 584 1149 584 1005 c 0
 584 767 436 556 146 522 c 1
 130 580 l 1
 350 634 418 748 436 871 c 1
 432 871 l 1
 390 827 348 807 272 807 c 0
 144 807 70 899 70 1028 c 0
197 1054 m 0
 197 958 238 892 326 892 c 0
 378 892 426 922 442 946 c 1
 447 969 449 996 449 1017 c 0
 449 1132 393 1215 322 1215 c 0
 234 1215 197 1154 197 1054 c 0
EndSplineSet
EndChar

StartChar: zero.superior
Encoding: 65569 -1 399
Width: 671
VWidth: 0
Flags: HMW
LayerCount: 2
Fore
SplineSet
56 898 m 0
 56 1150 194 1282 350 1282 c 0
 520 1282 634 1154 634 898 c 0
 634 620 487 524 347 524 c 0
 189 524 56 614 56 898 c 0
204 896 m 0
 204 692 255 590 349 590 c 0
 441 590 484 692 484 898 c 0
 484 1088 440 1212 347 1212 c 0
 247 1212 204 1088 204 896 c 0
EndSplineSet
EndChar
